<svg width="119" height="119" viewBox="0 0 119 119" fill="none" xmlns="http://www.w3.org/2000/svg">
<circle cx="59.5" cy="59.5" r="59.5" fill="black"/>
<path d="M63.3955 22.965C48.237 22.965 35.2188 32.0571 29.5799 45.0507H41.5934V45.3837C41.5934 49.8212 37.971 53.4164 33.5001 53.4164H27.0986H6.26172V53.7493C6.26172 58.1868 9.88405 61.782 14.355 61.782H26.6573H41.5934V61.8283H44.193H45.2139V61.782V54.6949C45.2139 54.264 45.2336 53.8384 45.2767 53.4146C45.3987 52.0773 45.7252 50.7934 46.2545 49.563C46.9506 47.9461 47.9069 46.534 49.1269 45.3196C50.3505 44.1087 51.7732 43.1596 53.4023 42.4687C55.0313 41.7778 56.7788 41.4324 58.6465 41.4324H66.4778V49.7749H58.6465C57.3996 49.7749 56.4415 50.2521 55.7741 51.203C55.1013 52.1539 54.7658 53.4609 54.7658 55.124V61.8034H64.2692V61.8265H66.4778V54.1589H68.6864V54.1393H78.1845V41.4342H87.7399V54.1607H92.9142V62.0776H87.7399V69.2074C87.7399 71.0148 87.3919 72.726 86.6958 74.3393C86.0032 75.9562 85.047 77.3718 83.8234 78.5827C82.6034 79.7971 81.177 80.7462 79.548 81.4371C77.9225 82.1245 76.1715 82.4681 74.3074 82.4681H66.476V74.1257H74.3074C75.5507 74.1257 76.5069 73.652 77.1797 72.7029C77.8525 71.7485 78.1845 70.445 78.1845 68.7818V62.1025H68.6846V62.0794H66.476V69.7434H64.2675V69.763H54.764V82.4699H45.2121V78.4723V70.1494V70.1067H44.1912H41.5916H28.1608H16.1491V70.1494V70.4397C16.1491 74.8771 19.7715 78.4723 24.2424 78.4723H31.9338H40.3787L33.152 80.326C39.7956 89.8206 50.8672 96.0351 63.3955 96.0351C83.7247 96.0351 100.209 79.6796 100.209 59.5009C100.209 39.3205 83.7247 22.965 63.3955 22.965Z" fill="url(#paint0_linear_95_450)"/>
<defs>
<linearGradient id="paint0_linear_95_450" x1="80.4898" y1="110.519" x2="54.5647" y2="55.3749" gradientUnits="userSpaceOnUse">
<stop offset="0.047" stop-color="#7200FF"/>
<stop offset="1" stop-color="#FC57FF"/>
</linearGradient>
</defs>
</svg>
