<svg width="53" height="51" viewBox="0 0 53 51" fill="none" xmlns="http://www.w3.org/2000/svg">
<g id="Calendar" clip-path="url(#clip0_70_1853)">
<g id="Layer 2">
<g id="icon">
<path id="Vector" opacity="0.15" d="M48.9154 13.4219H8.8877V46.9154C8.8877 47.9987 9.31802 49.0376 10.084 49.8036C10.85 50.5696 11.8889 51 12.9722 51H48.9154C49.9987 51 51.0376 50.5696 51.8036 49.8036C52.5696 49.0376 52.9999 47.9987 52.9999 46.9154V17.5064C52.9999 16.4232 52.5696 15.3842 51.8036 14.6182C51.0376 13.8522 49.9987 13.4219 48.9154 13.4219Z" fill="#FD8AFF"/>
<path id="Vector_2" d="M44.5207 6.0697H3.67602C2.77371 6.0697 2.04224 6.80119 2.04224 7.70353V42.014C2.04224 42.9163 2.77371 43.6478 3.67602 43.6478H44.5207C45.423 43.6478 46.1544 42.9163 46.1544 42.014V7.70353C46.1544 6.80119 45.423 6.0697 44.5207 6.0697Z" stroke="#D894FF" stroke-width="5" stroke-miterlimit="10"/>
<path id="Vector_3" d="M13.397 0V12.7357M24.0983 0V12.7357M34.7996 0V12.7357" stroke="#D894FF" stroke-width="3" stroke-miterlimit="10"/>
<path id="Vector_4" d="M2.04224 17.6943H46.1544" stroke="#D894FF" stroke-width="2" stroke-miterlimit="10"/>
<path id="Vector_5" d="M22.1951 22.9553H26.0018V26.7621H22.1951V22.9553ZM32.8964 22.9553H36.7031V26.7621H32.8964V22.9553ZM11.502 22.9553H15.3087V26.7621H11.502V22.9553ZM22.1951 32.5377H26.0018V36.3446H22.1951V32.5377ZM32.8964 32.5377H36.7031V36.3446H32.8964V32.5377ZM11.502 32.5377H15.3087V36.3446H11.502V32.5377Z" fill="#D894FF"/>
</g>
</g>
</g>
<defs>
<clipPath id="clip0_70_1853">
<rect width="53" height="51" fill="white"/>
</clipPath>
</defs>
</svg>
