<svg width="40" height="40" viewBox="0 0 40 40" fill="none" xmlns="http://www.w3.org/2000/svg">
<path d="M36.1666 20C36.1666 28.9286 28.9285 36.1666 19.9999 36.1666C11.0713 36.1666 3.83325 28.9286 3.83325 20C3.83325 11.0714 11.0713 3.83331 19.9999 3.83331C28.9285 3.83331 36.1666 11.0714 36.1666 20ZM16.042 25.2608C15.2656 24.6852 14.1696 24.8481 13.594 25.6246C13.0185 26.401 13.1814 27.497 13.9578 28.0725C15.6598 29.3341 17.7452 30.0833 19.9999 30.0833C22.2546 30.0833 24.34 29.3341 26.042 28.0725C26.8185 27.497 26.9813 26.401 26.4058 25.6246C25.8303 24.8481 24.7343 24.6852 23.9578 25.2608C22.8253 26.1002 21.4634 26.5833 19.9999 26.5833C18.5364 26.5833 17.1745 26.1002 16.042 25.2608ZM24.9999 20.5C25.6793 20.5 26.2333 20.0869 26.5945 19.5451C26.958 18.9998 27.1666 18.2753 27.1666 17.5C27.1666 16.7247 26.958 16.0002 26.5945 15.4549C26.2333 14.9131 25.6793 14.5 24.9999 14.5C24.3205 14.5 23.7666 14.9131 23.4054 15.4549C23.0419 16.0002 22.8333 16.7247 22.8333 17.5C22.8333 18.2753 23.0419 18.9998 23.4054 19.5451C23.7666 20.0869 24.3205 20.5 24.9999 20.5ZM14.9999 20.5C15.6793 20.5 16.2333 20.0869 16.5945 19.5451C16.958 18.9998 17.1666 18.2753 17.1666 17.5C17.1666 16.7247 16.958 16.0002 16.5945 15.4549C16.2333 14.9131 15.6793 14.5 14.9999 14.5C14.3205 14.5 13.7666 14.9131 13.4054 15.4549C13.0419 16.0002 12.8333 16.7247 12.8333 17.5C12.8333 18.2753 13.0419 18.9998 13.4054 19.5451C13.7666 20.0869 14.3205 20.5 14.9999 20.5Z" fill="#979797" stroke="#8A8A8A"/>
</svg>
