<svg width="434" height="360" viewBox="0 0 434 360" fill="none" xmlns="http://www.w3.org/2000/svg">
<path d="M434 316.363H0V316.604H434V316.363Z" fill="#EBEBEB"/>
<path d="M390.513 325.562H311.612V325.803H390.513V325.562Z" fill="#EBEBEB"/>
<path d="M287.499 322.943H265.894V323.184H287.499V322.943Z" fill="#EBEBEB"/>
<path d="M336.879 334.539H303.383V334.78H336.879V334.539Z" fill="#EBEBEB"/>
<path d="M65.1868 332.915H45.5353V333.157H65.1868V332.915Z" fill="#EBEBEB"/>
<path d="M96.2525 332.915H72.912V333.157H96.2525V332.915Z" fill="#EBEBEB"/>
<path d="M195.43 328.837H154.773V329.079H195.43V328.837Z" fill="#EBEBEB"/>
<path d="M369.942 310.874H386.217V210.361H369.942V310.874Z" fill="#F0F0F0"/>
<path d="M203.824 316.363H383.092V310.865H203.824V316.363Z" fill="#F0F0F0"/>
<path d="M369.942 210.351H200.699V310.864H369.942V210.351Z" fill="#F5F5F5"/>
<path d="M371.634 210.351H388.265V205.558H371.634V210.351Z" fill="#F0F0F0"/>
<path d="M371.634 205.559H198.651V210.351H371.634V205.559Z" fill="#FAFAFA"/>
<path d="M364.1 246.626H206.584V220.42H364.1V246.626ZM207.643 245.437H363.015V221.666H207.643V245.437Z" fill="#E0E0E0"/>
<path d="M364.1 300.805H206.584V253.892H364.1V300.805ZM207.643 299.549H363.015V255.1H207.643V299.549Z" fill="#E0E0E0"/>
<path d="M229.213 224.923L341.428 224.923C342.224 224.923 342.869 224.205 342.869 223.319V222.623C342.869 221.737 342.224 221.019 341.428 221.019L229.213 221.019C228.417 221.019 227.772 221.737 227.772 222.623V223.319C227.772 224.205 228.417 224.923 229.213 224.923Z" fill="#E0E0E0"/>
<path d="M229.213 258.404H341.428C342.224 258.404 342.869 257.686 342.869 256.8V256.105C342.869 255.219 342.224 254.5 341.428 254.5L229.213 254.5C228.417 254.5 227.772 255.219 227.772 256.105V256.8C227.772 257.686 228.417 258.404 229.213 258.404Z" fill="#E0E0E0"/>
<path d="M172.255 316.363H179.016V197.683H172.255V316.363Z" fill="#E6E6E6"/>
<path d="M170.111 316.363H174.807V197.683H170.111V316.363Z" fill="#F0F0F0"/>
<path d="M368.718 155.118H306.751L294.695 202.92H356.661L368.718 155.118Z" fill="#E6E6E6"/>
<path d="M356.661 202.92L356.418 205.558H294.434L294.686 202.92H356.661Z" fill="#E6E6E6"/>
<path d="M366.817 155.118H304.842L292.785 202.92H354.76L366.817 155.118Z" fill="#F0F0F0"/>
<path d="M354.057 199.799L364.031 158.403C364.169 157.814 363.9 157.302 363.449 157.302H306.473C306.245 157.332 306.032 157.441 305.863 157.615C305.695 157.789 305.58 158.017 305.536 158.268L295.571 199.635C295.424 200.224 295.693 200.736 296.144 200.736H353.12C353.345 200.711 353.557 200.607 353.726 200.438C353.894 200.27 354.01 200.046 354.057 199.799Z" fill="white"/>
<path d="M338.607 202.92L338.355 205.558H270.113L270.365 202.92H338.607Z" fill="#F0F0F0"/>
<path d="M217 360C309.948 360 385.297 355.102 385.297 349.061C385.297 343.02 309.948 338.123 217 338.123C124.052 338.123 48.7035 343.02 48.7035 349.061C48.7035 355.102 124.052 360 217 360Z" fill="#F5F5F5"/>
<path d="M182.653 14.4944C186.704 10.4811 191.949 7.85277 198.39 6.60948C204.831 5.36619 211.639 6.15532 218.814 8.97688C225.966 11.7984 232.508 16.894 238.44 24.2635C243.954 31.1177 247.681 38.2973 249.619 45.8021C251.553 52.7421 251.73 60.1412 250.132 67.186C248.612 73.716 245.379 79.5934 240.844 84.0671C237.617 87.4354 233.679 89.8447 229.395 91.0727C225.569 92.1333 221.621 92.5374 217.686 92.2709C213.907 92.0003 207.351 91.282 198.017 90.116C195.832 89.8514 193.635 89.7159 191.437 89.7102C189.932 89.6991 188.431 89.8905 186.967 90.2803C185.806 90.6099 184.677 91.0697 183.599 91.6524C182.558 92.2225 180.796 93.2758 178.296 94.8315C173.157 98.3295 168.69 97.7175 164.894 92.9956C163.951 91.879 163.216 90.5655 162.732 89.1308C162.248 87.6961 162.024 86.1688 162.073 84.6372C162.171 81.5257 163.641 78.5528 166.482 75.7184C172.27 69.5449 180.021 66.1807 188.035 66.3647C192.597 66.5342 197.148 66.9599 201.671 67.6402C206.48 68.2876 210.03 68.6934 212.321 68.8287C214.596 68.9734 216.878 68.762 219.101 68.2006C221.317 67.6539 223.367 66.4713 225.046 64.7703C226.69 63.1822 228.006 61.2178 228.905 59.0115C229.803 56.8052 230.264 54.4089 230.254 51.9863C230.324 46.8328 228.588 42.0432 225.046 37.6176C220.863 32.419 216.606 29.7682 212.278 29.6651C207.95 29.562 202.797 30.947 196.819 33.8201C190.737 36.996 185.891 36.3518 182.28 31.8876C181.252 30.6612 180.466 29.2096 179.971 27.6256C179.477 26.0415 179.284 24.36 179.407 22.6885C179.433 21.1513 179.733 19.6352 180.291 18.2285C180.848 16.8217 181.651 15.5524 182.653 14.4944ZM140.694 118.554C138.426 115.811 137.16 112.223 137.144 108.495C137.092 104.681 138.57 101.27 141.579 98.2618C142.818 96.9868 144.28 96.0116 145.874 95.3979C147.469 94.7841 149.16 94.5452 150.841 94.6962C152.544 94.8109 154.209 95.3063 155.736 96.153C157.263 96.9997 158.621 98.1803 159.729 99.6243C160.869 100.998 161.749 102.612 162.317 104.371C162.885 106.13 163.13 107.999 163.037 109.866C162.944 111.732 162.515 113.559 161.775 115.237C161.035 116.916 160 118.412 158.731 119.636C155.763 122.593 152.58 123.856 149.183 123.424C145.901 123.056 142.868 121.316 140.694 118.554Z" fill="#D08CE6"/>
<g opacity="0.5">
<path d="M260.27 79.2837C261.489 76.0599 263.509 73.2908 266.094 71.3022C269.132 68.893 272.679 67.4015 276.389 66.9732C280.71 66.4555 285.08 67.167 289.087 69.0411C292.873 70.6002 296.292 73.0946 299.087 76.3366C301.509 79.1421 303.19 82.6356 303.948 86.4343C304.646 89.9847 304.374 93.6865 303.166 97.0634C302.347 99.5405 300.98 101.747 299.191 103.48C297.589 105.012 295.786 106.264 293.844 107.19C291.981 108.073 288.685 109.483 283.958 111.422C282.852 111.874 281.771 112.397 280.72 112.988C279.997 113.383 279.32 113.876 278.706 114.457C278.218 114.922 277.776 115.443 277.387 116.012C277.014 116.563 276.397 117.539 275.538 118.911C273.802 121.965 271.531 122.867 268.724 121.617C268.031 121.334 267.395 120.902 266.853 120.345C266.311 119.787 265.873 119.116 265.565 118.37C265.255 117.497 265.112 116.561 265.145 115.623C265.178 114.684 265.386 113.764 265.756 112.92C267.195 108.418 270.179 104.734 274.054 102.678C276.272 101.528 278.54 100.502 280.85 99.6048C283.289 98.6385 285.077 97.8751 286.206 97.334C287.325 96.7933 288.371 96.081 289.313 95.2178C290.256 94.3606 290.983 93.2451 291.422 91.9808C291.867 90.7818 292.073 89.4899 292.027 88.1939C291.98 86.8979 291.682 85.6284 291.153 84.4727C289.992 81.929 287.992 79.9834 285.572 79.0422C282.447 77.67 279.843 77.538 277.76 78.646C275.23 80.1447 273.017 82.2266 271.267 84.7529C269.034 87.903 266.569 88.8693 263.872 87.6518C263.116 87.3369 262.427 86.8505 261.849 86.2233C261.27 85.5962 260.815 84.8421 260.513 84.0089C260.193 83.2786 260.007 82.4847 259.965 81.6735C259.923 80.8623 260.027 80.0499 260.27 79.2837ZM262.639 140.353C260.962 139.645 259.582 138.267 258.768 136.488C258.351 135.552 258.126 134.526 258.108 133.481C258.09 132.437 258.28 131.401 258.664 130.449C258.977 129.504 259.463 128.641 260.093 127.918C260.722 127.194 261.48 126.624 262.318 126.245C263.159 125.846 264.064 125.64 264.979 125.64C265.893 125.64 266.798 125.846 267.639 126.245C268.481 126.598 269.25 127.136 269.902 127.826C270.554 128.516 271.075 129.345 271.433 130.263C271.792 131.181 271.981 132.17 271.99 133.172C271.999 134.173 271.827 135.166 271.484 136.092C271.184 137.084 270.691 137.99 270.04 138.745C269.389 139.5 268.595 140.085 267.717 140.459C266.073 141.139 264.259 141.101 262.639 140.353Z" fill="#D08CE6"/>
</g>
<g opacity="0.1">
<path d="M318.652 73.5925C317.866 72.2173 317.448 70.6223 317.445 68.993C317.416 67.0625 317.841 65.1571 318.678 63.4658C319.643 61.496 321.044 59.8331 322.748 58.6344C324.286 57.4297 326.049 56.6301 327.904 56.2959C329.512 56.0058 331.161 56.2131 332.67 56.895C334.083 57.5321 335.292 58.626 336.142 60.0355C336.779 61.0393 337.179 62.2057 337.305 63.4271C337.404 64.5143 337.357 65.6118 337.166 66.6835C336.975 67.7207 336.587 69.4987 336.003 72.0174C335.871 72.6102 335.767 73.2101 335.69 73.8147C335.589 74.5591 335.643 75.3194 335.847 76.0372C335.942 76.3464 336.116 76.8682 336.376 77.6026C336.534 77.9035 336.638 78.2364 336.68 78.582C336.722 78.9276 336.702 79.279 336.621 79.616C336.541 79.953 336.401 80.2688 336.209 80.5452C336.018 80.8215 335.78 81.053 335.508 81.2262C334.943 81.6677 334.244 81.8415 333.564 81.7093C333.18 81.613 332.819 81.4283 332.504 81.1669C332.188 80.9056 331.925 80.5736 331.732 80.1922C331.121 79.2282 330.69 78.1373 330.465 76.9842C330.285 75.9846 330.265 74.9575 330.404 73.95C330.592 72.6997 330.838 71.4611 331.142 70.2395C331.455 68.935 331.663 67.9784 331.776 67.3406C331.885 66.704 331.917 66.0541 331.871 65.408C331.822 64.7777 331.627 64.1721 331.307 63.6494C331.011 63.1441 330.62 62.716 330.162 62.3941C329.703 62.0723 329.188 61.8643 328.651 61.7845C327.458 61.6035 326.249 61.9505 325.283 62.7507C324.735 63.0896 324.256 63.5514 323.877 64.107C323.497 64.6625 323.225 65.2997 323.078 65.9781C322.927 67.4547 323.061 68.9502 323.469 70.3651C323.964 72.1527 323.643 73.4572 322.523 74.2979C322.215 74.5364 321.867 74.7017 321.5 74.7831C321.132 74.8646 320.754 74.8606 320.388 74.7714C320.042 74.7146 319.71 74.5809 319.412 74.3784C319.114 74.1758 318.855 73.9086 318.652 73.5925ZM340.308 88.7246C339.62 89.2484 338.783 89.472 337.956 89.3526C337.519 89.2835 337.102 89.1061 336.736 88.8334C336.369 88.5608 336.062 88.2 335.838 87.7776C335.595 87.3948 335.427 86.96 335.343 86.5009C335.26 86.0419 335.263 85.5684 335.352 85.1106C335.436 84.6458 335.603 84.2045 335.843 83.8128C336.083 83.4211 336.391 83.087 336.749 82.8302C337.093 82.5635 337.482 82.3772 337.892 82.2825C338.302 82.1879 338.726 82.1868 339.136 82.2794C339.549 82.3641 339.941 82.5426 340.289 82.8036C340.637 83.0646 340.933 83.4026 341.159 83.7965C341.42 84.1874 341.602 84.6375 341.69 85.115C341.779 85.5925 341.772 86.0858 341.671 86.5601C341.476 87.446 340.99 88.2184 340.308 88.7246Z" fill="#D08CE6"/>
</g>
<path d="M161.266 342.665L154.704 340.771L158.618 324.064L165.18 325.958L161.266 342.665Z" fill="#FFC3BD"/>
<path d="M154.634 338.838L161.96 341.418C162.021 341.435 162.078 341.465 162.128 341.507C162.179 341.549 162.221 341.602 162.252 341.662C162.284 341.722 162.304 341.789 162.312 341.859C162.32 341.928 162.316 341.998 162.299 342.066L160.754 348.395C160.645 348.727 160.426 349 160.141 349.156C159.857 349.313 159.529 349.341 159.226 349.235C156.691 348.269 155.52 347.709 152.282 346.568C150.294 345.873 145.503 344.298 142.734 343.331C139.965 342.365 140.998 339.466 142.204 339.65C147.777 340.297 151.015 339.775 153.332 338.877C153.75 338.704 154.208 338.691 154.634 338.838Z" fill="#263238"/>
<path opacity="0.2" d="M165.18 325.967L158.618 324.073L156.605 332.683L163.167 334.577L165.18 325.967Z" fill="black"/>
<path d="M181.716 155.118C181.716 155.118 169.703 218.671 166.508 239.475C163.036 262.26 155.407 327.494 155.407 327.494L166.56 332.007C166.56 332.007 184.016 262.83 186.663 240.924C192.21 219.512 206.263 155.118 206.263 155.118H181.716Z" fill="#D08CE6"/>
<path opacity="0.3" d="M197.14 175.864C193.243 186.281 191.828 205.249 192.505 216.593C195.595 203.201 199.024 187.904 201.68 175.922C200.82 172.627 199.64 169.168 197.14 175.864Z" fill="black"/>
<path d="M166.335 333.475L154.374 329.63L154.825 323.996L169.06 328.451L166.335 333.475Z" fill="#263238"/>
<path d="M151.943 339.244C152.535 339.433 153.143 339.553 153.758 339.602C153.788 339.608 153.82 339.602 153.848 339.587C153.877 339.571 153.899 339.546 153.914 339.515C153.93 339.488 153.939 339.456 153.939 339.423C153.939 339.39 153.93 339.358 153.914 339.331C153.749 339.099 152.317 337.099 151.423 337.157C151.32 337.161 151.22 337.195 151.132 337.254C151.044 337.313 150.97 337.396 150.919 337.495C150.831 337.634 150.777 337.797 150.763 337.967C150.75 338.136 150.776 338.307 150.841 338.461C151.11 338.864 151.502 339.142 151.943 339.244ZM153.419 339.244C152.169 339.08 151.327 338.742 151.119 338.278C151.078 338.178 151.063 338.067 151.076 337.958C151.088 337.849 151.127 337.746 151.188 337.659C151.213 337.61 151.248 337.569 151.29 337.538C151.332 337.508 151.381 337.49 151.431 337.486C151.9 337.466 152.82 338.442 153.419 339.225V339.244Z" fill="#D08CE6"/>
<path d="M153.723 339.602H153.801C153.827 339.597 153.851 339.586 153.872 339.57C153.893 339.553 153.91 339.531 153.922 339.505C153.922 339.418 154.721 337.457 154.27 336.548C154.208 336.432 154.125 336.332 154.026 336.254C153.928 336.176 153.815 336.121 153.697 336.094C153.566 336.052 153.427 336.059 153.3 336.113C153.173 336.167 153.066 336.265 152.994 336.394C152.603 337.109 153.133 338.906 153.653 339.544C153.67 339.571 153.695 339.591 153.723 339.602ZM153.723 336.452C153.783 336.472 153.838 336.505 153.886 336.55C153.934 336.595 153.973 336.65 154.001 336.713C154.158 337.511 154.069 338.345 153.749 339.08C153.341 338.365 153.028 337.031 153.289 336.568C153.289 336.481 153.419 336.384 153.645 336.432L153.723 336.452Z" fill="#D08CE6"/>
<path d="M191.012 100.687C190.431 102.253 189.875 103.644 189.276 105.074C188.677 106.504 188.035 107.906 187.384 109.307C186.064 112.099 184.676 114.853 183.148 117.539C180.108 123.123 176.432 128.245 172.211 132.778L172.055 132.952C171.833 133.174 171.589 133.365 171.326 133.522C170.603 133.956 169.809 134.222 168.991 134.305C168.523 134.342 168.053 134.342 167.585 134.305C166.884 134.254 166.188 134.148 165.502 133.986C164.269 133.696 163.175 133.338 162.099 132.961C159.964 132.208 157.976 131.29 156.023 130.362C154.07 129.434 152.143 128.43 150.251 127.338C148.359 126.246 146.501 125.154 144.661 123.917C144.234 123.627 143.914 123.177 143.759 122.648C143.604 122.119 143.623 121.545 143.813 121.031C144.004 120.516 144.353 120.094 144.798 119.84C145.242 119.586 145.754 119.517 146.241 119.646C150.268 120.728 154.287 121.936 158.245 123.009C160.215 123.559 162.186 124.043 164.078 124.448C164.97 124.649 165.871 124.794 166.778 124.883C167.119 124.905 167.461 124.905 167.802 124.883C167.932 124.883 167.984 124.883 167.949 124.883C167.641 124.893 167.341 124.996 167.081 125.183L166.213 125.927C167.893 123.858 169.45 121.669 170.874 119.375C172.333 117.027 173.713 114.544 175.041 112.051C176.369 109.558 177.645 106.939 178.851 104.321C180.058 101.702 181.256 99.0061 182.323 96.4841L182.375 96.3584C182.888 95.0771 183.836 94.0747 185.012 93.5718C186.188 93.0689 187.496 93.1068 188.647 93.677C189.798 94.2472 190.698 95.3031 191.15 96.6124C191.602 97.9216 191.568 99.377 191.055 100.658L191.012 100.687Z" fill="#FFC3BD"/>
<path d="M189.675 90.4639C184.085 90.6379 180.249 97.3922 176.586 105.809C179.394 111.212 183.417 115.708 188.26 118.853C188.26 118.853 202.947 90.0484 189.675 90.4639Z" fill="#E0E0E0"/>
<path d="M144.383 123.955L139.349 122.525L143.272 116.911C143.272 116.911 147.612 117.674 149.261 121.743L147.473 123.163C147.039 123.534 146.539 123.797 146.006 123.934C145.472 124.071 144.919 124.078 144.383 123.955Z" fill="#FFC3BD"/>
<path d="M138.125 116.785L139.097 115.819C139.495 115.431 140.003 115.212 140.531 115.199C141.06 115.187 141.575 115.382 141.987 115.751L143.272 116.901L139.349 122.515L137.743 119.732C137.477 119.272 137.369 118.721 137.439 118.179C137.51 117.638 137.753 117.143 138.125 116.785Z" fill="#FFC3BD"/>
<path d="M220.003 341.795H213.137L211.497 324.769H218.363L220.003 341.795Z" fill="#FFC3BD"/>
<path d="M212.538 340.945H220.255C220.383 340.937 220.508 340.985 220.604 341.079C220.699 341.173 220.758 341.305 220.767 341.447L221.14 347.979C221.134 348.33 221.003 348.665 220.778 348.91C220.552 349.156 220.249 349.294 219.934 349.293C217.252 349.235 215.967 349.071 212.573 349.071C210.49 349.071 204.761 349.303 201.853 349.303C198.946 349.303 199.05 346.25 200.274 345.979C205.751 344.733 209.414 343.022 211.358 341.399C211.696 341.107 212.111 340.947 212.538 340.945Z" fill="#263238"/>
<path opacity="0.2" d="M218.363 324.769H211.497L212.348 333.553H219.213L218.363 324.769Z" fill="black"/>
<path d="M195.135 155.118C195.135 155.118 196.654 219.009 197.739 240.064C198.954 263.12 209.24 331.427 209.24 331.427H221.826C221.826 331.427 219.066 262.25 216.983 239.629C217.851 214.854 218.424 155.099 218.424 155.099L195.135 155.118Z" fill="#D08CE6"/>
<path d="M222.33 331.427H208.06L207.383 326.315L222.711 326.605L222.33 331.427Z" fill="#263238"/>
<path d="M210.108 342.22C210.725 342.205 211.339 342.118 211.94 341.959C211.969 341.953 211.996 341.937 212.016 341.912C212.036 341.888 212.049 341.857 212.052 341.824C212.061 341.792 212.059 341.757 212.048 341.726C212.037 341.694 212.017 341.668 211.992 341.65C211.775 341.495 209.83 340.065 208.988 340.423C208.894 340.462 208.811 340.526 208.746 340.611C208.68 340.695 208.635 340.797 208.615 340.906C208.561 341.071 208.551 341.251 208.586 341.422C208.622 341.594 208.701 341.75 208.815 341.872C209.195 342.156 209.654 342.28 210.108 342.22ZM211.497 341.718C210.264 341.979 209.362 341.93 209.04 341.592C208.974 341.511 208.929 341.412 208.909 341.305C208.889 341.198 208.896 341.087 208.928 340.983C208.936 340.93 208.956 340.88 208.986 340.838C209.017 340.795 209.056 340.762 209.101 340.742C209.553 340.549 210.698 341.167 211.497 341.718Z" fill="#D08CE6"/>
<path d="M211.896 341.969H211.974C211.997 341.954 212.017 341.933 212.032 341.907C212.047 341.882 212.057 341.854 212.061 341.824C212.061 341.737 212.217 339.621 211.523 338.925C211.434 338.831 211.327 338.76 211.209 338.72C211.091 338.68 210.967 338.671 210.846 338.693C210.712 338.695 210.582 338.747 210.477 338.839C210.372 338.932 210.297 339.061 210.264 339.205C210.108 340.007 211.132 341.544 211.818 341.979L211.896 341.969ZM210.924 338.983C210.988 338.981 211.052 338.994 211.112 339.02C211.172 339.047 211.226 339.087 211.271 339.138C211.651 339.84 211.81 340.663 211.723 341.476C211.124 340.935 210.438 339.766 210.542 339.244C210.542 339.138 210.62 339.022 210.855 338.993L210.924 338.983Z" fill="#D08CE6"/>
<path d="M184.606 95.3824C184.977 94.1314 185.643 93.0144 186.535 92.149C187.427 91.2835 188.512 90.7015 189.675 90.464C191.371 90.0235 193.09 89.7008 194.823 89.4977C200.027 89.1779 205.243 89.1779 210.447 89.4977C213.172 89.633 215.95 89.9905 218.163 90.3384H218.241C218.81 90.412 219.359 90.6137 219.856 90.9313C220.352 91.2488 220.785 91.6755 221.129 92.1854C221.472 92.6952 221.719 93.2776 221.854 93.897C221.988 94.5164 222.009 95.1599 221.913 95.7882C220.18 105.635 219.046 115.601 218.519 125.618C217.981 140.17 218.71 151.591 218.45 155.099H181.716C179.485 119.607 182.367 103.47 184.606 95.3824Z" fill="#E0E0E0"/>
<path d="M212.938 67.8428C213.579 68.3579 214.088 69.0494 214.417 69.8496C214.746 70.6498 214.882 71.5313 214.813 72.4078C214.744 73.2844 214.472 74.1259 214.023 74.8501C213.574 75.5743 212.964 76.1564 212.252 76.5394C213.736 79.274 209.787 84.1054 205.811 81.0712C201.836 78.0371 207.452 65.2628 212.938 67.8428Z" fill="#263238"/>
<path d="M196.498 64.9056C195.952 64.9236 195.412 64.7835 194.93 64.4992C194.448 64.2149 194.04 63.7961 193.747 63.2838C193.454 62.7714 193.285 62.1831 193.258 61.5764C193.23 60.9698 193.345 60.3655 193.59 59.8229C191.741 59.0209 192.071 54.5277 195.404 54.3344C198.737 54.1412 200.456 63.775 196.498 64.9056Z" fill="#263238"/>
<path d="M195.413 93.295C195.164 93.0412 194.979 92.7198 194.876 92.3623C194.773 92.0049 194.755 91.6238 194.824 91.2563C194.894 90.8889 195.047 90.5478 195.271 90.2665C195.494 89.9853 195.779 89.7735 196.099 89.6521C199.449 88.28 200.057 85.5744 199.788 82.6272C199.711 81.7984 199.589 80.9756 199.423 80.1632L205.108 75.1095L209.292 71.3989C208.251 76.2304 207.087 84.6467 209.292 88.908C209.539 89.3539 209.635 89.8836 209.562 90.4011C209.488 90.9186 209.251 91.3899 208.893 91.7296C207.452 93.15 204.501 94.986 199.64 94.6961C197.409 94.5705 196.168 94.0004 195.413 93.295Z" fill="#FFC3BD"/>
<path d="M182.723 95.5559C183.137 94.1646 183.866 92.9158 184.841 91.9306C185.816 90.9454 187.003 90.257 188.287 89.9321C189.934 89.6408 191.594 89.4473 193.26 89.3523C193.434 89.3245 193.612 89.3453 193.776 89.4129C193.941 89.4804 194.088 89.5926 194.205 89.7392C194.321 89.8859 194.403 90.0625 194.442 90.253C194.482 90.4435 194.478 90.6421 194.432 90.8307C191.524 102.851 187.375 126.902 188.66 156.693C188.666 156.878 188.638 157.063 188.577 157.236C188.517 157.409 188.425 157.566 188.308 157.698C188.191 157.83 188.051 157.934 187.897 158.004C187.742 158.074 187.577 158.108 187.41 158.104H180.119C179.802 158.11 179.496 157.981 179.262 157.744C179.028 157.507 178.884 157.179 178.86 156.828C176.664 120.428 180.544 102.291 182.723 95.5559Z" fill="#263238"/>
<path d="M217.963 89.6135C215.629 89.2413 213.28 89.0026 210.924 88.8984C210.498 88.8638 210.074 88.9981 209.728 89.2774C209.381 89.5567 209.135 89.9632 209.032 90.4251C206.332 103.663 203.928 133.077 203.824 156.741C203.827 156.922 203.862 157.099 203.927 157.264C203.993 157.429 204.086 157.579 204.203 157.703C204.32 157.828 204.458 157.926 204.609 157.991C204.759 158.057 204.92 158.088 205.082 158.085H218.102C218.425 158.092 218.737 157.959 218.973 157.714C219.208 157.468 219.347 157.129 219.361 156.77C219.448 152.007 218.857 140.846 219.361 126.989C219.842 117.115 220.956 107.292 222.694 97.595C223.145 94.8797 220.541 90.0193 217.963 89.6135Z" fill="#263238"/>
<path d="M222.538 93.817C225.324 98.4938 227.859 103.18 230.254 108.099C231.435 110.563 232.598 113.065 233.648 115.694C234.169 117.008 234.681 118.351 235.159 119.771C235.685 121.308 236.091 122.892 236.374 124.506C236.588 125.683 236.635 126.889 236.513 128.082C236.371 129.047 236.147 129.995 235.844 130.913C235.349 132.41 234.742 133.858 234.03 135.242C232.753 137.752 231.329 140.166 229.768 142.47C226.766 146.93 223.482 151.147 219.943 155.089C219.534 155.546 218.988 155.819 218.41 155.857C217.832 155.895 217.262 155.695 216.808 155.295C216.353 154.896 216.047 154.324 215.946 153.689C215.846 153.054 215.958 152.401 216.262 151.852V151.794C218.788 147.262 221.34 142.643 223.649 138.063C224.795 135.783 225.888 133.464 226.765 131.222C227.642 128.98 228.284 126.526 227.833 126.458C227.556 125.43 227.219 124.423 226.826 123.443C226.392 122.342 225.897 121.202 225.376 120.071C224.317 117.8 223.18 115.491 221.991 113.22C219.613 108.659 217.078 104.06 214.57 99.605V99.5471C213.887 98.3708 213.652 96.9408 213.917 95.5717C214.181 94.2026 214.923 93.0066 215.98 92.2468C217.037 91.4869 218.321 91.2255 219.551 91.5199C220.781 91.8144 221.855 92.6407 222.538 93.817Z" fill="#FFC3BD"/>
<path d="M217.139 89.4877C222.729 89.3718 225.689 94.638 229.352 103.016C225.203 111.567 217.286 115.268 217.286 115.268C217.286 115.268 206.15 89.7003 217.139 89.4877Z" fill="#E0E0E0"/>
<path d="M214.274 151.601L211.054 152.741L217.017 157.785C217.017 157.785 221.896 154.963 220.368 152.403L219.378 151.91C217.768 151.119 215.953 151.009 214.274 151.601Z" fill="#FFC3BD"/>
<path d="M209.249 157.167L212.868 161.216C212.985 161.343 213.125 161.441 213.278 161.505C213.431 161.569 213.594 161.597 213.757 161.587C213.92 161.577 214.08 161.529 214.226 161.447C214.372 161.365 214.501 161.25 214.604 161.109L217.009 157.785L211.046 152.741L209.188 155.572C209.017 155.798 208.928 156.087 208.939 156.383C208.95 156.678 209.061 156.958 209.249 157.167Z" fill="#FFC3BD"/>
<path opacity="0.2" d="M199.423 80.2016C199.589 81.0141 199.711 81.8369 199.788 82.6657C201.94 83.2744 204.996 80.5302 205.282 78.2014C205.319 77.1796 205.261 76.1564 205.108 75.1479L199.423 80.2016Z" fill="black"/>
<path d="M212.86 64.5386C211.393 71.6698 210.872 75.9214 206.931 79.1005C205.642 80.1501 204.126 80.8006 202.538 80.9858C200.949 81.1709 199.345 80.884 197.889 80.1543C196.432 79.4247 195.176 78.2783 194.247 76.832C193.318 75.3857 192.75 73.6912 192.6 71.921C192.097 65.2343 194.58 54.6921 201.593 52.8175C208.606 50.9429 214.327 57.3977 212.86 64.5386Z" fill="#FFC3BD"/>
<path d="M209.891 70.7803C208.034 70.8866 206.054 63.5912 210.151 60.0739C209.5 60.4701 207.721 59.7453 208.034 58.3829C206.827 58.9433 201.55 58.7018 202.826 56.315C200.143 57.0881 194.293 55.7932 193.668 52.9427C193.043 50.0921 196.064 49.9955 196.533 50.3724C195.204 48.3045 195.231 45.2704 198.755 44.1688C202.279 43.0672 207.591 48.7393 207.591 48.7393C207.035 47.2416 208.988 46.0337 211.011 47.3189C213.033 48.6041 213.979 52.2566 213.979 52.2566C213.979 51.155 218.701 52.6335 216.462 57.2523C218.779 58.2186 219.838 59.5907 219.691 61.9775C219.543 64.3642 218.076 64.4995 218.076 64.4995C218.387 65.3588 218.43 66.3091 218.199 67.1988C217.967 68.0884 217.475 68.8663 216.8 69.4082C214.396 71.563 212.295 69.0314 209.891 70.7803Z" fill="#263238"/>
<path d="M213.571 71.3312C212.755 72.6611 211.549 73.6344 210.16 74.0851C208.372 74.6166 207.764 72.8386 208.494 70.9833C209.153 69.3117 210.872 67.0119 212.556 67.3018C214.24 67.5917 214.578 69.6692 213.571 71.3312Z" fill="#FFC3BD"/>
<path d="M202.244 64.2484C202.157 64.8282 201.793 65.263 201.437 65.2147C201.081 65.1664 200.855 64.6446 200.942 64.0552C201.029 63.4657 201.393 63.0889 201.749 63.0889C202.105 63.0889 202.287 63.659 202.244 64.2484Z" fill="#263238"/>
<path d="M195.89 62.9633C195.803 63.5527 195.448 63.9875 195.092 63.9295C194.736 63.8716 194.51 63.3594 194.597 62.77C194.684 62.1806 195.04 61.8037 195.395 61.8037C195.751 61.8037 195.977 62.3835 195.89 62.9633Z" fill="#263238"/>
<path d="M198.399 64.2773C197.474 65.9778 196.344 67.5287 195.04 68.8865C195.377 69.2399 195.779 69.5089 196.217 69.6755C196.656 69.8421 197.122 69.9026 197.583 69.8528L198.399 64.2773Z" fill="#ED847E"/>
<path d="M198.711 72.7326C199.343 72.812 199.982 72.7503 200.591 72.5512C201.201 72.3521 201.769 72.0195 202.261 71.573C202.29 71.539 202.306 71.4941 202.306 71.4474C202.306 71.4007 202.29 71.3558 202.261 71.3218C202.23 71.2918 202.19 71.2754 202.149 71.2754C202.107 71.2754 202.067 71.2918 202.036 71.3218C201.494 71.8003 200.862 72.1359 200.187 72.3033C199.512 72.4707 198.811 72.4654 198.138 72.2881C198.118 72.2824 198.096 72.2814 198.076 72.2852C198.055 72.289 198.035 72.2975 198.017 72.3101C197.999 72.3228 197.984 72.3393 197.972 72.3588C197.96 72.3783 197.951 72.4002 197.947 72.4233C197.942 72.4456 197.942 72.4689 197.945 72.4915C197.948 72.5142 197.956 72.5358 197.968 72.5549C197.979 72.574 197.994 72.5902 198.011 72.6025C198.029 72.6148 198.048 72.6229 198.069 72.6263C198.28 72.6792 198.495 72.7147 198.711 72.7326Z" fill="#263238"/>
<path d="M202.504 60.2284C202.452 60.244 202.404 60.2739 202.365 60.3154C202.335 60.347 202.311 60.3852 202.295 60.4276C202.278 60.4699 202.27 60.5156 202.27 60.5618C202.27 60.6079 202.278 60.6536 202.295 60.696C202.311 60.7384 202.335 60.7766 202.365 60.8082C202.703 61.2289 203.128 61.5524 203.602 61.7509C204.077 61.9495 204.588 62.0172 205.091 61.9484C205.133 61.9438 205.173 61.9296 205.21 61.9068C205.246 61.884 205.278 61.853 205.303 61.8158C205.329 61.7786 205.347 61.736 205.356 61.6906C205.366 61.6453 205.367 61.5981 205.36 61.5522C205.353 61.5059 205.337 61.4616 205.315 61.4219C205.292 61.3822 205.262 61.3479 205.228 61.321C205.193 61.294 205.154 61.275 205.112 61.2649C205.071 61.2549 205.028 61.254 204.987 61.2623C204.589 61.3014 204.188 61.2341 203.818 61.0661C203.448 60.898 203.12 60.634 202.86 60.2961C202.812 60.2495 202.754 60.2186 202.691 60.2067C202.628 60.1948 202.564 60.2023 202.504 60.2284Z" fill="#263238"/>
<path d="M194.093 58.4794C194.141 58.5032 194.193 58.5154 194.245 58.5154C194.298 58.5154 194.349 58.5032 194.397 58.4794C194.768 58.2737 195.174 58.1611 195.588 58.1494C196.002 58.1377 196.413 58.2273 196.793 58.4118C196.867 58.4585 196.954 58.4715 197.037 58.4481C197.119 58.4247 197.191 58.3667 197.236 58.2862C197.273 58.2024 197.281 58.1056 197.257 58.0158C197.233 57.926 197.178 57.8498 197.105 57.803C196.637 57.5528 196.124 57.4229 195.604 57.4229C195.084 57.4229 194.571 57.5528 194.102 57.803C194.064 57.8214 194.03 57.8485 194.002 57.8825C193.974 57.9165 193.953 57.9567 193.94 58.0005C193.927 58.0442 193.922 58.0906 193.926 58.1365C193.93 58.1824 193.943 58.2268 193.963 58.2669C193.983 58.3525 194.029 58.4278 194.093 58.4794Z" fill="#263238"/>
</svg>
