<svg width="36" height="36" viewBox="0 0 36 36" fill="none" xmlns="http://www.w3.org/2000/svg">
<g id="Outline / Settings, Fine Tuning / Tuning 2">
<g id="Vector">
<path fill-rule="evenodd" clip-rule="evenodd" d="M24.9767 12.4185C24.9767 14.7304 23.1026 16.6045 20.7907 16.6045C18.4788 16.6045 16.6047 14.7304 16.6047 12.4185C16.6047 10.1066 18.4788 8.23242 20.7907 8.23242C23.1026 8.23242 24.9767 10.1066 24.9767 12.4185ZM20.7907 14.9301C22.1778 14.9301 23.3023 13.8056 23.3023 12.4185C23.3023 11.0313 22.1778 9.90684 20.7907 9.90684C19.4036 9.90684 18.2791 11.0313 18.2791 12.4185C18.2791 13.8056 19.4036 14.9301 20.7907 14.9301Z" fill="white"/>
<path fill-rule="evenodd" clip-rule="evenodd" d="M11.0233 23.5813C11.0233 25.8931 12.8974 27.7673 15.2093 27.7673C17.5212 27.7673 19.3954 25.8931 19.3954 23.5813C19.3954 21.2694 17.5212 19.3952 15.2093 19.3952C12.8974 19.3952 11.0233 21.2694 11.0233 23.5813ZM15.2093 26.0929C13.8222 26.0929 12.6977 24.9684 12.6977 23.5813C12.6977 22.1941 13.8222 21.0696 15.2093 21.0696C16.5964 21.0696 17.7209 22.1941 17.7209 23.5813C17.7209 24.9684 16.5964 26.0929 15.2093 26.0929Z" fill="white"/>
<path d="M20.5116 23.535C20.5116 23.0726 20.8865 22.6977 21.3488 22.6977H29.1628C29.6252 22.6977 30 23.0726 30 23.535C30 23.9973 29.6252 24.3722 29.1628 24.3722H21.3488C20.8865 24.3722 20.5116 23.9973 20.5116 23.535Z" fill="white"/>
<path d="M14.6512 11.535C15.1135 11.535 15.4884 11.9098 15.4884 12.3722C15.4884 12.8345 15.1135 13.2094 14.6512 13.2094L6.83721 13.2094C6.37483 13.2094 6 12.8345 6 12.3722C6 11.9098 6.37483 11.535 6.83721 11.535L14.6512 11.535Z" fill="white"/>
<path d="M6 23.535C6 23.0726 6.37483 22.6977 6.83721 22.6977H9.06977C9.53215 22.6977 9.90698 23.0726 9.90698 23.535C9.90698 23.9973 9.53215 24.3722 9.06977 24.3722H6.83721C6.37483 24.3722 6 23.9973 6 23.535Z" fill="white"/>
<path d="M29.1628 11.535C29.6252 11.535 30 11.9098 30 12.3722C30 12.8345 29.6252 13.2094 29.1628 13.2094H26.9302C26.4679 13.2094 26.093 12.8345 26.093 12.3722C26.093 11.9098 26.4679 11.535 26.9302 11.535H29.1628Z" fill="white"/>
</g>
</g>
</svg>
