<svg width="57" height="57" viewBox="0 0 57 57" fill="none" xmlns="http://www.w3.org/2000/svg">
<circle cx="28.5" cy="28.5" r="28.5" fill="#E2E2E2"/>
<path d="M30.3666 11C23.1058 11 16.8702 15.3551 14.1692 21.5789H19.9236V21.7384C19.9236 23.8639 18.1885 25.586 16.0469 25.586H12.9807H3V25.7455C3 27.871 4.73507 29.593 6.87661 29.593H12.7693H19.9236V29.6152H21.1688H21.6578V29.593V26.1984C21.6578 25.992 21.6672 25.7881 21.6878 25.5851C21.7463 24.9446 21.9027 24.3296 22.1562 23.7402C22.4896 22.9658 22.9477 22.2894 23.532 21.7077C24.1181 21.1277 24.7996 20.6731 25.5799 20.3421C26.3602 20.0112 27.1973 19.8457 28.0919 19.8457H31.843V23.8417H28.0919C27.4946 23.8417 27.0357 24.0703 26.716 24.5258C26.3937 24.9812 26.233 25.6073 26.233 26.4039V29.6033H30.7851V29.6144H31.843V25.9416H32.9009V25.9323H37.4504V19.8466H42.0274V25.9425H44.5058V29.7346H42.0274V33.1497C42.0274 34.0155 41.8607 34.8351 41.5272 35.6079C41.1955 36.3824 40.7375 37.0604 40.1514 37.6404C39.567 38.2221 38.8838 38.6767 38.1035 39.0077C37.3249 39.3369 36.4862 39.5015 35.5933 39.5015H31.8421V35.5055H35.5933C36.1888 35.5055 36.6469 35.2787 36.9691 34.8241C37.2914 34.3669 37.4504 33.7425 37.4504 32.9459V29.7466H32.9V29.7355H31.8421V33.4065H30.7843V33.4159H26.2322V39.5024H21.6569V37.5875V33.6009V33.5805H21.1679H19.9227H13.4895H7.73598V33.6009V33.74C7.73598 35.8655 9.47105 37.5875 11.6126 37.5875H15.2967H19.3418L15.8802 38.4754C19.0625 43.0233 24.3656 46 30.3666 46C40.1041 46 48 38.1658 48 28.5004C48 18.8342 40.1041 11 30.3666 11Z" fill="url(#paint0_linear_113_1700)"/>
<defs>
<linearGradient id="paint0_linear_113_1700" x1="38.5546" y1="52.9375" x2="26.1367" y2="26.5241" gradientUnits="userSpaceOnUse">
<stop offset="0.047" stop-color="#7200FF"/>
<stop offset="1" stop-color="#FC57FF"/>
</linearGradient>
</defs>
</svg>
