<svg width="292" height="287" viewBox="0 0 292 287" fill="none" xmlns="http://www.w3.org/2000/svg">
<path d="M146 286.519C226.526 286.519 291.805 282.708 291.805 278.007C291.805 273.305 226.526 269.494 146 269.494C65.4741 269.494 0.194824 273.305 0.194824 278.007C0.194824 282.708 65.4741 286.519 146 286.519Z" fill="#F5F5F5"/>
<path d="M273.69 74.6509H199.919C196.027 74.6509 192.873 77.8056 192.873 81.6971V101.76C192.873 105.652 196.027 108.807 199.919 108.807H273.69C277.582 108.807 280.736 105.652 280.736 101.76V81.6971C280.736 77.8056 277.582 74.6509 273.69 74.6509Z" fill="#D089DB"/>
<path d="M259.056 80.4116H201.43C200.749 80.4116 200.197 80.9638 200.197 81.6449V82.9985C200.197 83.6796 200.749 84.2318 201.43 84.2318H259.056C259.737 84.2318 260.289 83.6796 260.289 82.9985V81.6449C260.289 80.9638 259.737 80.4116 259.056 80.4116Z" fill="#D089DB"/>
<path d="M240.805 89.6157H201.43C200.749 89.6157 200.197 90.1679 200.197 90.849V92.2026C200.197 92.8837 200.749 93.4359 201.43 93.4359H240.805C241.486 93.4359 242.038 92.8837 242.038 92.2026V90.849C242.038 90.1679 241.486 89.6157 240.805 89.6157Z" fill="#D089DB"/>
<path d="M230.247 98.8203H201.43C200.749 98.8203 200.197 99.3725 200.197 100.054V101.407C200.197 102.088 200.749 102.64 201.43 102.64H230.247C230.928 102.64 231.48 102.088 231.48 101.407V100.054C231.48 99.3725 230.928 98.8203 230.247 98.8203Z" fill="#D089DB"/>
<path d="M265.959 98.8203H237.142C236.461 98.8203 235.909 99.3725 235.909 100.054V101.407C235.909 102.088 236.461 102.64 237.142 102.64H265.959C266.64 102.64 267.192 102.088 267.192 101.407V100.054C267.192 99.3725 266.64 98.8203 265.959 98.8203Z" fill="#D089DB"/>
<g opacity="0.5">
<path d="M259.056 80.4116H201.43C200.749 80.4116 200.197 80.9638 200.197 81.6449V82.9985C200.197 83.6796 200.749 84.2318 201.43 84.2318H259.056C259.737 84.2318 260.289 83.6796 260.289 82.9985V81.6449C260.289 80.9638 259.737 80.4116 259.056 80.4116Z" fill="white"/>
<path d="M240.805 89.6157H201.43C200.749 89.6157 200.197 90.1679 200.197 90.849V92.2026C200.197 92.8837 200.749 93.4359 201.43 93.4359H240.805C241.486 93.4359 242.038 92.8837 242.038 92.2026V90.849C242.038 90.1679 241.486 89.6157 240.805 89.6157Z" fill="white"/>
<path d="M230.247 98.8203H201.43C200.749 98.8203 200.197 99.3725 200.197 100.054V101.407C200.197 102.088 200.749 102.64 201.43 102.64H230.247C230.928 102.64 231.48 102.088 231.48 101.407V100.054C231.48 99.3725 230.928 98.8203 230.247 98.8203Z" fill="white"/>
<path d="M265.959 98.8203H237.142C236.461 98.8203 235.909 99.3725 235.909 100.054V101.407C235.909 102.088 236.461 102.64 237.142 102.64H265.959C266.64 102.64 267.192 102.088 267.192 101.407V100.054C267.192 99.3725 266.64 98.8203 265.959 98.8203Z" fill="white"/>
</g>
<path d="M214.597 66.6875H130.862C125.156 66.6875 120.53 71.3135 120.53 77.02V106.438C120.53 112.145 125.156 116.771 130.862 116.771H214.597C220.304 116.771 224.93 112.145 224.93 106.438V77.02C224.93 71.3135 220.304 66.6875 214.597 66.6875Z" fill="#D089DB"/>
<path d="M217.561 75.1323H133.081C132.08 75.1323 131.269 75.9437 131.269 76.9446V78.9224C131.269 79.9233 132.08 80.7347 133.081 80.7347H217.561C218.561 80.7347 219.373 79.9233 219.373 78.9224V76.9446C219.373 75.9437 218.561 75.1323 217.561 75.1323Z" fill="#D089DB"/>
<path d="M190.797 88.6309H133.081C132.08 88.6309 131.269 89.4423 131.269 90.4432V92.4209C131.269 93.4219 132.08 94.2333 133.081 94.2333H190.797C191.798 94.2333 192.609 93.4219 192.609 92.4209V90.4432C192.609 89.4423 191.798 88.6309 190.797 88.6309Z" fill="#D089DB"/>
<path d="M175.321 102.129H133.081C132.08 102.129 131.269 102.94 131.269 103.941V105.919C131.269 106.92 132.08 107.731 133.081 107.731H175.321C176.322 107.731 177.133 106.92 177.133 105.919V103.941C177.133 102.94 176.322 102.129 175.321 102.129Z" fill="#D089DB"/>
<path d="M220.636 102.129H185.443C184.442 102.129 183.63 102.94 183.63 103.941V105.919C183.63 106.92 184.442 107.731 185.443 107.731H220.636C221.637 107.731 222.449 106.92 222.449 105.919V103.941C222.449 102.94 221.637 102.129 220.636 102.129Z" fill="#D089DB"/>
<g opacity="0.5">
<path d="M217.561 75.1323H133.081C132.08 75.1323 131.269 75.9437 131.269 76.9446V78.9224C131.269 79.9233 132.08 80.7347 133.081 80.7347H217.561C218.561 80.7347 219.373 79.9233 219.373 78.9224V76.9446C219.373 75.9437 218.561 75.1323 217.561 75.1323Z" fill="white"/>
<path d="M190.797 88.6309H133.081C132.08 88.6309 131.269 89.4423 131.269 90.4432V92.4209C131.269 93.4219 132.08 94.2333 133.081 94.2333H190.797C191.798 94.2333 192.609 93.4219 192.609 92.4209V90.4432C192.609 89.4423 191.798 88.6309 190.797 88.6309Z" fill="white"/>
<path d="M175.321 102.129H133.081C132.08 102.129 131.269 102.94 131.269 103.941V105.919C131.269 106.92 132.08 107.731 133.081 107.731H175.321C176.322 107.731 177.133 106.92 177.133 105.919V103.941C177.133 102.94 176.322 102.129 175.321 102.129Z" fill="white"/>
<path d="M220.636 102.129H185.443C184.442 102.129 183.63 102.94 183.63 103.941V105.919C183.63 106.92 184.442 107.731 185.443 107.731H220.636C221.637 107.731 222.449 106.92 222.449 105.919V103.941C222.449 102.94 221.637 102.129 220.636 102.129Z" fill="white"/>
</g>
<path d="M162.537 125.847H122.207C119.541 125.847 117.379 128.009 117.379 130.675V191.091C117.379 193.757 119.541 195.919 122.207 195.919H162.537C165.203 195.919 167.365 193.757 167.365 191.091V130.675C167.365 128.009 165.203 125.847 162.537 125.847Z" fill="#D089DB"/>
<path opacity="0.4" d="M162.537 125.847H122.207C119.541 125.847 117.379 128.009 117.379 130.675V191.091C117.379 193.757 119.541 195.919 122.207 195.919H162.537C165.203 195.919 167.365 193.757 167.365 191.091V130.675C167.365 128.009 165.203 125.847 162.537 125.847Z" fill="black"/>
<path d="M160.686 133.157H124.049C123.559 133.157 123.162 133.554 123.162 134.044V135.375C123.162 135.865 123.559 136.263 124.049 136.263H160.686C161.176 136.263 161.574 135.865 161.574 135.375V134.044C161.574 133.554 161.176 133.157 160.686 133.157Z" fill="#FAFAFA"/>
<path d="M149.023 140.631H124.049C123.559 140.631 123.162 141.029 123.162 141.519V142.85C123.162 143.34 123.559 143.737 124.049 143.737H149.023C149.513 143.737 149.91 143.34 149.91 142.85V141.519C149.91 141.029 149.513 140.631 149.023 140.631Z" fill="#FAFAFA"/>
<path d="M160.686 148.114H124.049C123.559 148.114 123.162 148.511 123.162 149.001V150.332C123.162 150.822 123.559 151.22 124.049 151.22H160.686C161.176 151.22 161.574 150.822 161.574 150.332V149.001C161.574 148.511 161.176 148.114 160.686 148.114Z" fill="#FAFAFA"/>
<path d="M137.668 155.589H124.049C123.559 155.589 123.162 155.986 123.162 156.476V157.807C123.162 158.297 123.559 158.695 124.049 158.695H137.668C138.158 158.695 138.555 158.297 138.555 157.807V156.476C138.555 155.986 138.158 155.589 137.668 155.589Z" fill="#FAFAFA"/>
<path d="M156.724 155.589H143.105C142.615 155.589 142.218 155.986 142.218 156.476V157.807C142.218 158.297 142.615 158.695 143.105 158.695H156.724C157.214 158.695 157.611 158.297 157.611 157.807V156.476C157.611 155.986 157.214 155.589 156.724 155.589Z" fill="#FAFAFA"/>
<path d="M160.686 163.071H124.049C123.559 163.071 123.162 163.469 123.162 163.959V165.29C123.162 165.78 123.559 166.177 124.049 166.177H160.686C161.176 166.177 161.574 165.78 161.574 165.29V163.959C161.574 163.469 161.176 163.071 160.686 163.071Z" fill="#FAFAFA"/>
<path d="M160.686 170.546H124.049C123.559 170.546 123.162 170.943 123.162 171.433V172.764C123.162 173.254 123.559 173.652 124.049 173.652H160.686C161.176 173.652 161.574 173.254 161.574 172.764V171.433C161.574 170.943 161.176 170.546 160.686 170.546Z" fill="#FAFAFA"/>
<path d="M154.189 178.028H124.049C123.559 178.028 123.162 178.426 123.162 178.916V180.247C123.162 180.737 123.559 181.134 124.049 181.134H154.189C154.679 181.134 155.077 180.737 155.077 180.247V178.916C155.077 178.426 154.679 178.028 154.189 178.028Z" fill="#FAFAFA"/>
<path d="M138.111 185.503H124.049C123.559 185.503 123.162 185.901 123.162 186.391V187.722C123.162 188.212 123.559 188.609 124.049 188.609H138.111C138.601 188.609 138.999 188.212 138.999 187.722V186.391C138.999 185.901 138.601 185.503 138.111 185.503Z" fill="#FAFAFA"/>
<path d="M173.448 125.418H117.507L142.24 145.098L180.163 159.386V132.119C180.159 130.34 179.45 128.636 178.191 127.38C176.932 126.124 175.227 125.418 173.448 125.418Z" fill="#D089DB"/>
<path opacity="0.4" d="M173.448 125.418H117.507L142.24 145.098L180.163 159.386V132.119C180.159 130.34 179.45 128.636 178.191 127.38C176.932 126.124 175.227 125.418 173.448 125.418Z" fill="black"/>
<path d="M171.004 135.556H130.072C129.458 135.556 128.959 136.054 128.959 136.669V138.744C128.959 139.359 129.458 139.857 130.072 139.857H171.004C171.618 139.857 172.117 139.359 172.117 138.744V136.669C172.117 136.054 171.618 135.556 171.004 135.556Z" fill="#FAFAFA"/>
<path d="M270.193 178.69V139.345C270.193 136.33 267.749 133.886 264.733 133.886H196.414C193.399 133.886 190.955 136.33 190.955 139.345V178.69C190.955 181.705 193.399 184.149 196.414 184.149H264.733C267.749 184.149 270.193 181.705 270.193 178.69Z" fill="#D089DB"/>
<path d="M282.668 166.222V126.877C282.668 123.862 280.224 121.418 277.209 121.418H208.89C205.875 121.418 203.43 123.862 203.43 126.877V166.222C203.43 169.237 205.875 171.682 208.89 171.682H277.209C280.224 171.682 282.668 169.237 282.668 166.222Z" fill="#D089DB"/>
<path opacity="0.5" d="M282.668 166.222V126.877C282.668 123.862 280.224 121.418 277.209 121.418H208.89C205.875 121.418 203.43 123.862 203.43 126.877V166.222C203.43 169.237 205.875 171.682 208.89 171.682H277.209C280.224 171.682 282.668 169.237 282.668 166.222Z" fill="white"/>
<path d="M275.735 152.739V128.517C275.735 127.175 274.648 126.088 273.306 126.088H250.98C249.638 126.088 248.551 127.175 248.551 128.517V152.739C248.551 154.08 249.638 155.168 250.98 155.168H273.306C274.648 155.168 275.735 154.08 275.735 152.739Z" fill="#D089DB"/>
<path opacity="0.7" d="M275.735 152.739V128.517C275.735 127.175 274.648 126.088 273.306 126.088H250.98C249.638 126.088 248.551 127.175 248.551 128.517V152.739C248.551 154.08 249.638 155.168 250.98 155.168H273.306C274.648 155.168 275.735 154.08 275.735 152.739Z" fill="white"/>
<path d="M244.294 164.455V145.896C244.294 144.866 243.459 144.031 242.429 144.031H225.321C224.291 144.031 223.456 144.866 223.456 145.896V164.455C223.456 165.485 224.291 166.32 225.321 166.32H242.429C243.459 166.32 244.294 165.485 244.294 164.455Z" fill="#D089DB"/>
<path opacity="0.3" d="M244.294 164.455V145.896C244.294 144.866 243.459 144.031 242.429 144.031H225.321C224.291 144.031 223.456 144.866 223.456 145.896V164.455C223.456 165.485 224.291 166.32 225.321 166.32H242.429C243.459 166.32 244.294 165.485 244.294 164.455Z" fill="white"/>
<path d="M233.872 46.7824V36.7583C233.872 33.6932 231.387 31.2085 228.322 31.2085L44.7361 31.2085C41.671 31.2085 39.1863 33.6932 39.1863 36.7583V46.7824C39.1863 49.8475 41.671 52.3322 44.7361 52.3322L228.322 52.3322C231.387 52.3322 233.872 49.8475 233.872 46.7824Z" fill="#D089DB"/>
<path opacity="0.5" d="M233.872 46.7824V36.7583C233.872 33.6932 231.387 31.2085 228.322 31.2085L44.7361 31.2085C41.671 31.2085 39.1863 33.6932 39.1863 36.7583V46.7824C39.1863 49.8475 41.671 52.3322 44.7361 52.3322L228.322 52.3322C231.387 52.3322 233.872 49.8475 233.872 46.7824Z" fill="white"/>
<path d="M199.136 55.8661V48.5942H146.308V55.8661H199.136Z" fill="#D089DB"/>
<path opacity="0.5" d="M199.136 55.8661V48.5942H146.308V55.8661H199.136Z" fill="white"/>
<path d="M252.814 15.5739V5.54976C252.814 2.48472 250.329 0 247.264 0L63.6785 0C60.6134 0 58.1287 2.48472 58.1287 5.54976V15.5739C58.1287 18.639 60.6134 21.1237 63.6785 21.1237L247.264 21.1237C250.329 21.1237 252.814 18.639 252.814 15.5739Z" fill="#D089DB"/>
<path d="M56.0308 111.078C55.369 112.582 54.6396 114.206 54.0004 115.793C53.3612 117.38 52.6994 119.012 52.1204 120.636C50.9323 123.803 49.9797 127.053 49.2703 130.359L49.0522 131.563L48.977 132.014C48.977 132.142 48.977 132.307 48.9319 132.458C48.9033 133.19 48.9184 133.923 48.977 134.653C49.1199 136.24 49.3756 137.94 49.729 139.639C50.3607 143.046 51.1653 146.558 51.985 150.017L48.1273 151.521C46.329 148.243 44.7975 144.825 43.5476 141.301C42.8891 139.467 42.3564 137.59 41.9533 135.684C41.7275 134.629 41.5867 133.557 41.5322 132.48C41.5322 132.179 41.5322 131.894 41.5322 131.57C41.5322 131.247 41.5322 130.886 41.5849 130.675L41.7353 129.171C41.96 127.234 42.304 125.313 42.7655 123.418C43.1866 121.538 43.7281 119.711 44.2695 117.906C44.8109 116.102 45.4877 114.327 46.2021 112.582C46.5556 111.71 46.9541 110.845 47.3001 109.98C47.646 109.115 48.0521 108.288 48.5333 107.363L56.0308 111.078Z" fill="#E4897B"/>
<path d="M51.7818 149.001L54.7146 151.866L48.3151 154.874C48.3151 154.874 46.766 152.159 47.8413 149.708L51.7818 149.001Z" fill="#E4897B"/>
<path d="M57.0835 156.131L51.6767 158.341L48.3228 154.845L54.7148 151.867L57.0835 156.131Z" fill="#E4897B"/>
<path opacity="0.4" d="M166.612 153.047C155.972 151.852 145.925 147.53 137.741 140.626C129.558 133.722 123.604 124.547 120.634 114.26C117.665 103.973 117.811 93.0369 121.056 82.8334C124.3 72.6299 130.497 63.6175 138.863 56.9354C147.229 50.2534 157.389 46.2017 168.057 45.2927C178.725 44.3837 189.424 46.658 198.799 51.8283C208.175 56.9986 215.808 64.8327 220.732 74.3401C225.656 83.8475 227.651 94.6015 226.464 105.242C225.676 112.312 223.502 119.158 220.067 125.387C216.632 131.616 212.003 137.107 206.444 141.547C200.886 145.987 194.507 149.287 187.673 151.26C180.838 153.234 173.682 153.841 166.612 153.047Z" fill="#FAFAFA"/>
<path opacity="0.4" d="M206.002 56.5803L123.658 122.373C123.312 121.621 122.974 120.869 122.658 120.117C120.594 115.206 119.273 110.016 118.74 104.716L189.864 47.8872C195.704 49.835 201.163 52.7759 206.002 56.5803Z" fill="#FAFAFA"/>
<path opacity="0.4" d="M225.005 85.4047L147.587 147.257C140.232 143.423 133.858 137.947 128.959 131.254L213.492 63.7095C218.941 69.9638 222.88 77.3865 225.005 85.4047Z" fill="#FAFAFA"/>
<path d="M228.623 71.583C221.659 57.1411 209.406 45.9326 194.402 40.2811C179.398 34.6296 162.795 34.9686 148.034 41.2277C133.273 47.4869 121.487 59.1862 115.119 73.9003C108.751 88.6144 108.289 105.215 113.83 120.26C108.806 122.02 103.843 123.907 98.9102 125.855C91.7962 128.677 84.7475 131.625 77.7639 134.698C70.7853 137.789 63.8369 140.94 56.9561 144.234C53.5044 145.851 50.0978 147.558 46.6612 149.212C44.8734 149.98 43.2536 151.092 41.8935 152.483C41.1575 153.254 40.5093 154.104 39.9609 155.017C39.2917 156.098 38.7849 157.271 38.4569 158.499C37.891 160.712 38.1357 163.054 39.1467 165.103C40.1577 167.151 41.8683 168.77 43.969 169.666C45.1356 170.156 46.3664 170.475 47.6237 170.614C48.6857 170.734 49.7578 170.734 50.8197 170.614C52.7496 170.38 54.6147 169.769 56.3093 168.817C59.7159 167.095 63.145 165.433 66.529 163.665C73.297 160.214 80.065 156.612 86.7503 152.957C93.4356 149.302 100.128 145.475 106.656 141.549C111.168 138.819 115.725 136.029 120.192 133.112C128.769 146.653 142.228 156.375 157.778 160.263C173.328 164.152 189.778 161.908 203.72 153.998C217.661 146.089 228.025 133.118 232.664 117.775C237.303 102.432 235.861 85.8921 228.638 71.583H228.623ZM194.437 143.422C185.697 147.735 175.875 149.361 166.212 148.092C156.549 146.824 147.479 142.719 140.149 136.296C132.819 129.873 127.558 121.421 125.032 112.009C122.505 102.596 122.826 92.6456 125.954 83.4154C129.082 74.1852 134.877 66.0899 142.606 60.153C150.335 54.2161 159.651 50.7043 169.376 50.0616C179.1 49.419 188.797 51.6743 197.24 56.5424C205.683 61.4105 212.493 68.6728 216.809 77.411C219.675 83.2142 221.37 89.5251 221.797 95.9833C222.223 102.442 221.374 108.921 219.296 115.05C217.219 121.18 213.954 126.841 209.689 131.709C205.423 136.577 200.241 140.557 194.437 143.422Z" fill="#D089DB"/>
<path opacity="0.3" d="M228.623 71.583C221.659 57.1411 209.406 45.9326 194.402 40.2811C179.398 34.6296 162.795 34.9686 148.034 41.2277C133.273 47.4869 121.487 59.1862 115.119 73.9003C108.751 88.6144 108.289 105.215 113.83 120.26C108.806 122.02 103.843 123.907 98.9102 125.855C91.7962 128.677 84.7475 131.625 77.7639 134.698C70.7853 137.789 63.8369 140.94 56.9561 144.234C53.5044 145.851 50.0978 147.558 46.6612 149.212C44.8734 149.98 43.2536 151.092 41.8935 152.483C41.1575 153.254 40.5093 154.104 39.9609 155.017C39.2917 156.098 38.7849 157.271 38.4569 158.499C37.891 160.712 38.1357 163.054 39.1467 165.103C40.1577 167.151 41.8683 168.77 43.969 169.666C45.1356 170.156 46.3664 170.475 47.6237 170.614C48.6857 170.734 49.7578 170.734 50.8197 170.614C52.7496 170.38 54.6147 169.769 56.3093 168.817C59.7159 167.095 63.145 165.433 66.529 163.665C73.297 160.214 80.065 156.612 86.7503 152.957C93.4356 149.302 100.128 145.475 106.656 141.549C111.168 138.819 115.725 136.029 120.192 133.112C128.769 146.653 142.228 156.375 157.778 160.263C173.328 164.152 189.778 161.908 203.72 153.998C217.661 146.089 228.025 133.118 232.664 117.775C237.303 102.432 235.861 85.8921 228.638 71.583H228.623ZM194.437 143.422C185.697 147.735 175.875 149.361 166.212 148.092C156.549 146.824 147.479 142.719 140.149 136.296C132.819 129.873 127.558 121.421 125.032 112.009C122.505 102.596 122.826 92.6456 125.954 83.4154C129.082 74.1852 134.877 66.0899 142.606 60.153C150.335 54.2161 159.651 50.7043 169.376 50.0616C179.1 49.419 188.797 51.6743 197.24 56.5424C205.683 61.4105 212.493 68.6728 216.809 77.411C219.675 83.2142 221.37 89.5251 221.797 95.9833C222.223 102.442 221.374 108.921 219.296 115.05C217.219 121.18 213.954 126.841 209.689 131.709C205.423 136.577 200.241 140.557 194.437 143.422Z" fill="black"/>
<path d="M76.8159 84.2241C76.8159 84.6678 77.049 85.0287 77.3423 85.0287C77.6356 85.0287 77.8687 84.6678 77.8687 84.2241C77.8687 83.7804 77.6356 83.4194 77.3423 83.4194C77.049 83.4194 76.8159 83.8105 76.8159 84.2241Z" fill="#263238"/>
<path d="M77.0269 85.0288C77.5591 86.3908 78.2752 87.6735 79.155 88.8415C78.8508 89.0591 78.5027 89.2075 78.1351 89.2764C77.7674 89.3452 77.3892 89.3328 77.0269 89.24V85.0288Z" fill="#DE5753"/>
<path d="M75.2594 81.7499C75.2174 81.7499 75.176 81.7405 75.1383 81.7222C75.1005 81.704 75.0673 81.6775 75.0413 81.6446C75.0021 81.5872 74.9865 81.5169 74.9977 81.4483C75.0089 81.3797 75.046 81.3181 75.1014 81.2761C75.4326 81.025 75.8196 80.8575 76.2294 80.7882C76.6393 80.7188 77.0598 80.7494 77.4552 80.8776C77.4907 80.8872 77.5238 80.9043 77.5523 80.9275C77.5809 80.9508 77.6042 80.9798 77.6208 81.0126C77.6375 81.0454 77.647 81.0814 77.6489 81.1181C77.6507 81.1549 77.6449 81.1916 77.6317 81.226C77.6185 81.2604 77.5982 81.2915 77.5722 81.3176C77.5461 81.3436 77.515 81.3639 77.4806 81.3771C77.4463 81.3904 77.4095 81.3962 77.3728 81.3944C77.336 81.3925 77.3001 81.383 77.2672 81.3664C76.9531 81.27 76.6205 81.2505 76.2973 81.3094C75.9741 81.3683 75.6697 81.5039 75.4098 81.7048C75.3652 81.7343 75.3128 81.75 75.2594 81.7499Z" fill="#263238"/>
<path d="M61.6258 87.5703C62.3778 91.6086 63.205 99.0158 60.3774 101.715C60.3774 101.715 61.4829 105.814 68.9954 105.814C77.2674 105.814 72.9358 101.715 72.9358 101.715C68.4238 100.633 68.5517 97.2937 69.3338 94.1503L61.6258 87.5703Z" fill="#E4897B"/>
<path d="M57.0012 103.843C57.8961 102.452 56.3921 99.0757 56.3921 99.0757C56.3921 99.0757 69.6875 95.7293 75.1244 100.865C76.2524 101.926 75.0041 103.49 75.0041 103.49L57.0012 103.843Z" fill="#D089DB"/>
<path opacity="0.1" d="M57.0012 103.843C57.8961 102.452 56.3921 99.0757 56.3921 99.0757C56.3921 99.0757 69.6875 95.7293 75.1244 100.865C76.2524 101.926 75.0041 103.49 75.0041 103.49L57.0012 103.843Z" fill="black"/>
<path d="M35.0051 257.274C34.3057 257.274 33.1852 256.109 32.8543 255.673C32.8401 255.651 32.8325 255.627 32.8325 255.601C32.8325 255.576 32.8401 255.551 32.8543 255.53C32.8665 255.509 32.8841 255.491 32.9052 255.479C32.9264 255.467 32.9504 255.461 32.9747 255.462C33.0574 255.462 34.8998 255.627 35.4036 256.282C35.4584 256.351 35.4975 256.431 35.5183 256.517C35.5391 256.602 35.541 256.691 35.5239 256.778C35.5174 256.89 35.4763 256.997 35.4062 257.085C35.3362 257.172 35.2407 257.236 35.1329 257.267L35.0051 257.274ZM33.2604 255.77C33.8094 256.402 34.6892 257.116 35.0652 257.026C35.0652 257.026 35.2156 256.989 35.2607 256.748C35.2706 256.698 35.269 256.646 35.256 256.596C35.243 256.547 35.2189 256.501 35.1855 256.462C34.6285 256.04 33.9582 255.794 33.2604 255.755V255.77Z" fill="#D089DB"/>
<path d="M33.3429 255.755C33.2079 255.769 33.0718 255.769 32.9368 255.755C32.913 255.753 32.8903 255.745 32.8716 255.73C32.8528 255.715 32.8389 255.695 32.8315 255.673C32.8209 255.652 32.8154 255.628 32.8154 255.605C32.8154 255.581 32.8209 255.558 32.8315 255.537C32.8842 255.492 33.9896 254.341 34.8243 254.341C34.9242 254.339 35.0234 254.358 35.1155 254.397C35.2075 254.436 35.2902 254.494 35.3582 254.567C35.4331 254.63 35.4843 254.716 35.5035 254.812C35.5226 254.907 35.5085 255.007 35.4635 255.093C35.2454 255.515 34.0949 255.755 33.3429 255.755ZM33.2451 255.492C33.9971 255.492 35.0875 255.259 35.268 254.928C35.268 254.928 35.3206 254.83 35.2003 254.71C35.1566 254.662 35.1029 254.625 35.0432 254.6C34.9834 254.576 34.919 254.564 34.8544 254.567C34.2379 254.709 33.6777 255.031 33.2451 255.492Z" fill="#D089DB"/>
<path d="M84.6296 274.344C84.0596 274.34 83.491 274.288 82.9301 274.186C82.9022 274.181 82.8771 274.166 82.8592 274.144C82.8413 274.122 82.8318 274.094 82.8323 274.066C82.8281 274.04 82.8316 274.014 82.8422 273.989C82.8529 273.965 82.8704 273.945 82.8925 273.931C82.9752 273.886 84.9003 272.78 85.8253 273.036C85.911 273.055 85.992 273.092 86.0631 273.144C86.1342 273.195 86.194 273.261 86.2389 273.337C86.2978 273.42 86.3294 273.52 86.3294 273.622C86.3294 273.725 86.2978 273.825 86.2389 273.908C86.0208 274.247 85.3365 274.344 84.6296 274.344ZM83.3587 273.991C84.3814 274.141 85.7801 274.134 86.0358 273.773C86.0734 273.728 86.1035 273.645 86.0358 273.487C85.9784 273.393 85.8866 273.326 85.7801 273.299C85.1936 273.149 84.028 273.645 83.3587 273.991Z" fill="#D089DB"/>
<path d="M82.9599 274.194C82.9353 274.201 82.9092 274.201 82.8847 274.194C82.8638 274.181 82.8476 274.161 82.8382 274.139C82.8287 274.116 82.8266 274.091 82.832 274.066C82.883 273.284 83.1834 272.538 83.6893 271.938C83.7916 271.85 83.9118 271.785 84.0415 271.747C84.1713 271.71 84.3077 271.7 84.4413 271.72C84.8023 271.72 84.9076 271.938 84.9301 272.081C85.0279 272.705 83.7119 273.901 83.0426 274.202L82.9599 274.194ZM84.306 271.938C84.1405 271.937 83.9802 271.996 83.8548 272.104C83.4295 272.579 83.1662 273.176 83.1028 273.811C83.7796 273.397 84.682 272.465 84.6068 272.089C84.6068 272.089 84.6068 271.961 84.3511 271.938H84.306Z" fill="#D089DB"/>
<path d="M76.8838 274.059H82.411L82.96 261.267H77.4328L76.8838 274.059Z" fill="#E4897B"/>
<path d="M27.6655 252.1L32.2828 255.123L42.4799 246.513L37.8551 243.482L27.6655 252.1Z" fill="#E4897B"/>
<path d="M33.0421 254.838L28.2444 250.905C28.1596 250.835 28.0533 250.797 27.9436 250.797C27.8338 250.797 27.7275 250.835 27.6428 250.905L23.6872 254.01C23.5917 254.086 23.5145 254.183 23.4615 254.293C23.4084 254.403 23.3809 254.524 23.3809 254.646C23.3809 254.768 23.4084 254.889 23.4615 254.999C23.5145 255.109 23.5917 255.205 23.6872 255.281C25.3868 256.627 26.2816 257.199 28.3948 258.928C29.6957 259.989 32.9067 263.237 34.7191 264.704C36.5314 266.17 38.1933 264.591 37.5917 263.832C34.892 260.41 33.8317 257.485 33.5234 255.672C33.4701 255.345 33.2989 255.048 33.0421 254.838Z" fill="#263238"/>
<path d="M82.3736 273.419H76.3576C76.2479 273.42 76.1415 273.457 76.0556 273.525C75.9697 273.594 75.9092 273.689 75.8839 273.795L74.7935 278.706C74.7661 278.825 74.7661 278.949 74.7936 279.068C74.8211 279.187 74.8753 279.298 74.9521 279.393C75.0289 279.488 75.1263 279.564 75.2369 279.616C75.3475 279.667 75.4685 279.693 75.5906 279.691C77.7639 279.654 80.9072 279.526 83.6445 279.526C86.8405 279.526 89.6079 279.699 93.3528 279.699C95.6088 279.699 96.2556 277.405 95.3005 277.202C90.984 276.254 87.4496 276.157 83.7197 273.848C83.3195 273.583 82.8534 273.435 82.3736 273.419Z" fill="#263238"/>
<path d="M49.4883 103.362C44.698 105.618 41.9683 120.734 41.9683 120.734L53.6769 125.404C55.3908 121.219 56.7761 116.907 57.8204 112.507C59.4297 105.543 54.3913 101.031 49.4883 103.362Z" fill="#263238"/>
<path d="M55.7001 111.883C52.8049 114.816 51.4814 120.561 50.9023 124.298L53.7073 125.419C55.3724 121.353 56.7298 117.167 57.7681 112.898C57.5199 111.304 56.9033 110.664 55.7001 111.883Z" fill="#203048"/>
<path d="M81.4331 103.257C81.4331 103.257 87.3137 109.905 81.764 151.009H52.2179C52.0148 146.497 54.8649 124.351 50.4883 102.979C53.7535 102.346 57.0569 101.929 60.3771 101.731C64.5595 101.482 68.753 101.482 72.9355 101.731C75.8032 102.019 78.6442 102.53 81.4331 103.257Z" fill="#263238"/>
<path d="M84.1328 119.215L79.1546 110.634C78.1936 114.638 77.8012 118.756 77.989 122.869C78.1244 125.817 80.824 136.736 83.253 138.33C83.8975 131.98 84.1913 125.598 84.1328 119.215Z" fill="#203048"/>
<path d="M84.8246 109.13C85.5766 112.785 86.3286 116.53 87.1333 120.2C87.9379 123.87 88.7726 127.554 89.7427 131.111C89.9909 131.991 90.224 132.894 90.4947 133.736L90.6978 134.383L90.7955 134.706V134.668C90.7429 134.601 90.6827 134.593 90.7278 134.668C91.0369 135.006 91.432 135.253 91.8709 135.383C92.5818 135.647 93.3138 135.851 94.0592 135.992C97.6146 136.555 101.214 136.789 104.813 136.691L105.527 140.782C104.52 141.105 103.58 141.339 102.587 141.572C101.594 141.805 100.617 142 99.6165 142.151C97.5472 142.495 95.4491 142.636 93.3523 142.572C92.1868 142.54 91.0277 142.389 89.8931 142.121C88.4505 141.805 87.095 141.176 85.9226 140.278C85.1568 139.66 84.5249 138.892 84.0651 138.022C83.9448 137.797 83.8395 137.541 83.7418 137.323L83.6064 136.969L83.3282 136.217C82.9446 135.262 82.6288 134.322 82.2829 133.382C81.012 129.622 79.9517 125.825 79.0192 122.035C78.0867 118.245 77.2821 114.462 76.6128 110.574L84.8246 109.13Z" fill="#E4897B"/>
<path d="M74.0566 107.288C72.5 112.334 78.8092 127.381 78.8092 127.381L91.3752 124.223C91.3752 124.223 90.8939 116.402 88.0288 110.198C83.7123 100.843 75.9216 101.234 74.0566 107.288Z" fill="#263238"/>
<path d="M104.708 136.691L110.964 136.533L107.956 143.046C107.956 143.046 105.407 143.384 103.317 139.947L101.113 137.315L103.648 136.811C103.996 136.738 104.351 136.698 104.708 136.691Z" fill="#E4897B"/>
<path d="M114.913 137.744L111.333 143.143L107.957 143.046L110.965 136.533L114.913 137.744Z" fill="#E4897B"/>
<path d="M82.9599 261.267L82.6742 267.862H77.147L77.4327 261.267H82.9599Z" fill="#CE6F64"/>
<path d="M37.8551 243.482L42.4799 246.513L37.2159 250.95L32.5986 247.927L37.8551 243.482Z" fill="#CE6F64"/>
<path d="M61.9714 83.2693C62.3022 88.7363 62.2195 91.9624 64.9794 94.7673C69.1304 99.0011 75.8909 96.4969 77.1994 91.0073C78.38 86.0893 77.643 77.9677 72.2888 75.7869C71.1074 75.31 69.8242 75.1411 68.5596 75.296C67.2951 75.451 66.0906 75.9246 65.0592 76.6726C64.0279 77.4206 63.2035 78.4183 62.6634 79.5721C62.1232 80.726 61.8851 81.9982 61.9714 83.2693Z" fill="#E4897B"/>
<path d="M55.5347 82.3063C56.8958 87.2921 60.0993 93.0373 64.2429 93.4058C69.3865 93.857 71.7102 88.5404 72.387 83.0508C75.4702 80.9377 73.8534 78.614 76.9441 78.3207C80.9147 77.9447 79.6438 70.6804 74.4174 69.5148C74.4174 69.5148 76.1696 72.786 72.4923 71.1316C68.9952 69.4696 65.1099 68.796 61.2574 69.1839C61.2574 69.1839 65.9499 71.5301 61.3627 72.5754C56.7755 73.6207 55.4069 76.4482 57.52 78.1553C57.52 78.1628 54.6398 79.0276 55.5347 82.3063Z" fill="#263238"/>
<path d="M69.2513 84.1792C69.3523 85.5382 69.8996 86.8257 70.8079 87.8415C72.0111 89.1725 73.267 88.3453 73.4775 86.7285C73.6731 85.2771 73.2745 82.8331 71.8006 82.0962C70.3267 81.3592 69.1535 82.5399 69.2513 84.1792Z" fill="#E4897B"/>
<path d="M71.2816 151.009C71.2816 151.009 76.6659 190.001 72.4246 205.627C65.7018 230.368 39.9984 251.251 39.9984 251.251L31.2827 245.536C31.2827 245.536 53.1734 227.901 55.8506 207.184C58.257 188.587 52.2184 166.095 52.2184 151.002L71.2816 151.009Z" fill="#D089DB"/>
<path opacity="0.1" d="M71.2816 151.009C71.2816 151.009 76.6659 190.001 72.4246 205.627C65.7018 230.368 39.9984 251.251 39.9984 251.251L31.2827 245.536C31.2827 245.536 53.1734 227.901 55.8506 207.184C58.257 188.587 52.2184 166.095 52.2184 151.002L71.2816 151.009Z" fill="black"/>
<path d="M73.5075 173.299C72.0741 171.656 70.4961 170.146 68.7925 168.787C69.7099 181.443 70.4619 200.19 69.6272 213.508C70.7495 210.955 71.6845 208.324 72.4246 205.635C74.4926 198.002 74.2746 184.819 73.5075 173.299Z" fill="#D089DB"/>
<path opacity="0.3" d="M73.5075 173.299C72.0741 171.656 70.4961 170.146 68.7925 168.787C69.7099 181.443 70.4619 200.19 69.6272 213.508C70.7495 210.955 71.6845 208.324 72.4246 205.635C74.4926 198.002 74.2746 184.819 73.5075 173.299Z" fill="black"/>
<path d="M43.5101 249.303C43.5477 249.303 40.1336 251.559 40.1336 251.559L30.6133 245.317L33.6213 242.828L43.5101 249.303Z" fill="#D089DB"/>
<path opacity="0.3" d="M43.5101 249.303C43.5477 249.303 40.1336 251.559 40.1336 251.559L30.6133 245.317L33.6213 242.828L43.5101 249.303Z" fill="black"/>
<path d="M81.7645 151.009C81.7645 151.009 90.0816 186.278 90.6682 203.13C91.3299 222.021 84.7349 266.584 84.7349 266.584H75.3725C75.3725 266.584 74.2219 221.675 73.8083 204.469C73.3496 185.707 62.3403 151.009 62.3403 151.009H81.7645Z" fill="#D089DB"/>
<path opacity="0.1" d="M81.7645 151.009C81.7645 151.009 90.0816 186.278 90.6682 203.13C91.3299 222.021 84.7349 266.584 84.7349 266.584H75.3725C75.3725 266.584 74.2219 221.675 73.8083 204.469C73.3496 185.707 62.3403 151.009 62.3403 151.009H81.7645Z" fill="black"/>
<path d="M86.532 262.862C86.5771 262.862 86.0056 266.742 86.0056 266.742H74.6203L74.312 263.275L86.532 262.862Z" fill="#D089DB"/>
<path opacity="0.3" d="M86.532 262.862C86.5771 262.862 86.0056 266.742 86.0056 266.742H74.6203L74.312 263.275L86.532 262.862Z" fill="black"/>
<path d="M225.712 117.117C226.351 117.718 226.855 118.23 227.381 118.801C227.908 119.373 228.404 119.929 228.885 120.508C229.863 121.659 230.78 122.87 231.668 124.088C233.44 126.531 235.017 129.111 236.383 131.803L236.661 132.352C236.797 132.618 236.91 132.895 236.999 133.179C237.181 133.73 237.292 134.301 237.33 134.879C237.379 135.899 237.239 136.918 236.917 137.887C236.367 139.496 235.551 141.001 234.503 142.339C232.613 144.766 230.385 146.908 227.885 148.701L226.013 146.55C226.893 145.52 227.81 144.414 228.63 143.309C229.464 142.238 230.218 141.107 230.886 139.925C231.51 138.894 231.971 137.773 232.254 136.601C232.352 136.182 232.369 135.748 232.307 135.323C232.28 135.179 232.235 135.04 232.172 134.909C232.144 134.851 232.111 134.796 232.074 134.744L231.833 134.338C230.383 131.973 228.809 129.686 227.118 127.487C226.283 126.381 225.389 125.321 224.486 124.276C224.043 123.749 223.584 123.238 223.125 122.727C222.666 122.215 222.17 121.704 221.771 121.305L225.712 117.117Z" fill="#E4897B"/>
<path d="M226.735 145.918L221.117 145L224.057 149.919C224.057 149.919 227.675 149.791 228.705 147.663L226.735 145.918Z" fill="#E4897B"/>
<path d="M216.966 147.272L219.643 151.265L224.058 149.919L221.117 145L216.966 147.272Z" fill="#E4897B"/>
<path d="M226.464 274.277C226.082 274.31 225.701 274.206 225.389 273.984C225.295 273.895 225.225 273.783 225.187 273.659C225.149 273.535 225.143 273.403 225.171 273.277C225.176 273.196 225.203 273.118 225.25 273.052C225.296 272.986 225.36 272.933 225.434 272.901C226.088 272.607 227.803 273.705 227.998 273.833C228.02 273.847 228.038 273.868 228.047 273.892C228.057 273.916 228.058 273.943 228.051 273.968C228.048 273.994 228.037 274.018 228.019 274.037C228.002 274.056 227.978 274.069 227.953 274.074C227.466 274.197 226.966 274.266 226.464 274.277ZM225.712 273.111C225.657 273.103 225.601 273.103 225.547 273.111C225.514 273.127 225.485 273.151 225.466 273.182C225.446 273.212 225.435 273.248 225.434 273.284C225.414 273.368 225.416 273.456 225.44 273.539C225.463 273.622 225.508 273.697 225.569 273.758C225.855 274.014 226.592 274.051 227.577 273.856C227.013 273.483 226.378 273.23 225.712 273.111Z" fill="#D089DB"/>
<path d="M227.968 274.067H227.9C227.366 273.758 226.336 272.563 226.464 271.908C226.488 271.805 226.545 271.713 226.627 271.645C226.708 271.577 226.809 271.538 226.915 271.532C227.017 271.518 227.12 271.526 227.218 271.558C227.316 271.589 227.405 271.642 227.479 271.713C228.096 272.254 228.103 273.879 228.103 273.969C228.102 273.992 228.095 274.014 228.083 274.033C228.072 274.053 228.055 274.07 228.036 274.082L227.968 274.067ZM227.005 271.811H226.945C226.78 271.811 226.742 271.901 226.727 271.968C226.652 272.352 227.291 273.269 227.825 273.698C227.838 273.067 227.657 272.448 227.306 271.923C227.261 271.881 227.208 271.85 227.149 271.83C227.091 271.811 227.029 271.804 226.968 271.811H227.005Z" fill="#D089DB"/>
<path d="M200.836 274.277C200.356 274.322 199.875 274.2 199.475 273.931C199.385 273.851 199.315 273.75 199.272 273.638C199.229 273.525 199.213 273.404 199.227 273.284C199.232 273.211 199.255 273.14 199.294 273.079C199.334 273.017 199.388 272.966 199.452 272.931C200.152 272.54 202.393 273.683 202.648 273.826C202.672 273.841 202.691 273.862 202.703 273.887C202.715 273.913 202.719 273.941 202.716 273.968C202.712 273.995 202.699 274.019 202.68 274.038C202.662 274.057 202.637 274.069 202.611 274.074C202.027 274.198 201.433 274.266 200.836 274.277ZM199.836 273.111C199.75 273.105 199.664 273.124 199.588 273.164C199.561 273.177 199.538 273.197 199.522 273.222C199.506 273.247 199.498 273.277 199.498 273.307C199.486 273.385 199.494 273.465 199.52 273.54C199.546 273.614 199.59 273.681 199.648 273.735C199.994 274.044 200.919 274.096 202.167 273.886C201.439 273.498 200.651 273.236 199.836 273.111Z" fill="#D089DB"/>
<path d="M202.588 274.067H202.528C201.859 273.766 200.528 272.563 200.633 271.909C200.633 271.758 200.768 271.57 201.137 271.533C201.271 271.518 201.407 271.531 201.537 271.571C201.666 271.611 201.786 271.678 201.889 271.766C202.596 272.352 202.731 273.871 202.731 273.939C202.734 273.962 202.731 273.985 202.721 274.006C202.712 274.028 202.697 274.046 202.678 274.059C202.65 274.071 202.618 274.074 202.588 274.067ZM201.242 271.811H201.159C200.919 271.811 200.904 271.931 200.896 271.961C200.836 272.345 201.738 273.3 202.4 273.713C202.335 273.071 202.072 272.464 201.648 271.976C201.534 271.879 201.392 271.821 201.242 271.811Z" fill="#D089DB"/>
<path d="M211.476 99.8281C211.258 103.227 210.672 110.131 213.281 112.041C213.281 112.041 212.808 115.522 206.649 116.335C199.881 117.214 202.971 113.394 202.971 113.394C206.558 112.026 206.1 109.296 205.122 106.799L211.476 99.8281Z" fill="#E4897B"/>
<path d="M197.467 93.8194C197.43 93.8195 197.393 93.8115 197.359 93.7959C197.325 93.7803 197.295 93.7575 197.271 93.7292C197.056 93.4741 196.784 93.2731 196.477 93.1425C196.17 93.0119 195.837 92.9552 195.504 92.9772C195.469 92.9836 195.433 92.9828 195.398 92.9748C195.363 92.9668 195.33 92.9518 195.301 92.9307C195.273 92.9096 195.248 92.8828 195.23 92.852C195.212 92.8212 195.2 92.787 195.196 92.7516C195.187 92.6809 195.207 92.6096 195.251 92.5533C195.294 92.497 195.358 92.4602 195.429 92.4508C195.854 92.4149 196.28 92.4823 196.673 92.6473C197.066 92.8123 197.413 93.07 197.685 93.3983C197.717 93.4375 197.738 93.4851 197.745 93.5357C197.752 93.5862 197.744 93.6376 197.723 93.684C197.702 93.7303 197.668 93.7697 197.625 93.7977C197.583 93.8257 197.533 93.841 197.482 93.842L197.467 93.8194Z" fill="#263238"/>
<path d="M196.294 97.1514C196.027 98.23 195.614 99.2672 195.068 100.235C195.319 100.37 195.597 100.448 195.881 100.463C196.166 100.479 196.45 100.432 196.715 100.325L196.294 97.1514Z" fill="#DE5753"/>
<path d="M196.594 96.3238C196.654 96.775 196.466 97.1661 196.173 97.2112C195.88 97.2563 195.587 96.9104 195.534 96.4592C195.481 96.008 195.662 95.6169 195.955 95.5793C196.248 95.5417 196.542 95.8425 196.594 96.3238Z" fill="#263238"/>
<path d="M196.091 95.587L194.97 95.4141C194.97 95.4141 195.632 96.1886 196.091 95.587Z" fill="#263238"/>
<path d="M208.785 273.946H203.145L202.769 260.899H208.409L208.785 273.946Z" fill="#E4897B"/>
<path d="M234.39 273.946H228.75L226.938 260.899H232.578L234.39 273.946Z" fill="#E4897B"/>
<path d="M228.404 273.314H234.736C234.844 273.313 234.949 273.352 235.03 273.422C235.112 273.493 235.165 273.591 235.18 273.698L235.932 278.714C235.945 278.84 235.932 278.968 235.893 279.089C235.854 279.21 235.79 279.322 235.705 279.416C235.619 279.511 235.515 279.586 235.399 279.637C235.282 279.689 235.156 279.715 235.029 279.714C232.826 279.676 231.758 279.549 228.976 279.549C227.261 279.549 224.757 279.722 222.396 279.722C220.034 279.722 219.907 277.383 220.892 277.172C225.306 276.225 226.005 274.916 227.487 273.66C227.745 273.446 228.068 273.324 228.404 273.314Z" fill="#263238"/>
<path d="M202.956 273.314H209.281C209.389 273.313 209.495 273.351 209.578 273.422C209.661 273.492 209.715 273.59 209.732 273.698L210.484 278.714C210.498 278.84 210.484 278.968 210.445 279.089C210.406 279.21 210.342 279.322 210.257 279.416C210.172 279.511 210.067 279.586 209.951 279.637C209.835 279.689 209.709 279.715 209.581 279.714C207.378 279.676 206.31 279.549 203.528 279.549C201.813 279.549 198.264 279.722 195.903 279.722C193.541 279.722 193.413 277.383 194.399 277.172C198.813 276.225 200.55 274.916 202.039 273.66C202.297 273.446 202.62 273.324 202.956 273.314Z" fill="#263238"/>
<path d="M202.769 260.899L202.964 267.629H208.604L208.409 260.899H202.769Z" fill="#CE6F64"/>
<path d="M232.578 260.899H226.938L227.878 267.629H233.51L232.578 260.899Z" fill="#CE6F64"/>
<path d="M211.552 92.7896C211.935 98.3694 212.213 100.723 209.792 103.934C206.145 108.755 199.211 108.01 197.166 102.656C195.323 97.8355 195.008 89.5259 200.136 86.6081C201.265 85.9615 202.539 85.6139 203.84 85.5982C205.14 85.5825 206.423 85.8993 207.566 86.5185C208.71 87.1377 209.676 88.0388 210.373 89.1363C211.071 90.2338 211.477 91.4913 211.552 92.7896Z" fill="#E4897B"/>
<path d="M214.8 97.9708C217.929 99.7154 220.252 95.414 220.252 95.414C220.252 95.414 214.642 96.0231 215.146 92.6842C215.808 88.255 212.634 82.8706 204.678 83.5625C204.235 83.6001 203.813 83.6527 203.4 83.7204C202.567 83.3256 201.625 83.2237 200.727 83.4311C199.829 83.6386 199.027 84.1433 198.452 84.8634C196.196 85.0514 193.15 87.7436 195.218 91.3006C195.363 90.8919 195.588 90.5161 195.88 90.1951C196.053 92.2782 197.873 95.587 200.144 95.805C200.633 98.6551 198.737 101.956 199.392 104.934C200.362 109.228 207.604 110.198 207.604 110.198C207.354 109.662 207.261 109.066 207.335 108.479C207.41 107.893 207.649 107.339 208.025 106.882C212.943 109.138 216.184 106.935 216.184 106.935C212.83 105.686 213.845 103.46 213.845 103.46C215.003 103.975 216.315 104.02 217.506 103.586C218.697 103.153 219.673 102.275 220.23 101.137C219.116 101.19 218.01 100.919 217.047 100.357C216.083 99.7952 215.303 98.9664 214.8 97.9708Z" fill="#263238"/>
<path d="M202.107 96.662C202.12 97.1975 202.027 97.7304 201.834 98.2298C201.64 98.7293 201.349 99.1855 200.979 99.5723C199.986 100.602 198.768 99.8806 198.437 98.5646C198.144 97.3764 198.309 95.4137 199.603 94.8723C199.887 94.7604 200.195 94.7215 200.499 94.759C200.803 94.7965 201.092 94.9094 201.341 95.0872C201.59 95.265 201.79 95.5023 201.924 95.7773C202.058 96.0523 202.12 96.3565 202.107 96.662Z" fill="#E4897B"/>
<path d="M206.792 148.648C206.792 148.648 208.221 185.767 211.62 207.56C214.357 225.171 226.517 266.321 226.517 266.321H234.202C234.202 266.321 227.863 226.578 226.472 209.169C222.952 165.109 232.089 155.649 223.464 146.475L206.792 148.648Z" fill="#263238"/>
<path d="M213.214 160.386C213.214 160.386 209.74 159.785 207.709 166.402C208.461 178.938 209.747 195.572 211.62 207.559C212.033 210.229 212.665 213.447 213.44 216.974C211.973 195.798 213.214 160.386 213.214 160.386Z" fill="#161F33"/>
<path d="M200.799 149.43C200.799 149.43 194.467 190.497 194.835 207.68C195.219 225.555 201.769 266.336 201.769 266.336H209.387C209.387 266.336 208.183 226.615 208.853 209.064C209.605 189.925 217.418 147.272 217.418 147.272L200.799 149.43Z" fill="#263238"/>
<path d="M235.315 266.682H225.095L224.298 263.252L235.24 263.328L235.315 266.682Z" fill="#D089DB"/>
<path opacity="0.2" d="M235.315 266.682H225.095L224.298 263.252L235.24 263.328L235.315 266.682Z" fill="black"/>
<path d="M223.08 112.048C226.02 112.334 230.487 120.689 230.487 120.689L223.065 126.381C223.065 126.381 216.921 120.99 217.651 117.959C218.41 114.808 220.26 111.785 223.08 112.048Z" fill="#D089DB"/>
<path opacity="0.1" d="M223.08 112.048C226.02 112.334 230.487 120.689 230.487 120.689L223.065 126.381C223.065 126.381 216.921 120.99 217.651 117.959C218.41 114.808 220.26 111.785 223.08 112.048Z" fill="black"/>
<path d="M220.862 115.643C220.112 115.441 219.336 115.355 218.56 115.387C218.166 116.209 217.861 117.071 217.65 117.959C216.898 120.967 223.065 126.381 223.065 126.381L223.614 125.96L220.862 115.643Z" fill="#D089DB"/>
<path opacity="0.3" d="M220.862 115.643C220.112 115.441 219.336 115.355 218.56 115.387C218.166 116.209 217.861 117.071 217.65 117.959C216.898 120.967 223.065 126.381 223.065 126.381L223.614 125.96L220.862 115.643Z" fill="black"/>
<path d="M198.279 123.666C196.136 129.088 193.88 134.6 192.082 140.037C191.962 140.383 191.864 140.714 191.759 141.052L191.503 141.887C191.433 142.133 191.433 142.393 191.503 142.639C191.928 143.579 192.601 144.385 193.451 144.97C195.699 146.583 198.149 147.896 200.738 148.873L200.061 151.641C196.876 151.221 193.797 150.216 190.977 148.678C189.242 147.751 187.828 146.319 186.924 144.572C186.404 143.455 186.224 142.21 186.405 140.992C186.422 140.843 186.447 140.695 186.48 140.549L186.555 140.233L186.683 139.661C186.773 139.278 186.863 138.909 186.961 138.533C187.713 135.525 188.676 132.668 189.691 129.833C190.706 126.998 191.767 124.2 192.962 121.41L198.279 123.666Z" fill="#E4897B"/>
<path d="M193.715 116.056C193.715 116.056 191.173 117.342 200.799 149.43L223.494 146.467C221.9 137.278 221.148 131.585 223.08 112.048C219.826 111.815 216.559 111.815 213.304 112.048C209.839 112.25 206.394 112.702 202.994 113.402C198.64 114.372 193.715 116.056 193.715 116.056Z" fill="#D089DB"/>
<path opacity="0.1" d="M193.715 116.056C193.715 116.056 191.173 117.342 200.799 149.43L223.494 146.467C221.9 137.278 221.148 131.585 223.08 112.048C219.826 111.815 216.559 111.815 213.304 112.048C209.839 112.25 206.394 112.702 202.994 113.402C198.64 114.372 193.715 116.056 193.715 116.056Z" fill="black"/>
<path d="M223.659 145.091L224.96 146.978C225.058 147.129 224.893 147.309 224.637 147.347L200.836 150.46C200.633 150.46 200.445 150.407 200.415 150.28L199.949 148.272C199.911 148.136 200.077 147.993 200.302 147.963L223.283 144.955C223.352 144.944 223.423 144.951 223.489 144.975C223.554 144.998 223.613 145.038 223.659 145.091Z" fill="#D089DB"/>
<path opacity="0.2" d="M223.659 145.091L224.96 146.978C225.058 147.129 224.893 147.309 224.637 147.347L200.836 150.46C200.633 150.46 200.445 150.407 200.415 150.28L199.949 148.272C199.911 148.136 200.077 147.993 200.302 147.963L223.283 144.955C223.352 144.944 223.423 144.951 223.489 144.975C223.554 144.998 223.613 145.038 223.659 145.091Z" fill="black"/>
<path d="M220.907 148.061L221.523 147.978C221.644 147.978 221.726 147.888 221.711 147.813L221.08 145.211C221.056 145.167 221.017 145.132 220.971 145.113C220.924 145.093 220.872 145.091 220.824 145.106L220.207 145.181C220.079 145.181 219.997 145.271 220.019 145.354L220.651 147.948C220.666 148.031 220.786 148.076 220.907 148.061Z" fill="#263238"/>
<path d="M205.987 149.986L206.604 149.903C206.724 149.903 206.814 149.813 206.792 149.738L206.16 147.136C206.135 147.092 206.097 147.057 206.051 147.037C206.005 147.017 205.953 147.012 205.904 147.023L205.288 147.106C205.167 147.106 205.077 147.196 205.1 147.271L205.731 149.873C205.746 149.986 205.867 150.031 205.987 149.986Z" fill="#263238"/>
<path d="M194.775 126.945C195.399 129.848 196.279 133.525 197.565 138.18L197.843 126.381L194.775 126.945Z" fill="#D089DB"/>
<path opacity="0.3" d="M194.775 126.945C195.399 129.848 196.279 133.525 197.565 138.18L197.843 126.381L194.775 126.945Z" fill="black"/>
<path d="M193.714 116.056C190.894 117.192 188.45 126.84 188.45 126.84L198.151 131.563C198.151 131.563 202.836 119.764 200.738 117.463C198.64 115.161 196.963 114.755 193.714 116.056Z" fill="#D089DB"/>
<path opacity="0.1" d="M193.714 116.056C190.894 117.192 188.45 126.84 188.45 126.84L198.151 131.563C198.151 131.563 202.836 119.764 200.738 117.463C198.64 115.161 196.963 114.755 193.714 116.056Z" fill="black"/>
<path d="M210.687 266.682H200.468L199.67 263.252L211.048 263.328L210.687 266.682Z" fill="#D089DB"/>
<path opacity="0.2" d="M210.687 266.682H200.468L199.67 263.252L211.048 263.328L210.687 266.682Z" fill="black"/>
<path d="M200.896 147.941L200.077 147.603C199.875 147.521 199.656 147.493 199.44 147.524C199.225 147.554 199.021 147.641 198.85 147.775C198.679 147.91 198.547 148.087 198.466 148.289C198.386 148.491 198.36 148.711 198.392 148.926L198.986 152.844C199.015 153.04 199.087 153.227 199.196 153.392C199.306 153.557 199.451 153.696 199.621 153.798C199.791 153.9 199.981 153.964 200.178 153.983C200.375 154.003 200.574 153.978 200.761 153.912C201.059 153.804 201.338 153.649 201.588 153.453C201.86 153.228 202.075 152.941 202.216 152.617C202.358 152.293 202.421 151.941 202.4 151.588L202.318 149.964C202.303 149.525 202.161 149.1 201.909 148.74C201.656 148.381 201.305 148.103 200.896 147.941Z" fill="#E4897B"/>
</svg>
