<svg width="434" height="362" viewBox="0 0 434 362" fill="none" xmlns="http://www.w3.org/2000/svg">
<path d="M0 301.617L54.255 301.457L108.503 301.397L217 301.284L325.497 301.397L379.745 301.457L434 301.617L379.745 301.783L325.497 301.837L217 301.95L108.503 301.837L54.255 301.777L0 301.617Z" fill="#263238"/>
<path d="M217 361.963C322.423 361.963 407.884 352.598 407.884 341.046C407.884 329.495 322.423 320.13 217 320.13C111.577 320.13 26.1156 329.495 26.1156 341.046C26.1156 352.598 111.577 361.963 217 361.963Z" fill="#EBEBEB"/>
<path d="M114.914 347.711C113.363 348.217 69.1734 347.644 67.5092 346.553C66.8435 346.146 66.5705 339.702 66.444 331.907V331.661C66.4107 330.056 66.3908 328.399 66.3908 326.728C66.3908 326.495 66.3908 326.262 66.3908 326.062C66.3242 314.812 66.5039 303.135 66.5039 303.135L96.0613 303.428L95.1759 326.129L95.1426 327.027L94.9628 331.727V332.213C94.9628 332.213 111.779 339.995 113.489 341.387C115.2 342.778 116.478 347.218 114.914 347.711Z" fill="#DD6A57"/>
<path d="M101.633 335.222C101.52 335.189 101.46 335.149 101.453 335.116L101.633 335.222Z" fill="#D08CE6"/>
<path d="M114.907 347.711C113.363 348.21 69.1735 347.644 67.5026 346.546C66.9367 346.193 66.6372 341.061 66.4907 334.45C74.5857 336.141 105.967 342.485 106.826 339.776C107.165 338.724 104.483 336.9 102.785 335.868C107.445 338.078 112.558 340.608 113.436 341.354C115.147 342.772 116.479 347.218 114.907 347.711Z" fill="#D08CE6"/>
<path opacity="0.1" d="M87.1875 347.644C77.2419 347.405 68.2748 347.032 67.5359 346.546C66.9701 346.193 66.6705 341.061 66.524 334.45C67.6757 334.683 69.2934 335.023 71.2306 335.409L87.1875 347.644Z" fill="black"/>
<path d="M57.4304 175.819C57.4304 175.819 64.0875 250.491 65.1459 256.189C65.3923 257.488 65.552 264.544 65.6519 273.611C65.8782 293.409 65.7451 329.104 65.7451 329.104H96.8934C96.8934 329.104 95.9681 267.253 94.5901 255.877C93.2121 244.5 84.3981 175.826 84.3981 175.826L57.4304 175.819Z" fill="#37474F"/>
<path d="M95.4822 323.679C90.6225 323.579 92.0205 323.539 87.1608 323.492C84.7843 323.492 69.1468 323.332 66.9234 323.699C66.8768 323.699 66.8768 323.792 66.9234 323.798C69.1468 324.165 84.7843 324.031 87.1608 324.005C92.0205 323.958 90.6225 323.918 95.4822 323.818C95.497 323.814 95.5101 323.804 95.5193 323.792C95.5286 323.779 95.5335 323.764 95.5335 323.749C95.5335 323.733 95.5286 323.718 95.5193 323.705C95.5101 323.693 95.497 323.683 95.4822 323.679Z" fill="#263238"/>
<path d="M71.6633 288.316L71.5635 274.762C71.5302 270.389 71.5635 266.008 71.3305 261.635C70.9044 252.787 69.107 244.08 67.8355 235.333C66.564 226.585 65.4922 217.785 64.507 208.991C63.4219 199.125 62.4633 189.239 61.4514 179.367C61.4514 179.3 61.3382 179.3 61.3449 179.367C62.8161 197.001 64.4537 214.649 66.8902 232.157C67.5027 236.515 68.1684 240.867 68.8873 245.212C69.6196 249.605 70.3386 254.006 70.6847 258.453C71.0309 262.9 71.0842 267.167 71.1241 271.534L71.2639 285.074C71.3571 295.106 71.457 310.544 71.5502 320.57C71.5502 320.61 71.5663 320.649 71.595 320.678C71.6237 320.707 71.6627 320.723 71.7033 320.723C71.7439 320.723 71.7828 320.707 71.8115 320.678C71.8403 320.649 71.8564 320.61 71.8564 320.57C71.7965 311.616 71.7299 297.263 71.6633 288.316Z" fill="#263238"/>
<path d="M50.86 175.819C50.86 175.819 64.0609 250.491 65.146 256.189C65.3923 257.488 65.5521 264.544 65.652 273.611L80.5305 175.819H50.86Z" fill="#263238"/>
<path d="M78.7397 350.347C77.1619 350.74 33.1189 347.019 31.5345 345.827C30.9287 345.381 31.0885 338.93 31.5345 331.181C31.5345 331.102 31.5345 331.015 31.5345 330.935C31.621 329.331 31.7142 327.68 31.8341 326.009C31.8341 325.776 31.8341 325.55 31.874 325.343C32.6063 314.119 33.6115 302.483 33.6115 302.483L63.069 304.826L60.5593 327.4L60.4661 328.299L59.9535 332.959L59.8935 333.452C59.8935 333.452 76.1168 342.405 77.7211 343.916C79.3255 345.428 80.324 349.968 78.7397 350.347Z" fill="#DD6A57"/>
<path d="M78.7397 350.347C77.1553 350.74 33.1256 347.018 31.5345 345.827C31.0153 345.447 31.0552 340.681 31.3481 334.457C38.165 336.201 71.0375 344.442 72.0494 341.779C72.2557 341.2 71.5568 340.348 70.6115 339.516C74.0199 341.513 77.0888 343.33 77.7478 343.943C79.3322 345.434 80.3174 349.961 78.7397 350.347Z" fill="#D08CE6"/>
<path d="M61.225 330.789L30.1033 329.457C30.1033 329.457 38.5977 261.169 38.7574 256.969C38.9904 250.731 41.9795 224.975 44.4958 204.125C44.4958 204.125 39.7294 192.808 48.6498 175.779H84.4115C84.4115 175.779 82.015 192.009 77.9076 202.301C75.1521 203.263 72.4913 204.478 69.9591 205.929C69.9591 205.929 66.3975 252.422 66.2644 258.22C66.0181 269.697 61.225 330.789 61.225 330.789Z" fill="#37474F"/>
<path d="M60.4061 325.084C55.5597 324.777 56.951 324.797 52.098 324.544C49.7215 324.418 34.124 323.626 31.8739 323.879C31.8273 323.879 31.8207 323.965 31.8739 323.972C34.0774 324.438 49.7015 324.964 52.0781 325.044C56.9377 325.203 55.5397 325.104 60.4061 325.203C60.4926 325.23 60.4993 325.09 60.4061 325.084Z" fill="#263238"/>
<path d="M51.0197 177.317C49.1757 181.311 47.4582 185.512 46.8124 189.892C46.3452 194.591 46.8691 199.335 48.3502 203.819C48.3502 203.819 48.0906 207.5 47.811 209.85C47.5314 212.2 47.2585 214.577 46.9855 216.94C46.4396 221.715 45.8893 226.49 45.3346 231.266C44.2428 240.763 43.1533 250.267 42.066 259.778C40.9786 269.289 39.9024 278.795 38.8373 288.297C37.7788 297.776 36.6471 307.249 35.7085 316.742C35.5886 317.927 35.4755 319.106 35.3623 320.291C35.3623 320.404 35.5554 320.43 35.5687 320.291C36.8335 310.818 37.912 301.325 39.0437 291.832C40.1754 282.339 41.2605 272.932 42.3722 263.479C43.4839 254.026 44.5757 244.48 45.6674 234.974C46.7459 225.607 47.9575 216.241 48.8828 206.861C48.9922 205.775 49.0189 204.682 48.9627 203.592C48.9627 203.592 46.9655 196.935 47.2119 192.622C47.4582 188.115 48.5433 184.693 50.1476 180.546C50.547 179.507 50.9664 178.469 51.3659 177.437C51.4458 177.257 51.1129 177.124 51.0197 177.317Z" fill="#263238"/>
<path d="M79.2789 201.642C76.0516 202.812 72.9331 204.262 69.959 205.976C69.9366 205.989 69.9199 206.01 69.912 206.035C69.9042 206.06 69.9058 206.087 69.9164 206.111C69.9271 206.135 69.9461 206.154 69.9699 206.164C69.9937 206.175 70.0206 206.177 70.0455 206.169C73.181 204.838 76.3764 203.506 79.4386 202.015C79.4786 201.988 79.5079 201.948 79.5215 201.902C79.5351 201.856 79.5322 201.806 79.5133 201.762C79.4943 201.718 79.4605 201.682 79.4177 201.66C79.3749 201.638 79.3258 201.632 79.2789 201.642Z" fill="#263238"/>
<path d="M74.8985 196.429C75.2047 194.559 75.4577 192.681 75.6174 190.797C75.9426 187.283 75.9047 183.745 75.5043 180.239C75.4989 180.22 75.4871 180.202 75.4709 180.19C75.4547 180.177 75.4348 180.171 75.4144 180.171C75.394 180.171 75.3741 180.177 75.3579 180.19C75.3417 180.202 75.3299 180.22 75.3245 180.239C75.4038 185.113 75.119 189.987 74.4724 194.818C74.1196 197.142 72.948 200.637 75.3778 200.989C77.8076 201.342 79.4519 195.504 79.7515 193.9C80.5253 189.337 80.7021 184.694 80.2774 180.086C80.2774 179.973 80.0777 179.953 80.0777 180.086C80.0779 183.586 79.9024 187.083 79.5518 190.564C79.4053 192.182 78.1072 201.109 75.3045 200.457C74.8386 200.344 74.5989 199.884 74.5257 199.179C74.5378 198.255 74.663 197.336 74.8985 196.443" fill="#263238"/>
<path d="M75.3845 200.683C75.1228 201.285 74.9004 201.903 74.7188 202.534C74.5377 203.019 74.4496 203.534 74.4592 204.052C74.4592 204.151 74.599 204.165 74.6523 204.098C74.9482 203.64 75.1727 203.139 75.318 202.614C75.531 202.041 75.7573 201.475 75.9837 200.896C75.9977 200.857 76.0038 200.815 76.0016 200.773C75.9995 200.732 75.9892 200.691 75.9712 200.653C75.9533 200.615 75.9281 200.582 75.8971 200.554C75.8661 200.526 75.83 200.504 75.7906 200.49C75.7513 200.476 75.7096 200.47 75.6679 200.472C75.6262 200.474 75.5853 200.485 75.5476 200.502C75.5099 200.52 75.4761 200.546 75.4481 200.577C75.4201 200.608 75.3985 200.644 75.3845 200.683Z" fill="#263238"/>
<path d="M65.2192 110.933C59.4276 115.899 61.0386 123.142 58.6221 127.076C57.1376 129.479 52.3179 132.015 51.3592 134.785C49.7882 139.332 53.6426 140.969 52.7772 143.439C51.5589 146.947 46.8657 146.674 46.0203 152.406C45.1748 158.138 51.4857 164.236 66.4508 165.887C81.4158 167.537 89.644 162.059 90.1765 157.192C90.7091 152.326 85.7363 150.708 85.3968 147.08C85.1837 144.757 88.2526 143.146 88.4124 138.872C88.5722 134.598 84.4182 133.214 83.8057 129.586C83.1933 125.958 85.1371 117.144 79.8115 112.643C74.4858 108.143 68.1017 108.476 65.2192 110.933Z" fill="#263238"/>
<path d="M65.8849 111.059C64.2643 112.209 62.9444 113.732 62.0371 115.499C61.0994 117.372 60.3823 119.347 59.9002 121.384C59.646 122.598 59.2552 123.78 58.7352 124.906C58.2256 125.846 57.5488 126.685 56.7381 127.382C55.1204 128.847 53.1899 129.959 51.732 131.609C50.2741 133.26 49.2888 135.251 49.8347 137.374C50.1343 138.533 50.8998 139.471 51.3725 140.55C51.8451 141.628 51.9983 142.84 51.1195 143.692C50.3739 144.418 49.2888 144.75 48.4567 145.343C47.6189 145.926 46.8815 146.641 46.2732 147.46C45.6553 148.271 45.2135 149.202 44.9762 150.194C44.7389 151.185 44.7113 152.215 44.8952 153.218C45.7806 157.878 50.1476 160.541 54.2151 162.185L55.9059 162.851C55.9925 162.884 56.0657 162.758 55.9792 162.718C51.9317 160.907 47.2318 158.784 45.6807 154.257C45.3249 153.274 45.1999 152.222 45.3153 151.184C45.4307 150.145 45.7835 149.146 46.3464 148.265C46.9186 147.392 47.645 146.629 48.49 146.015C49.3021 145.41 50.2408 145.043 51.0729 144.471C51.483 144.21 51.8167 143.846 52.0401 143.414C52.2634 142.983 52.3684 142.5 52.3444 142.014C52.2142 140.958 51.8355 139.947 51.2393 139.065C50.6127 138.14 50.2808 137.047 50.2874 135.93C50.4074 134.841 50.8216 133.805 51.4857 132.934C52.7438 131.15 54.6078 129.985 56.2787 128.634C57.9915 127.376 59.2673 125.614 59.9268 123.594C60.233 122.523 60.4261 121.424 60.6924 120.346C60.9383 119.345 61.2383 118.358 61.5911 117.39C62.2517 115.44 63.331 113.659 64.7532 112.171C65.1323 111.794 65.547 111.456 65.9914 111.159C66.0114 111.106 65.9648 111.026 65.8849 111.059Z" fill="#263238"/>
<path d="M90.8621 153.624C90.6842 152.835 90.3392 152.092 89.8503 151.447C89.331 150.782 88.6986 150.229 88.1194 149.623C87.5333 149.085 87.1092 148.393 86.8945 147.626C86.8018 146.688 87.037 145.747 87.5602 144.963C88.0631 144.125 88.5079 143.253 88.8916 142.354C89.222 141.459 89.4128 140.518 89.4575 139.565C89.5402 137.599 89.0149 135.656 87.953 133.999C87.4404 133.161 86.8679 132.368 86.3553 131.536C85.7823 130.631 85.3344 129.652 85.0239 128.627C84.3582 126.377 84.2051 123.967 83.6525 121.717C83.0731 119.355 82.2498 117.059 81.1961 114.867C81.1961 114.814 81.0896 114.867 81.1162 114.914C82.0369 116.878 82.7509 118.933 83.2465 121.045C83.7191 123.042 83.9122 125.092 84.2583 127.116C84.4138 128.111 84.668 129.087 85.0172 130.032C85.3844 130.905 85.8301 131.742 86.3487 132.535C87.3605 134.186 88.4057 135.81 88.6853 137.767C88.9637 139.691 88.6257 141.653 87.72 143.372C86.9345 144.857 85.8294 146.495 86.5151 148.239C87.1009 149.717 88.5122 150.602 89.4375 151.82C89.9306 152.493 90.2762 153.263 90.4517 154.078C90.6272 154.894 90.6287 155.737 90.4561 156.553C89.6439 160.741 85.4499 162.824 81.5156 163.031C81.4943 163.036 81.4755 163.049 81.4621 163.066C81.4486 163.084 81.4413 163.105 81.4413 163.127C81.4413 163.149 81.4486 163.171 81.4621 163.188C81.4755 163.206 81.4943 163.218 81.5156 163.224C84.9307 163.184 88.652 161.679 90.2563 158.477C91.0143 156.979 91.2284 155.263 90.8621 153.624Z" fill="#263238"/>
<path d="M73.8734 146.801C76.0036 152.42 85.9892 172.91 93.4851 174.515C101.866 176.305 118.116 169.855 128.568 165.355C132.322 163.73 123.162 150.776 119.035 149.264C116.558 148.352 99.3233 157.253 95.5088 157.253C93.3586 157.253 88.5122 149.338 78.9261 141.869C73.6803 137.734 71.0108 139.246 73.8734 146.801Z" fill="#DD6A57"/>
<path d="M125.925 166.133C128.168 165.467 140.83 161.812 143.38 160.142C145.929 158.471 152.899 152.985 151.788 150.902C150.676 148.818 148.512 150.236 148.512 150.236C148.512 150.236 151.095 147.453 149.764 145.456C148.432 143.459 145.15 145.802 145.15 145.802C145.15 145.802 147.594 142.767 146.149 140.869C144.704 138.972 141.775 141.881 141.775 141.881C141.775 141.881 144.139 139.218 142.288 138.147C140.064 136.875 136.263 142.287 133.308 143.958C132.642 144.338 119.168 150.702 119.168 150.702L125.925 166.133Z" fill="#DD6A57"/>
<path d="M142.048 141.635C139.246 145.63 137.335 146.861 132.908 148.699C132.822 148.732 132.862 148.872 132.955 148.838C137.448 147.44 140.071 146.216 142.275 141.762C142.354 141.542 142.188 141.449 142.048 141.635Z" fill="#263238"/>
<path d="M145.39 145.483C142.115 149.357 140.064 150.735 135.564 152.992C135.498 153.025 135.564 153.138 135.611 153.112C140.204 151.261 142.8 149.976 145.556 145.676C145.683 145.483 145.536 145.303 145.39 145.483Z" fill="#263238"/>
<path d="M148.279 150.329C144.838 153.851 142.641 155.455 138.001 157.093C137.989 157.096 137.979 157.101 137.969 157.108C137.96 157.115 137.952 157.124 137.946 157.134C137.935 157.155 137.931 157.18 137.938 157.203C137.944 157.225 137.959 157.245 137.979 157.257C138 157.269 138.024 157.272 138.047 157.266C142.947 156.061 145.703 154.07 148.372 150.442C148.559 150.196 148.492 150.103 148.279 150.329Z" fill="#263238"/>
<path d="M115.267 150.383C115.267 150.383 118.942 144.851 121.079 143.127C123.215 141.402 133.527 137.921 134.393 140.104C135.524 142.927 129.972 146.096 127.07 147.314C127.07 147.314 129.733 153.838 126.211 156.987C122.69 160.135 115.267 150.383 115.267 150.383Z" fill="#DD6A57"/>
<path d="M134.453 140.962C133.634 144.291 129.693 145.622 126.943 146.994C126.902 147.012 126.865 147.04 126.837 147.075C126.809 147.111 126.79 147.153 126.781 147.197C126.773 147.242 126.775 147.288 126.788 147.331C126.801 147.375 126.825 147.414 126.857 147.446C127.776 150.256 128.262 154.483 126.384 156.979C126.377 156.994 126.375 157.01 126.378 157.026C126.381 157.042 126.39 157.056 126.402 157.067C126.414 157.077 126.429 157.084 126.445 157.085C126.461 157.086 126.477 157.081 126.491 157.072C128.867 154.676 128.728 150.482 127.523 147.466C130.365 146.095 134.26 144.584 134.486 140.969L134.453 140.962Z" fill="#263238"/>
<path d="M89.371 176.052L93.8978 155.602C89.3361 150.549 84.4956 145.755 79.3988 141.242C72.0427 134.885 68.5411 135.564 72.9481 146.887C77.355 158.211 83.859 171.326 89.371 176.052Z" fill="#D08CE6"/>
<path d="M89.371 176.052L93.8978 155.602C89.3361 150.549 84.4956 145.755 79.3988 141.242C72.0427 134.885 68.5411 135.564 72.9481 146.887C77.355 158.211 83.859 171.326 89.371 176.052Z" fill="#D08CE6"/>
<path d="M91.3348 155.162C90.5559 157.958 89.8836 160.761 89.2978 163.603C89.0048 165.028 88.7319 166.459 88.4789 167.897C88.2193 169.355 88.0595 170.833 87.8132 172.304C87.8132 172.371 87.9064 172.384 87.9197 172.304C88.4523 169.441 89.0847 166.586 89.6705 163.723L91.408 155.175C91.448 155.129 91.3548 155.102 91.3348 155.162Z" fill="#263238"/>
<path d="M74.5391 150.103C74.7329 150.553 74.865 151.028 74.9318 151.514C74.9318 151.594 74.9318 151.674 74.9318 151.76C74.7854 151.388 74.6323 151.028 74.4792 150.662C74.483 150.474 74.503 150.287 74.5391 150.103ZM86.7082 148.851C86.5978 149.822 86.7376 150.805 87.1142 151.707C87.1843 151.224 87.1843 150.733 87.1142 150.249C87.0334 149.765 86.8855 149.295 86.6749 148.851H86.7082ZM82.5941 163.497C82.5241 163.978 82.5241 164.467 82.5941 164.948C82.6592 165.432 82.7914 165.905 82.9869 166.353C83.0602 165.869 83.0602 165.378 82.9869 164.895C82.9136 164.411 82.7701 163.94 82.5608 163.497H82.5941ZM86.4419 158.943C87.413 159.063 88.3984 158.923 89.2978 158.537C88.8143 158.467 88.3233 158.467 87.8399 158.537C87.3453 158.601 86.8629 158.738 86.4086 158.943H86.4419ZM71.4835 139.804C71.9671 139.871 72.4577 139.871 72.9414 139.804C73.4256 139.743 73.8985 139.613 74.346 139.418C73.8626 139.348 73.3716 139.348 72.8881 139.418C72.3933 139.48 71.9094 139.61 71.4502 139.804H71.4835ZM78.1405 158.79C78.136 158.803 78.136 158.817 78.1405 158.83C78.1566 158.8 78.17 158.769 78.1805 158.737C78.1553 158.751 78.1327 158.769 78.1139 158.79H78.1405ZM90.516 166.046C90.1292 166.345 89.7863 166.697 89.4975 167.092C89.1998 167.476 88.9599 167.902 88.7852 168.356C89.1713 168.062 89.5122 167.712 89.797 167.318C90.0955 166.93 90.3375 166.502 90.516 166.046ZM82.9536 155.295C82.6553 154.91 82.3059 154.568 81.9151 154.277C81.527 153.98 81.099 153.741 80.6436 153.564C81.2548 154.328 82.0496 154.923 82.9536 155.295ZM80.1909 144.498C79.8022 144.794 79.4571 145.144 79.1657 145.536C78.8674 145.922 78.6253 146.347 78.4468 146.801C79.2153 146.195 79.8157 145.402 80.1909 144.498Z" fill="white"/>
<path d="M72.9481 146.887C77.355 158.204 83.8323 171.325 89.371 176.052L91.235 167.631L71.3637 137.854C70.6114 139.065 71.0242 141.954 72.9481 146.887Z" fill="#263238"/>
<path d="M85.6697 181.038C85.6697 181.038 71.5301 184.367 44.7488 182.07C44.7488 182.07 55.2203 148.645 63.6548 139.632C67.4959 135.531 71.2439 136.157 74.4259 138.799C75.2181 139.465 85.0772 151.934 85.8827 156.287C86.6217 160.129 83.4995 164.396 83.4995 164.396L85.6697 181.038Z" fill="#D08CE6"/>
<path d="M74.8986 151.514C74.9686 151.995 74.9686 152.484 74.8986 152.965C74.7031 152.52 74.573 152.049 74.5125 151.567C74.4392 151.084 74.4392 150.593 74.5125 150.109C74.7056 150.557 74.8356 151.03 74.8986 151.514ZM75.1449 174.088C75.0781 174.572 75.0781 175.062 75.1449 175.546C75.2046 176.031 75.337 176.505 75.5377 176.951C75.6045 176.467 75.6045 175.976 75.5377 175.493C75.474 175.008 75.3418 174.535 75.1449 174.088ZM82.0882 178.422C81.9689 179.393 82.1091 180.378 82.4943 181.278C82.5611 180.794 82.5611 180.303 82.4943 179.82C82.4274 179.337 82.2906 178.866 82.0882 178.422ZM59.6007 158.617C59.5274 159.1 59.5274 159.592 59.6007 160.075C59.6612 160.557 59.7913 161.028 59.9868 161.473C60.0568 160.992 60.0568 160.503 59.9868 160.022C59.923 159.538 59.7931 159.065 59.6007 158.617ZM82.5609 163.497C82.4908 163.978 82.4908 164.467 82.5609 164.948C82.626 165.432 82.7582 165.905 82.9536 166.353C83.0269 165.869 83.0269 165.378 82.9536 164.895C82.891 164.412 82.7587 163.941 82.5609 163.497ZM65.9981 154.669C66.4816 154.739 66.9726 154.739 67.456 154.669C67.9402 154.608 68.4131 154.478 68.8606 154.283C68.3772 154.213 67.8862 154.213 67.4027 154.283C66.9191 154.347 66.4464 154.477 65.9981 154.669ZM57.6635 168.816C58.6368 168.936 59.6244 168.795 60.526 168.41C60.0426 168.34 59.5516 168.34 59.0681 168.41C58.5829 168.477 58.1099 168.614 57.6635 168.816ZM71.5434 167.691C72.0271 167.757 72.5177 167.757 73.0013 167.691C73.4855 167.629 73.9585 167.499 74.406 167.305C73.9225 167.235 73.4315 167.235 72.9481 167.305C72.4639 167.366 71.991 167.496 71.5434 167.691ZM46.3665 180.692C46.8479 180.759 47.3362 180.759 47.8177 180.692C48.3022 180.632 48.7754 180.502 49.2223 180.306C48.2512 180.187 47.2658 180.327 46.3665 180.712V180.692ZM71.4502 139.838C71.9339 139.904 72.4245 139.904 72.9081 139.838C73.3923 139.776 73.8653 139.646 74.3128 139.451C73.8293 139.381 73.3383 139.381 72.8549 139.451C72.373 139.506 71.9005 139.624 71.4502 139.804V139.838ZM66.737 142.394C66.3504 142.69 66.0075 143.04 65.7185 143.432C65.4208 143.819 65.1809 144.248 65.0062 144.704C65.391 144.405 65.7316 144.053 66.0181 143.659C66.3178 143.274 66.56 142.848 66.737 142.394ZM54.0886 160.454C53.7004 160.749 53.3573 161.099 53.0701 161.493C52.7703 161.88 52.5281 162.308 52.3511 162.764C53.1186 162.156 53.7168 161.361 54.0886 160.454ZM78.1472 158.77C77.759 159.065 77.4159 159.415 77.1287 159.809C76.8289 160.196 76.5867 160.624 76.4097 161.08C77.1772 160.472 77.7754 159.676 78.1472 158.77ZM66.1179 172.231C65.7329 172.529 65.3902 172.878 65.0994 173.269C64.8031 173.657 64.5633 174.085 64.3871 174.541C64.7739 174.242 65.1167 173.89 65.4056 173.496C65.7149 173.104 65.964 172.669 66.1446 172.204L66.1179 172.231ZM79.4321 145.203L79.1391 145.563C78.8394 145.947 78.5972 146.373 78.4202 146.827C78.8101 146.532 79.1534 146.18 79.4387 145.782C79.5053 145.689 79.5652 145.596 79.6384 145.503L79.4321 145.203ZM82.927 155.322C82.6287 154.937 82.2793 154.594 81.8885 154.303C81.5005 154.007 81.0724 153.767 80.617 153.591C81.2282 154.354 82.023 154.95 82.927 155.322ZM52.3045 172.104C52.0056 171.717 51.6538 171.375 51.2594 171.086C50.8749 170.786 50.4488 170.544 49.9945 170.367C50.2894 170.755 50.6392 171.098 51.0331 171.385C51.4343 171.675 51.8733 171.908 52.3378 172.078L52.3045 172.104ZM83.5927 172.63C82.9881 171.859 82.1915 171.26 81.2827 170.893C81.5781 171.283 81.9304 171.626 82.3279 171.911C82.7181 172.203 83.1487 172.436 83.606 172.604L83.5927 172.63ZM62.0105 151.714C61.7098 151.328 61.3583 150.986 60.9654 150.695C60.5806 150.398 60.1545 150.158 59.7005 149.983C59.9955 150.369 60.3454 150.71 60.739 150.995C61.1268 151.293 61.5549 151.535 62.0105 151.714ZM70.891 181.67C70.2799 180.907 69.4851 180.312 68.581 179.94C68.8759 180.328 69.2257 180.671 69.6195 180.958C70.0076 181.254 70.4357 181.494 70.891 181.67ZM68.2282 163.257C67.9438 162.867 67.6028 162.521 67.2164 162.232C66.8295 161.932 66.4012 161.69 65.9449 161.513C66.5534 162.28 67.3488 162.879 68.2549 163.25L68.2282 163.257ZM58.1827 178.049C57.5786 177.28 56.7849 176.681 55.8794 176.312C56.1742 176.7 56.524 177.043 56.9179 177.33C57.3099 177.628 57.7426 177.868 58.2027 178.042L58.1827 178.049Z" fill="white"/>
<path d="M80.7567 147.088C81.6174 148.244 82.4152 149.446 83.1466 150.689C82.847 149.99 82.5608 149.284 82.3145 148.559H82.3611C82.6207 149.071 82.887 149.577 83.1 150.11C83.313 150.642 83.4795 151.068 83.6592 151.548C84.4913 153.012 85.4633 154.49 85.8827 156.134C86.2347 157.618 86.2026 159.167 85.7895 160.635C85.5736 161.391 85.2791 162.123 84.9107 162.818C84.6193 163.449 84.2307 164.031 83.7591 164.542C84.032 166.08 84.2118 167.645 84.4248 169.202C84.6751 170.713 84.8329 172.239 84.8974 173.769C84.8974 173.79 84.889 173.811 84.874 173.825C84.859 173.84 84.8387 173.849 84.8175 173.849C84.7964 173.849 84.776 173.84 84.7611 173.825C84.7461 173.811 84.7377 173.79 84.7377 173.769L84.6378 173.449C84.6324 173.442 84.6294 173.432 84.6294 173.423C84.6294 173.413 84.6324 173.404 84.6378 173.396C84.343 171.982 84.1208 170.553 83.9721 169.116C83.7724 167.638 83.3996 164.562 83.3929 164.549C83.3863 164.536 84.0986 163.258 84.3715 162.672C84.7108 161.957 84.9827 161.213 85.1837 160.448C85.6101 159.01 85.6423 157.483 85.2769 156.028C84.7569 154.473 84.06 152.983 83.1999 151.588C82.3677 150.097 81.509 148.619 80.6502 147.141C80.6236 147.101 80.7168 147.054 80.7567 147.088Z" fill="#263238"/>
<path d="M61.4246 141.915C54.4347 151.381 41.0807 173.775 45.5609 178.708C52.9302 186.817 70.6513 193.673 76.1833 195.178C78.5666 195.844 86.5417 178.402 84.2783 177.051C81.5622 175.42 62.583 169.615 62.6362 168.004C62.6362 167.085 64.6334 159.403 66.2643 149.55C68.135 138.12 64.7598 137.408 61.4246 141.915Z" fill="#DD6A57"/>
<path d="M77.1619 175.519C77.1619 175.519 81.4357 174.135 85.9159 172.104C88.4123 170.973 92.8659 169.441 95.0827 169.441C98.4112 169.441 112.245 171.625 111.792 174.993C111.379 178.042 99.7226 174.667 99.7226 174.667C99.7226 174.667 111.818 177.01 110.62 180.592C109.422 184.173 96.7802 178.595 96.7802 178.595C96.7802 178.595 109.129 181.298 107.338 184.799C106.007 187.462 94.2239 183.055 94.2239 183.055C94.2239 183.055 104.822 185.458 103.544 188.234C102.139 191.31 91.0285 187.941 91.0285 187.941C86.6016 194.465 79.7515 197.008 74.9184 194.791C74.1396 194.452 77.1619 175.519 77.1619 175.519Z" fill="#DD6A57"/>
<path d="M95.5953 173.562C97.0266 173.789 98.4712 174.009 99.8758 174.361C101.28 174.714 102.672 175.114 104.036 175.6C105.83 176.193 107.55 176.991 109.162 177.976C106.173 176.438 101.174 175.094 99.7627 174.741C98.3514 174.388 96.98 173.969 95.582 173.616C95.5487 173.609 95.5621 173.562 95.5953 173.562Z" fill="#263238"/>
<path d="M94.2306 178.608C96.0413 178.975 97.852 179.274 99.6494 179.72C101.447 180.166 103.091 180.745 104.842 181.311C104.975 181.358 104.909 181.418 104.775 181.378C102.998 180.878 101.32 180.559 99.5429 180.08C97.7655 179.6 96.008 179.061 94.2173 178.648L94.2306 178.608Z" fill="#263238"/>
<path d="M92.2868 182.723C95.0756 183.221 97.806 184.004 100.435 185.059C100.568 185.112 100.475 185.172 100.335 185.132C97.639 184.307 95.5287 183.635 92.2668 182.822C92.2202 182.809 92.2268 182.716 92.2868 182.723Z" fill="#263238"/>
<path d="M88.5655 171.019C89.2774 170.596 90.026 170.237 90.8023 169.948C91.5177 169.648 92.2542 169.401 93.0057 169.209C94.6332 168.794 96.3297 168.726 97.9852 169.009C101.954 169.656 105.823 170.813 109.495 172.451C109.555 172.451 109.535 172.597 109.495 172.577C106.38 171.738 102.978 170.407 98.2182 169.688C96.5892 169.404 94.922 169.419 93.2986 169.735C92.466 169.927 91.6438 170.162 90.8355 170.44C90.1099 170.673 89.3976 170.993 88.6587 171.159C88.6402 171.171 88.6175 171.176 88.5956 171.172C88.5738 171.167 88.5545 171.154 88.5422 171.136C88.5298 171.117 88.5253 171.095 88.5297 171.073C88.5341 171.051 88.547 171.032 88.5655 171.019Z" fill="#263238"/>
<path d="M43.8301 175.492L63.2221 167.604C64.7919 160.981 65.9898 154.276 66.8102 147.52C67.8687 137.853 65.3191 135.357 58.5022 145.409C51.6854 155.461 44.5823 168.25 43.8301 175.492Z" fill="#D08CE6"/>
<path d="M59.4807 144.997C59.3835 144.783 59.3077 144.56 59.2544 144.331C59.3387 144.207 59.4253 144.087 59.514 143.972C59.5477 144.313 59.5365 144.658 59.4807 144.997ZM59.6006 158.617C59.5273 159.1 59.5273 159.592 59.6006 160.075C59.6611 160.557 59.7912 161.028 59.9867 161.473C60.0567 160.992 60.0567 160.503 59.9867 160.022C59.9229 159.538 59.793 159.066 59.6006 158.617ZM57.6634 168.816C58.6367 168.936 59.6243 168.796 60.5259 168.41C60.0425 168.34 59.5514 168.34 59.068 168.41C58.5828 168.478 58.1098 168.614 57.6634 168.816ZM53.4894 153.278L53.2497 153.671H53.4628C53.9471 153.611 54.4202 153.481 54.8674 153.285C54.4111 153.213 53.9464 153.211 53.4894 153.278ZM66.7369 142.394C66.3503 142.691 66.0074 143.04 65.7184 143.433C65.4207 143.82 65.1808 144.248 65.0061 144.704C65.3909 144.405 65.7315 144.053 66.018 143.659C66.3177 143.274 66.5599 142.848 66.7369 142.394ZM54.0885 160.455C53.7003 160.749 53.3572 161.099 53.07 161.493C52.7702 161.88 52.528 162.308 52.351 162.765C53.1185 162.156 53.7167 161.361 54.0885 160.455ZM52.3111 172.104C52.0122 171.718 51.6604 171.375 51.2659 171.086C50.8814 170.786 50.4554 170.544 50.0011 170.367C50.2959 170.755 50.6458 171.098 51.0396 171.386C51.4388 171.674 51.8755 171.907 52.3377 172.078L52.3111 172.104ZM62.0104 151.714C61.7097 151.329 61.3581 150.986 60.9653 150.695C60.5805 150.398 60.1544 150.158 59.7004 149.983C59.9954 150.369 60.3452 150.71 60.7389 150.995C61.1267 151.293 61.5548 151.535 62.0104 151.714Z" fill="white"/>
<path d="M66.6371 153.511C66.3649 154.072 66.1422 154.655 65.9714 155.255C65.8982 155.455 65.8383 155.661 65.7717 155.861C65.9381 154.742 66.0979 153.617 66.251 152.492C66.251 152.419 66.1512 152.386 66.1379 152.492C65.6452 155.029 63.3885 166.931 63.2886 167.544C63.2287 167.544 62.6229 167.897 62.5896 167.89C62.5564 167.883 62.5896 168.017 62.6362 167.99C62.6828 167.963 63.4151 167.637 63.4151 167.63C63.6614 167.091 65.4122 158.011 65.6119 156.906C65.639 156.858 65.6634 156.81 65.6852 156.759C65.7451 156.6 65.7983 156.44 65.8583 156.287C65.9714 155.994 66.0646 155.701 66.1711 155.408C66.4028 154.807 66.5919 154.191 66.737 153.564C66.744 153.551 66.7456 153.535 66.7412 153.521C66.7368 153.507 66.7269 153.495 66.7137 153.488C66.7004 153.48 66.6849 153.479 66.6706 153.483C66.6562 153.488 66.6442 153.498 66.6371 153.511Z" fill="#263238"/>
<path d="M62.8759 165.421C62.1073 165.6 61.3494 165.822 60.6058 166.087C59.8536 166.326 59.0946 166.546 58.3424 166.792C56.8978 167.265 55.4666 167.778 54.0353 168.31C51.1592 169.342 48.3374 170.52 45.5808 171.838C45.5209 171.838 45.5808 171.965 45.6274 171.945C48.5499 170.92 51.4257 169.761 54.3282 168.676L58.6153 167.085L60.7523 166.273C61.4646 166.013 62.2301 165.807 62.9091 165.481C62.9491 165.468 62.9158 165.414 62.8759 165.421Z" fill="#263238"/>
<path d="M67.1297 138.559C67.2894 139.285 70.6779 143.998 73.9731 143.885C75.0449 143.845 75.0915 137.973 75.0915 137.973L75.1914 137.541L76.616 131.483L69.5329 126.823L68.5143 126.21C68.5143 126.21 68.2281 127.895 67.9019 129.992C67.9019 130.085 67.8686 130.185 67.8553 130.291C67.842 130.398 67.8087 130.518 67.7954 130.631C67.7421 130.944 67.6889 131.296 67.6423 131.583C67.5957 131.869 67.5691 132.062 67.5424 132.322C67.5158 132.581 67.4825 132.828 67.4426 133.081C67.2108 134.897 67.1063 136.728 67.1297 138.559Z" fill="#DD6A57"/>
<path d="M67.882 129.992C68.4801 131.707 69.4452 133.271 70.7099 134.575C71.9746 135.878 73.5086 136.891 75.2047 137.541L76.6293 131.483L69.5462 126.823L68.5277 126.21C68.5277 126.21 68.2281 127.895 67.882 129.992Z" fill="#263238"/>
<path d="M85.3701 121.904C86.7681 132.735 80.4439 134.798 78.1072 135.098C75.9836 135.371 68.7341 136.03 66.2177 125.399C63.7014 114.767 68.2947 110.7 73.1078 109.815C77.9208 108.929 83.9655 111.106 85.3701 121.904Z" fill="#DD6A57"/>
<path d="M83.5992 120.232C83.3472 120.219 83.0961 120.193 82.847 120.152C82.5787 120.165 82.314 120.088 82.0947 119.933C82.0364 119.87 82.0003 119.79 81.9919 119.704C81.9835 119.619 82.0032 119.533 82.0481 119.46C82.1581 119.329 82.3013 119.229 82.4629 119.171C82.6245 119.114 82.7985 119.101 82.9668 119.134C83.3192 119.148 83.6536 119.293 83.9054 119.54C83.9599 119.599 83.9959 119.673 84.009 119.752C84.0222 119.832 84.0118 119.913 83.9793 119.987C83.9468 120.06 83.8935 120.122 83.8259 120.166C83.7584 120.21 83.6796 120.233 83.5992 120.232Z" fill="#263238"/>
<path d="M76.1501 121.005C76.3916 120.94 76.6294 120.863 76.8624 120.772C77.12 120.722 77.354 120.589 77.5281 120.393C77.5736 120.321 77.5937 120.236 77.5853 120.151C77.5768 120.067 77.5403 119.988 77.4815 119.927C77.3459 119.82 77.184 119.752 77.0129 119.73C76.8419 119.707 76.668 119.732 76.5096 119.8C76.1701 119.888 75.8757 120.099 75.6841 120.393C75.6406 120.463 75.6195 120.546 75.6237 120.629C75.6279 120.712 75.657 120.792 75.7074 120.858C75.7578 120.925 75.8271 120.974 75.9061 121C75.9851 121.026 76.0701 121.028 76.1501 121.005Z" fill="#263238"/>
<path d="M78.1538 123.488C78.1538 123.488 78.1005 123.528 78.1072 123.561C78.227 124.293 78.2403 125.152 77.6079 125.485C77.6079 125.485 77.6079 125.532 77.6079 125.525C78.4134 125.305 78.3868 124.16 78.1538 123.488Z" fill="#263238"/>
<path d="M77.395 122.802C76.1968 122.869 76.4165 125.259 77.5282 125.199C78.6399 125.139 78.4002 122.749 77.395 122.802Z" fill="#263238"/>
<path d="M76.9356 122.975C76.7425 123.128 76.5561 123.381 76.3098 123.435C76.0635 123.488 75.7773 123.255 75.5642 123.035H75.5243C75.5642 123.488 75.7839 123.947 76.2765 123.967C76.7692 123.987 77.0155 123.554 77.0887 123.082C77.102 123.028 77.0155 122.909 76.9356 122.975Z" fill="#263238"/>
<path d="M82.2546 122.955C82.2546 122.955 82.3145 122.955 82.3212 123.015C82.3545 123.761 82.5275 124.599 83.2199 124.792V124.832C82.3877 124.786 82.1747 123.667 82.2546 122.955Z" fill="#263238"/>
<path d="M82.8538 122.123C84.0387 121.937 84.3316 124.32 83.2332 124.493C82.1348 124.666 81.8619 122.283 82.8538 122.123Z" fill="#263238"/>
<path d="M83.373 122.223C83.5727 122.323 83.7857 122.529 84.0387 122.516C84.2917 122.502 84.4648 122.223 84.6045 121.957C84.6045 121.957 84.6045 121.957 84.6445 121.957C84.7111 122.409 84.6445 122.902 84.1918 123.042C83.7391 123.181 83.4595 122.815 83.2931 122.376C83.2399 122.316 83.2865 122.176 83.373 122.223Z" fill="#263238"/>
<path d="M78.6265 129.573C78.8129 129.739 78.9993 129.972 79.2922 129.979C79.5667 129.962 79.8345 129.887 80.0777 129.759C80.0777 129.759 80.131 129.759 80.1177 129.759C80.0178 129.91 79.8791 130.031 79.7163 130.109C79.5534 130.188 79.3724 130.221 79.1924 130.205C79.0392 130.173 78.8989 130.096 78.7888 129.985C78.6788 129.874 78.6038 129.733 78.5732 129.579C78.5333 129.566 78.5999 129.553 78.6265 129.573Z" fill="#263238"/>
<path d="M81.4424 126.583C81.4424 126.583 81.7087 127.669 81.762 128.188C81.762 128.241 81.6421 128.274 81.4691 128.301C81.0309 128.43 80.5658 128.435 80.1244 128.318C79.6831 128.201 79.2824 127.965 78.966 127.635C78.9261 127.589 78.966 127.529 79.0392 127.555C79.7485 127.941 80.5638 128.086 81.3625 127.968C81.3625 127.822 80.8433 126.124 80.9298 126.104C81.3383 126.101 81.7454 126.15 82.1414 126.251C81.6488 123.967 80.81 121.777 80.344 119.5C80.343 119.484 80.3472 119.468 80.356 119.455C80.3649 119.442 80.3778 119.432 80.3929 119.426C80.408 119.421 80.4244 119.421 80.4396 119.426C80.4548 119.431 80.468 119.441 80.4771 119.454C81.4625 121.77 82.214 124.178 82.7206 126.643C82.7738 126.93 81.6621 126.65 81.4424 126.583Z" fill="#263238"/>
<path d="M67.2497 125.678C69.0071 125.618 68.9938 121.916 68.9938 121.916C68.9938 121.916 72.5354 121.53 73.1278 116.305C73.2009 117.842 72.8213 119.368 72.0361 120.692C72.0361 120.692 78.2072 119.327 80.2509 113.808C80.2509 113.808 79.4986 116.584 78.6199 117.643C80.1503 116.981 81.4106 115.819 82.1948 114.347C82.1948 114.347 83.6327 117.237 84.5647 117.975C84.5647 117.975 83.0735 107.078 73.0812 109.381C73.0812 109.381 66.7903 110.52 65.0928 115.792C63.3952 121.064 67.2497 125.678 67.2497 125.678Z" fill="#263238"/>
<path d="M76.5762 127.702C75.9425 127.706 75.3201 127.533 74.7798 127.202C74.2395 126.871 73.8028 126.395 73.5195 125.828C73.2362 125.261 73.1176 124.626 73.1771 123.995C73.2366 123.364 73.4718 122.763 73.8561 122.259C74.2403 121.755 74.7582 121.369 75.3509 121.144C75.9436 120.92 76.5873 120.866 77.209 120.989C77.8306 121.113 78.4053 121.408 78.8677 121.841C79.3301 122.274 79.6617 122.829 79.8248 123.441C80.0541 124.311 79.9283 125.237 79.4752 126.015C79.022 126.793 78.2786 127.359 77.4083 127.588C77.1363 127.659 76.857 127.697 76.5762 127.702ZM76.5362 121.371C76.2915 121.373 76.0479 121.404 75.8106 121.464C75.0839 121.651 74.4559 122.108 74.0545 122.742C73.6531 123.376 73.5085 124.14 73.6502 124.877C73.7918 125.613 74.2091 126.269 74.817 126.709C75.4249 127.149 76.1776 127.34 76.9219 127.245C77.6662 127.149 78.3461 126.773 78.823 126.194C79.3 125.615 79.5381 124.875 79.489 124.127C79.4398 123.378 79.107 122.676 78.5584 122.164C78.0098 121.652 77.2867 121.368 76.5362 121.371Z" fill="#D08CE6"/>
<path d="M84.2917 126.69C82.9603 126.69 81.8087 125.359 81.5823 123.621C81.4659 122.785 81.6125 121.934 82.0017 121.185C82.1488 120.852 82.3796 120.562 82.6715 120.345C82.9635 120.128 83.3067 119.989 83.6678 119.944C84.0289 119.898 84.3957 119.947 84.7325 120.085C85.0693 120.223 85.3647 120.446 85.5899 120.732C86.1528 121.363 86.5043 122.154 86.5951 122.995C86.8281 124.846 85.8961 126.497 84.5114 126.67C84.4389 126.683 84.3654 126.69 84.2917 126.69ZM83.8923 120.379H83.7259C83.44 120.429 83.1701 120.546 82.9385 120.721C82.707 120.895 82.5205 121.123 82.3945 121.384C82.0517 122.053 81.926 122.811 82.035 123.555C82.2347 125.159 83.3198 126.35 84.4582 126.217C85.5965 126.084 86.3488 124.653 86.1424 123.042C86.0612 122.301 85.7518 121.603 85.257 121.045C85.0879 120.846 84.8793 120.684 84.6444 120.569C84.4095 120.454 84.1534 120.39 83.8923 120.379Z" fill="#D08CE6"/>
<path d="M79.7649 123.848L79.432 123.541C79.8847 123.049 80.9964 122.323 81.9284 123.095L81.6355 123.448C80.8034 122.749 79.8048 123.801 79.7649 123.848Z" fill="#D08CE6"/>
<path d="M65.5587 126.637L65.1327 126.484C65.2059 126.284 65.8783 124.533 66.8569 124.247C67.8355 123.961 73.201 123.748 73.4607 123.734V124.194C71.2922 124.239 69.1277 124.401 66.9767 124.68C66.3376 124.873 65.7385 126.158 65.5587 126.637Z" fill="#D08CE6"/>
<path d="M66.7171 129.4C66.8808 129.455 67.0507 129.491 67.223 129.506C67.395 129.533 67.5702 129.533 67.7422 129.506C67.9633 129.475 68.1748 129.396 68.3614 129.273C68.5099 129.182 68.6445 129.07 68.7608 128.94C68.9278 128.743 69.0585 128.517 69.1469 128.274L68.4213 125.385C68.4213 125.385 65.8916 122.057 64.3871 122.995C62.8826 123.934 64.8731 128.8 66.7171 129.4Z" fill="#DD6A57"/>
<path d="M64.9862 124.42V124.467C66.3176 124.933 66.9833 126.084 67.5226 127.282C67.4425 127.159 67.3368 127.054 67.2125 126.975C67.0882 126.895 66.9484 126.844 66.8024 126.824C66.6565 126.804 66.5079 126.815 66.3668 126.857C66.2257 126.9 66.0954 126.972 65.9848 127.069C65.9848 127.069 65.9848 127.149 66.0247 127.136C66.2453 127.054 66.4859 127.044 66.7128 127.106C66.9397 127.168 67.1414 127.299 67.2896 127.482C67.5453 127.786 67.7684 128.117 67.9553 128.467C68.0218 128.581 68.2282 128.507 68.1749 128.381C68.0951 126.703 66.737 124.493 64.9862 124.42Z" fill="#263238"/>
<path d="M66.8436 128.933C66.8674 129.03 66.9195 129.118 66.9932 129.186C67.0669 129.253 67.159 129.297 67.2578 129.313C67.3566 129.328 67.4577 129.313 67.5483 129.271C67.639 129.229 67.7151 129.161 67.7671 129.076C67.8191 128.99 67.8446 128.891 67.8404 128.791C67.8362 128.692 67.8026 128.595 67.7436 128.514C67.6847 128.434 67.6032 128.372 67.5093 128.338C67.4155 128.303 67.3135 128.297 67.2164 128.321C67.0865 128.354 66.9747 128.436 66.9051 128.551C66.8354 128.665 66.8133 128.803 66.8436 128.933Z" fill="white"/>
<path d="M65.7717 128.215C65.7968 128.305 65.8556 128.383 65.9362 128.431C66.0167 128.479 66.1127 128.495 66.2044 128.474C66.2971 128.452 66.3771 128.394 66.4271 128.313C66.477 128.232 66.4927 128.134 66.4707 128.042C66.4598 127.996 66.4399 127.953 66.4121 127.915C66.3843 127.877 66.3493 127.845 66.309 127.821C66.2686 127.797 66.2239 127.781 66.1774 127.774C66.1308 127.767 66.0834 127.77 66.038 127.782C65.9453 127.804 65.8652 127.862 65.8153 127.943C65.7654 128.024 65.7497 128.122 65.7717 128.215Z" fill="white"/>
<path d="M75.1049 138.44L73.4739 143.393L67.0831 137.667L65.5054 139.731C65.5054 139.731 72.0027 149.051 72.0093 148.625L73.7335 144.331L76.7957 147.047L76.0901 139.791L75.1049 138.44Z" fill="#EBEBEB"/>
<path d="M76.6494 143.446C76.4962 142.248 76.3698 141.043 76.1567 139.858C76.1567 139.818 76.0835 139.798 76.0768 139.858C75.9104 141.029 76.5295 145.596 76.5961 146.694C76.4696 146.581 73.7668 144.318 73.7469 144.358C73.3541 145.024 72.0893 148.172 72.0094 148.459C70.9842 146.974 67.0632 141.595 65.8716 140.21C65.8316 140.171 65.7717 140.21 65.7983 140.257C66.7237 141.828 71.9228 149.078 71.9894 149.051C72.6703 147.574 73.2703 146.06 73.7868 144.518C74.2528 145.017 76.9955 147.586 76.9955 147.407C76.9507 146.081 76.8351 144.759 76.6494 143.446Z" fill="#263238"/>
<path d="M200.883 149.351H123.888V248.195H200.883V149.351Z" fill="#EBEBEB"/>
<path d="M200.883 248.194L162.445 248.327L123.888 248.401H123.675V248.188L123.562 149.344V149.051H123.888L200.883 149.131H201.136V149.377L201.023 198.839L200.883 248.194ZM200.883 248.194L200.717 198.706L200.637 149.35L200.883 149.603L123.888 149.677L124.214 149.35L124.094 248.194L123.888 247.981L162.332 248.061L200.883 248.194Z" fill="#DBDBDB"/>
<path d="M132.309 170.48L162.386 170.4L192.462 170.48L162.386 170.554L132.309 170.48Z" fill="#C7C7C7"/>
<path d="M132.309 172.93L162.386 172.857L192.462 172.93L162.386 173.01L132.309 172.93Z" fill="#C7C7C7"/>
<path d="M132.309 175.386L162.386 175.306L192.462 175.386L162.386 175.459L132.309 175.386Z" fill="#C7C7C7"/>
<path d="M132.309 177.836L162.386 177.763L192.462 177.836L162.386 177.909L132.309 177.836Z" fill="#C7C7C7"/>
<path d="M132.309 180.292L162.386 180.212L192.462 180.292L162.386 180.366L132.309 180.292Z" fill="#C7C7C7"/>
<path d="M132.309 182.742L162.386 182.669L192.462 182.742L162.386 182.815L132.309 182.742Z" fill="#C7C7C7"/>
<path d="M132.309 185.192L162.386 185.119L192.462 185.192L162.386 185.272L132.309 185.192Z" fill="#C7C7C7"/>
<path d="M132.309 187.648L162.386 187.575L192.462 187.648L162.386 187.722L132.309 187.648Z" fill="#C7C7C7"/>
<path d="M132.309 190.098L162.386 190.025L192.462 190.098L162.386 190.178L132.309 190.098Z" fill="#C7C7C7"/>
<path d="M132.309 192.555L162.386 192.475L192.462 192.555L162.386 192.628L132.309 192.555Z" fill="#C7C7C7"/>
<path d="M132.309 195.004L162.386 194.931L192.462 195.004L162.386 195.084L132.309 195.004Z" fill="#C7C7C7"/>
<path d="M132.309 197.461L162.386 197.381L192.462 197.461L162.386 197.534L132.309 197.461Z" fill="#C7C7C7"/>
<path d="M132.309 199.911L162.386 199.837L192.462 199.911L162.386 199.991L132.309 199.911Z" fill="#C7C7C7"/>
<path d="M132.309 202.367L162.386 202.288L192.462 202.367L162.386 202.441L132.309 202.367Z" fill="#C7C7C7"/>
<path d="M132.309 204.817L162.386 204.744L192.462 204.817L162.386 204.897L132.309 204.817Z" fill="#C7C7C7"/>
<path d="M143.233 197.381H138.673V207.673H143.233V197.381Z" fill="#D08CE6"/>
<path d="M151.694 191.889H147.134V207.673H151.694V191.889Z" fill="#D08CE6"/>
<path d="M160.155 185.745H155.595V207.68H160.155V185.745Z" fill="#D08CE6"/>
<path d="M168.617 183.108H164.057V207.68H168.617V183.108Z" fill="#D08CE6"/>
<path d="M177.078 178.402H172.518V207.68H177.078V178.402Z" fill="#D08CE6"/>
<path d="M185.539 173.749H180.979V207.673H185.539V173.749Z" fill="#D08CE6"/>
<path d="M133.94 168.756L134.06 178.488L134.14 188.214C134.2 194.705 134.213 201.189 134.226 207.68L133.94 207.393H148.586L163.231 207.427L177.877 207.52L192.522 207.686L177.877 207.853L163.231 207.946H148.586H133.94H133.66V207.666C133.66 201.178 133.687 194.69 133.74 188.201L133.827 178.475L133.94 168.756Z" fill="#C7C7C7"/>
<path d="M143.233 209.737H138.673V210.15H143.233V209.737Z" fill="#C7C7C7"/>
<path d="M151.694 209.737H147.134V210.15H151.694V209.737Z" fill="#C7C7C7"/>
<path d="M160.155 209.737H155.595V210.15H160.155V209.737Z" fill="#C7C7C7"/>
<path d="M168.617 209.737H164.057V210.15H168.617V209.737Z" fill="#C7C7C7"/>
<path d="M177.078 209.737H172.518V210.15H177.078V209.737Z" fill="#C7C7C7"/>
<path d="M185.539 209.737H180.979V210.15H185.539V209.737Z" fill="#C7C7C7"/>
<path d="M139.186 198.68C141.413 198.646 143.636 198.479 145.843 198.18C148.056 197.892 150.254 197.492 152.427 196.982C156.761 196.004 160.966 194.523 164.955 192.568C168.956 190.641 172.647 188.128 175.906 185.112L176.525 184.553L177.111 183.961L178.269 182.769C178.988 181.924 179.761 181.118 180.413 180.22C181.795 178.47 183.045 176.621 184.154 174.688H184.187C181.157 180.737 176.643 185.92 171.066 189.752C169.22 191.034 167.28 192.173 165.261 193.161C157.142 197.042 148.215 198.934 139.219 198.68H139.186Z" fill="#263238"/>
<path d="M185.432 177.876L184.8 178.036L184.021 174.92L180.972 175.925L180.772 175.306L184.487 174.088L185.432 177.876Z" fill="#263238"/>
<path d="M131.024 225.514H193.747V222.978H131.024V225.514Z" fill="#DBDBDB"/>
<path d="M131.024 231.924H166.34V229.388H131.024V231.924Z" fill="#DBDBDB"/>
<path d="M144.724 162.811H180.04V160.275H144.724V162.811Z" fill="#DBDBDB"/>
<path d="M186.331 272.293L110.907 287.791L91.0153 190.971L147.014 179.467L170.228 193.926L186.331 272.293Z" fill="#D08CE6"/>
<path opacity="0.8" d="M186.331 272.293L110.907 287.791L91.0153 190.971L147.014 179.467L170.228 193.926L186.331 272.293Z" fill="white"/>
<path d="M147.014 179.467L170.228 193.926L150.802 197.914L147.014 179.467Z" fill="#D08CE6"/>
<path d="M102.219 208.188L144.154 199.572L143.644 197.088L101.708 205.704L102.219 208.188Z" fill="#DBDBDB"/>
<path d="M103.505 214.461L145.441 205.846L144.93 203.361L102.995 211.977L103.505 214.461Z" fill="#DBDBDB"/>
<path d="M104.804 220.733L146.74 212.117L146.229 209.633L104.294 218.249L104.804 220.733Z" fill="#DBDBDB"/>
<path d="M106.092 227.01L167.532 214.387L167.022 211.902L105.582 224.525L106.092 227.01Z" fill="#DBDBDB"/>
<path d="M107.502 232.954L168.971 220.409L168.463 217.924L106.995 230.468L107.502 232.954Z" fill="#DBDBDB"/>
<path d="M108.671 239.556L170.111 226.933L169.6 224.449L108.161 237.072L108.671 239.556Z" fill="#DBDBDB"/>
<path d="M109.965 245.834L171.405 233.211L170.894 230.727L109.455 243.35L109.965 245.834Z" fill="#DBDBDB"/>
<path d="M111.251 252.107L172.691 239.484L172.18 237L110.741 249.623L111.251 252.107Z" fill="#DBDBDB"/>
<path d="M112.539 258.388L173.978 245.765L173.468 243.28L112.028 255.903L112.539 258.388Z" fill="#DBDBDB"/>
<path d="M113.825 264.66L175.264 252.038L174.754 249.553L113.314 262.176L113.825 264.66Z" fill="#DBDBDB"/>
<path d="M115.124 270.932L176.564 258.31L176.053 255.825L114.614 268.448L115.124 270.932Z" fill="#DBDBDB"/>
<path d="M116.412 277.212L177.851 264.589L177.341 262.105L115.901 274.728L116.412 277.212Z" fill="#DBDBDB"/>
<path d="M287.402 254.169C258.271 249.229 229.47 244.296 201 239.37C204.721 203.229 222.962 167.115 222.03 131C251.161 135.94 279.962 140.879 308.432 145.819C304.737 181.933 286.47 218.068 287.402 254.169Z" fill="#D08CE6"/>
<path opacity="0.8" d="M287.402 254.169C258.271 249.229 229.47 244.296 201 239.37C204.721 203.229 222.962 167.115 222.03 131C251.161 135.94 279.962 140.879 308.432 145.819C304.737 181.933 286.47 218.068 287.402 254.169Z" fill="white"/>
<path d="M229.193 148.408C244.983 151.155 260.7 153.902 276.345 156.65C276.185 157.582 276.018 158.507 275.845 159.432C260.232 156.69 244.559 153.942 228.826 151.191C228.96 150.266 229.079 149.34 229.193 148.408Z" fill="#DBDBDB"/>
<path d="M226.876 162.454L273.422 170.696C273.196 171.621 272.976 172.553 272.756 173.478C257.312 170.727 241.828 167.979 226.303 165.237C226.49 164.311 226.69 163.386 226.876 162.454Z" fill="#DBDBDB"/>
<path d="M225.358 169.471C248.045 173.5 270.657 177.526 293.194 181.547C292.947 182.472 292.694 183.397 292.441 184.329C269.909 180.308 247.326 176.285 224.692 172.26C224.892 171.335 225.112 170.409 225.358 169.471Z" fill="#DBDBDB"/>
<path d="M223.607 176.5C246.206 180.53 268.758 184.556 291.263 188.576C291.01 189.502 290.757 190.427 290.497 191.359L222.888 179.283C223.128 178.358 223.361 177.459 223.607 176.5Z" fill="#DBDBDB"/>
<path d="M221.757 183.524L289.319 195.6C289.066 196.525 288.806 197.45 288.554 198.382L221.004 186.307C221.257 185.381 221.51 184.449 221.757 183.524Z" fill="#DBDBDB"/>
<path d="M219.839 190.547L287.409 202.623C287.156 203.549 286.909 204.474 286.663 205.399C264.1 201.378 241.568 197.355 219.067 193.33C219.327 192.405 219.58 191.473 219.839 190.547Z" fill="#DBDBDB"/>
<path d="M217.902 197.57C240.421 201.591 262.977 205.614 285.571 209.64C285.338 210.572 285.105 211.497 284.906 212.422C262.272 208.401 239.691 204.378 217.163 200.353C217.37 199.428 217.643 198.496 217.902 197.57Z" fill="#DBDBDB"/>
<path d="M216.038 204.593C238.592 208.614 261.213 212.637 283.9 216.663C283.687 217.594 283.481 218.52 283.274 219.445C260.534 215.424 237.878 211.401 215.306 207.376C215.512 206.444 215.759 205.519 216.038 204.593Z" fill="#DBDBDB"/>
<path d="M214.201 211.617C236.835 215.638 259.553 219.661 282.356 223.686C282.169 224.618 281.996 225.543 281.823 226.469C258.936 222.448 236.169 218.425 213.522 214.399C213.742 213.467 213.968 212.542 214.201 211.617Z" fill="#DBDBDB"/>
<path d="M212.543 218.633C235.275 222.663 258.131 226.688 281.111 230.709C280.958 231.635 280.818 232.567 280.685 233.492C257.625 229.471 234.711 225.439 211.944 221.396C212.137 220.491 212.337 219.565 212.543 218.633Z" fill="#DBDBDB"/>
<path d="M211.092 225.656C233.961 229.682 256.97 233.707 280.119 237.732C280.012 238.657 279.919 239.589 279.833 240.515C256.577 236.485 233.5 232.46 210.599 228.439C210.752 227.514 210.919 226.588 211.092 225.656Z" fill="#DBDBDB"/>
<path d="M293.729 226.266H144.418V334.497H293.729V226.266Z" fill="#D08CE6"/>
<path d="M197.175 215.056H144.418V226.266H200.204L197.175 215.056Z" fill="#D08CE6"/>
<g opacity="0.1">
<path d="M293.729 226.266H144.418V334.497H293.729V226.266Z" fill="black"/>
<path d="M197.175 215.056H144.418V226.266H200.204L197.175 215.056Z" fill="black"/>
</g>
<path d="M239.095 250.944C254.686 255.546 270.361 260.164 286.12 264.797C285.887 265.649 285.654 266.501 285.455 267.353C269.624 262.707 253.9 258.082 238.283 253.48C238.536 252.635 238.815 251.789 239.095 250.944Z" fill="#DBDBDB"/>
<path d="M237.058 257.341C252.751 261.957 268.552 266.595 284.463 271.255C284.263 272.107 284.07 272.965 283.884 273.818C267.907 269.144 252.047 264.498 236.306 259.878C236.552 259.032 236.798 258.187 237.058 257.341Z" fill="#DBDBDB"/>
<path d="M235.234 263.746C251.051 268.383 267.006 273.043 283.098 277.725C282.938 278.578 282.785 279.436 282.645 280.295C266.469 275.595 250.445 270.924 234.575 266.282C234.788 265.443 235.007 264.591 235.234 263.746Z" fill="#DBDBDB"/>
<path d="M229.875 251.01L224.203 249.346L225.062 246.816L230.727 248.487C230.441 249.326 230.154 250.172 229.875 251.01Z" fill="#D08CE6"/>
<path d="M227.858 257.401L222.146 255.724C222.406 254.885 222.672 254.039 222.938 253.194L228.637 254.871C228.37 255.71 228.111 256.556 227.858 257.401Z" fill="#455A64"/>
<path d="M226.06 263.799L220.329 262.115C220.555 261.269 220.788 260.43 221.028 259.585L226.766 261.263C226.513 262.106 226.278 262.951 226.06 263.799Z" fill="#DBDBDB"/>
<path d="M293.337 334.497H144.025L132.509 235.247H281.82L293.337 334.497Z" fill="#D08CE6"/>
<path d="M184.074 224.968H131.317L132.509 235.247H188.295L184.074 224.968Z" fill="#D08CE6"/>
<path d="M237.331 280.434H271.541C272.542 278.295 273.119 275.983 273.239 273.624V246.244H239.028V274.004C239.028 276.753 237.331 280.434 237.331 280.434Z" fill="#455A64"/>
<path d="M243.216 254.312C247.21 253.979 251.264 253.906 255.285 253.886C259.306 253.866 263.333 253.979 267.354 254.312C263.36 254.638 259.306 254.718 255.285 254.731C251.264 254.745 247.236 254.638 243.216 254.312Z" fill="white"/>
<path d="M243.216 258.819C246.837 258.493 250.452 258.413 254.073 258.393C257.695 258.373 261.309 258.487 264.924 258.819C261.309 259.152 257.688 259.225 254.073 259.245C250.458 259.265 246.837 259.152 243.216 258.819Z" fill="white"/>
<path d="M243.216 263.333C246.378 263 249.546 262.927 252.708 262.907C255.88 262.889 259.051 263.031 262.208 263.333C259.039 263.659 255.877 263.739 252.708 263.752C249.54 263.765 246.378 263.659 243.216 263.333Z" fill="white"/>
<path d="M243.216 267.839C247.21 267.513 251.264 267.433 255.285 267.413C259.306 267.393 263.333 267.507 267.354 267.839C263.36 268.172 259.306 268.245 255.285 268.265C251.264 268.285 247.236 268.172 243.216 267.839Z" fill="white"/>
<path d="M185.735 19.3513C187.84 14.3504 191.33 10.0547 195.793 6.96994C201.039 3.23272 207.164 0.919052 213.571 0.254643C221.035 -0.548421 228.58 0.555262 235.501 3.4624C242.038 5.881 247.942 9.75036 252.769 14.7795C256.951 19.1316 259.855 24.5508 261.163 30.4435C262.368 35.9512 261.898 41.6935 259.814 46.932C258.399 50.7745 256.038 54.1979 252.948 56.885C250.182 59.2628 247.068 61.2039 243.715 62.641C240.497 64.01 234.806 66.1985 226.642 69.2064C224.733 69.9068 222.866 70.7176 221.051 71.6347C219.802 72.2474 218.634 73.0127 217.573 73.9131C216.73 74.6344 215.967 75.4434 215.295 76.3264C214.65 77.1808 213.586 78.6948 212.102 80.8233C209.104 85.56 205.182 86.959 200.335 85.0203C199.139 84.5818 198.041 83.9111 197.104 83.0468C196.168 82.1824 195.412 81.1415 194.879 79.9839C194.344 78.629 194.097 77.1776 194.154 75.7221C194.211 74.2666 194.57 72.8389 195.209 71.5298C197.694 64.5453 202.847 58.8314 209.539 55.6409C213.369 53.8569 217.286 52.266 221.276 50.8742C225.488 49.3753 228.576 48.1911 230.524 47.3517C232.457 46.5129 234.263 45.408 235.89 44.069C237.519 42.7393 238.775 41.0088 239.533 39.0475C240.3 37.1876 240.656 35.1836 240.576 33.1732C240.496 31.1627 239.982 29.1934 239.068 27.4007C237.062 23.4548 233.609 20.4366 229.43 18.9766C224.034 16.848 219.537 16.6432 215.939 18.362C211.571 20.6868 207.749 23.9164 204.727 27.8354C200.87 32.7219 196.613 34.2209 191.956 32.3322C190.65 31.8437 189.46 31.0892 188.462 30.1163C187.463 29.1435 186.678 27.9737 186.155 26.6812C185.603 25.5483 185.281 24.3168 185.209 23.0584C185.137 21.8 185.316 20.5398 185.735 19.3513ZM189.828 114.085C186.931 112.987 184.548 110.85 183.142 108.089C182.423 106.638 182.033 105.045 182.002 103.425C181.971 101.805 182.299 100.199 182.962 98.7208C183.503 97.2546 184.343 95.9174 185.43 94.7946C186.516 93.6718 187.825 92.7882 189.273 92.2003C190.725 91.5806 192.288 91.2611 193.867 91.2611C195.446 91.2611 197.009 91.5806 198.462 92.2003C199.915 92.7476 201.244 93.5813 202.37 94.6518C203.495 95.7224 204.394 97.008 205.013 98.4325C205.633 99.857 205.96 101.391 205.975 102.945C205.99 104.498 205.693 106.038 205.102 107.475C204.584 109.014 203.732 110.419 202.607 111.59C201.483 112.762 200.113 113.67 198.596 114.25C195.758 115.304 192.625 115.245 189.828 114.085Z" fill="#D08CE6"/>
</svg>
