<svg width="511" height="329" viewBox="0 0 511 329" fill="none" xmlns="http://www.w3.org/2000/svg">
<path d="M331.001 26.8447L339.803 49.3694L334.335 49.3463L329.946 35.5004L331.001 26.8447Z" fill="#E0E0E0"/>
<path d="M300.945 6.0376L297.919 49.1925L329.161 49.8394L332.672 6.0376H300.945Z" fill="#EBEBEB"/>
<path d="M304.071 9.51835L301.545 45.4269L324.771 46.5204L328.021 9.30273L304.071 9.51835Z" fill="#FAFAFA"/>
<path d="M309.162 14.5928L307.283 39.8358H320.089L322.353 14.5928H309.162Z" fill="#E0E0E0"/>
<path d="M270.134 49.4618V27.8535H285.952V49.4464L270.134 49.4618Z" fill="#EBEBEB"/>
<path d="M279.129 27.8536C279.129 27.8536 282.941 -0.0384639 281.87 3.98277e-05C280.8 0.0385435 278.12 25.4125 278.12 25.4125C278.12 25.4125 277.997 4.40486 277.003 4.51267C276.01 4.62048 277.003 26.7755 277.003 26.7755C277.003 26.7755 275.278 8.80199 274.354 9.23323C273.43 9.66447 274.747 27.8536 274.747 27.8536H279.129Z" fill="#E0E0E0"/>
<path d="M276.249 27.8536C276.249 27.8536 277.573 13.9537 277.997 14.9009C278.42 15.8481 277.997 23.1792 277.997 23.1792C277.997 23.1792 281.654 5.21339 282.617 5.82945C283.58 6.44551 278.867 25.3277 278.867 25.3277C278.867 25.3277 282.44 14.5467 283.225 15.6787C284.011 16.8107 280.307 26.9295 280.307 26.9295C280.307 26.9295 284.157 19.7755 284.404 20.7689C284.65 21.7623 282.571 27.8844 282.571 27.8844L276.249 27.8536Z" fill="#EBEBEB"/>
<path d="M273.992 27.9385C273.992 27.9385 265.521 11.3357 266.584 11.8516C267.647 12.3676 273.037 23.087 273.037 23.087C273.037 23.087 269.457 12.7218 270.242 12.4215C271.028 12.1212 274.955 24.0496 274.955 24.0496L275.833 27.9385H273.992Z" fill="#F5F5F5"/>
<path d="M277.457 27.8921L277.85 49.4926H270.334L270.188 27.8228L277.457 27.8921Z" fill="#E0E0E0"/>
<path d="M270.15 29.763L277.435 29.8862L285.952 29.763L286.221 27.6992H269.942L270.15 29.763Z" fill="#E0E0E0"/>
<path d="M364.876 48.8613H254.117V54.5676H364.876V48.8613Z" fill="#E0E0E0"/>
<path d="M66.981 299.205V302.939H56.6389V298.866L66.981 299.205Z" fill="#F5F5F5"/>
<path d="M66.981 306.074H56.3V307.598H66.981V306.074Z" fill="#F5F5F5"/>
<path d="M401.686 285.636H384.059V292.636H401.686V285.636Z" fill="white"/>
<path d="M398.444 313.805H380.817V320.805H398.444V313.805Z" fill="white"/>
<path d="M510.112 324.795C510.112 324.902 395.91 324.995 255.072 324.995C114.233 324.995 0 324.902 0 324.795C0 324.687 114.179 324.602 255.072 324.602C395.964 324.602 510.112 324.679 510.112 324.795Z" fill="#263238"/>
<path d="M151.92 117.76L157.357 210.469C157.449 212.06 158.145 213.556 159.303 214.651C160.461 215.746 161.993 216.357 163.587 216.36L330.462 216.869C331.284 216.872 332.098 216.713 332.858 216.401C333.619 216.089 334.31 215.63 334.893 215.051C335.476 214.472 335.939 213.783 336.255 213.025C336.572 212.266 336.736 211.453 336.738 210.631L336.961 138.444C336.963 137.619 336.802 136.801 336.487 136.038C336.172 135.276 335.709 134.583 335.125 133.999C334.541 133.416 333.847 132.954 333.084 132.64C332.321 132.325 331.503 132.165 330.677 132.168L228.05 132.515C227.228 132.518 226.414 132.359 225.655 132.047C224.895 131.735 224.204 131.277 223.622 130.697L205.841 113.078C204.672 111.921 203.096 111.269 201.451 111.261L158.189 111.13C157.334 111.128 156.488 111.302 155.703 111.639C154.918 111.977 154.21 112.471 153.623 113.092C153.036 113.713 152.582 114.447 152.289 115.25C151.996 116.053 151.871 116.907 151.92 117.76Z" fill="#D08CE6"/>
<path opacity="0.3" d="M151.92 117.76L157.357 210.469C157.449 212.06 158.145 213.556 159.303 214.651C160.461 215.746 161.993 216.357 163.587 216.36L330.462 216.869C331.284 216.872 332.098 216.713 332.858 216.401C333.619 216.089 334.31 215.63 334.893 215.051C335.476 214.472 335.939 213.783 336.255 213.025C336.572 212.266 336.736 211.453 336.738 210.631L336.961 138.444C336.963 137.619 336.802 136.801 336.487 136.038C336.172 135.276 335.709 134.583 335.125 133.999C334.541 133.416 333.847 132.954 333.084 132.64C332.321 132.325 331.503 132.165 330.677 132.168L228.05 132.515C227.228 132.518 226.414 132.359 225.655 132.047C224.895 131.735 224.204 131.277 223.622 130.697L205.841 113.078C204.672 111.921 203.096 111.269 201.451 111.261L158.189 111.13C157.334 111.128 156.488 111.302 155.703 111.639C154.918 111.977 154.21 112.471 153.623 113.092C153.036 113.713 152.582 114.447 152.289 115.25C151.996 116.053 151.871 116.907 151.92 117.76Z" fill="black"/>
<path d="M208.693 76.2854L153.819 148.318L211.407 192.188L266.281 120.156L208.693 76.2854Z" fill="white"/>
<path d="M208.69 76.2759L208.436 76.6301L207.666 77.6389C206.988 78.5399 205.995 79.849 204.709 81.5663L193.519 96.3363L153.961 148.416L153.922 148.17L211.524 192.018L211.239 192.056L266.137 120.047L266.176 120.278L224.446 88.3814L212.802 79.4563L209.722 77.0999L208.69 76.2759L209.737 77.046L212.817 79.3562L224.461 88.1889L266.384 120.008L266.515 120.108L266.415 120.247L211.57 192.303L211.447 192.465L211.285 192.341L153.714 148.447L153.576 148.339L153.684 148.193L193.458 96.1284L204.701 81.4431L207.673 77.5927L208.443 76.607L208.69 76.2759Z" fill="#263238"/>
<path d="M210.352 81.6211L159.333 148.594L209.674 186.944L260.693 119.971L210.352 81.6211Z" fill="#263238"/>
<path d="M209.676 187.729L196.199 140.5L226.818 140.924L223.837 123.12L260.693 120.755L209.676 187.729Z" fill="#455A64"/>
<path d="M204.977 127.978C208.605 127.483 211.145 124.141 210.65 120.513C210.155 116.884 206.812 114.344 203.184 114.839C199.556 115.335 197.016 118.677 197.511 122.305C198.006 125.934 201.349 128.473 204.977 127.978Z" fill="#455A64"/>
<path d="M220.885 75.4961L216.736 176.175L342.667 181.365L346.816 80.6861L220.885 75.4961Z" fill="white"/>
<path d="M346.787 80.6655H346.187L344.431 80.6039L337.6 80.3421L311.834 79.3333L220.849 75.6754L221.034 75.506C219.81 105.47 218.4 139.823 216.914 176.178L216.722 175.97L342.683 181.176L342.513 181.337C343.799 150.996 344.862 125.846 345.594 108.28C345.979 99.4861 346.279 92.5862 346.479 87.8888C346.587 85.5401 346.664 83.7381 346.718 82.4983C346.772 81.2584 346.81 80.6501 346.81 80.6501C346.81 80.6501 346.81 81.2585 346.756 82.4675C346.703 83.6765 346.641 85.4708 346.556 87.8041C346.371 92.5015 346.102 99.3552 345.786 108.165C345.085 125.761 344.077 150.95 342.86 181.322V181.484H342.683L216.706 176.363H216.506V176.162C218.008 139.807 219.432 105.454 220.672 75.4906V75.3135H220.849L311.941 79.1638L337.662 80.2728L344.454 80.5731L346.194 80.6501L346.787 80.6655Z" fill="#263238"/>
<path d="M224.96 82.0103L221.333 170.017L338.416 174.842L342.043 86.8356L224.96 82.0103Z" fill="#455A64"/>
<path d="M221.319 170.002L264.459 116.982L288.385 152.252L306.32 134.663L338.401 174.823L221.319 170.002Z" fill="#263238"/>
<path d="M300.6 113.408C301.715 108.436 298.589 103.502 293.617 102.387C288.646 101.272 283.712 104.399 282.597 109.37C281.482 114.342 284.608 119.276 289.58 120.391C294.551 121.506 299.486 118.379 300.6 113.408Z" fill="#263238"/>
<path d="M352.886 123.943L182.3 147.431L200.365 272.367L369.551 248.534L352.886 123.943Z" fill="#EBEBEB"/>
<path d="M353.541 108.357L184.926 143.303L211.385 266.738L378.576 231.538L353.541 108.357Z" fill="#E0E0E0"/>
<path d="M338.648 94.5039L176.216 151.659L218.917 270.458L379.916 213.242L338.648 94.5039Z" fill="white"/>
<path d="M338.647 94.5039C339.094 95.7822 354.981 141.286 380.07 213.188L380.124 213.342L379.97 213.396L219.024 270.643L218.832 270.712L218.77 270.52L218.454 269.657C203.261 227.357 188.853 187.259 176.1 151.72L176.039 151.543L176.208 151.489L338.694 94.5039L176.277 151.828L176.385 151.597L218.793 269.519L219.109 270.389L218.847 270.266L379.862 213.088L379.762 213.296C354.857 141.324 339.094 95.7822 338.647 94.5039Z" fill="#263238"/>
<path d="M343.23 208.452C342.914 208.567 335.113 188.306 325.803 163.202C316.493 138.098 309.185 117.652 309.5 117.537C309.816 117.421 317.609 137.674 326.927 162.786C336.245 187.898 343.538 208.321 343.23 208.452Z" fill="#263238"/>
<path d="M329.353 214.789C329.045 214.905 321.236 194.644 311.926 169.548C302.616 144.451 295.315 123.99 295.623 123.875C295.931 123.759 303.74 144.02 313.058 169.124C322.376 194.228 329.668 214.674 329.353 214.789Z" fill="#263238"/>
<path d="M286.283 232.832C285.975 232.947 278.166 212.687 268.856 187.582C259.546 162.478 252.245 142.033 252.553 141.917C252.861 141.801 260.67 162.054 269.98 187.167C279.29 212.279 286.591 232.716 286.283 232.832Z" fill="#263238"/>
<path d="M300.013 227.303C299.697 227.419 291.896 207.158 282.586 182.054C273.276 156.949 265.968 136.504 266.284 136.388C266.6 136.273 274.393 156.526 283.711 181.638C293.028 206.75 300.329 227.188 300.013 227.303Z" fill="#263238"/>
<path d="M313.736 221.774C313.428 221.889 305.627 201.629 296.309 176.532C286.991 151.435 279.698 130.974 280.006 130.859C280.315 130.743 288.123 151.004 297.441 176.108C306.759 201.213 314.051 221.658 313.736 221.774Z" fill="#263238"/>
<path d="M270.38 237.406C270.072 237.522 262.264 217.261 252.954 192.157C243.644 167.052 236.343 146.607 236.651 146.491C236.959 146.376 244.768 166.629 254.086 191.741C263.404 216.853 270.696 237.291 270.38 237.406Z" fill="#263238"/>
<path d="M255.172 242.974C254.863 243.089 247.063 222.829 237.745 197.732C228.427 172.635 221.134 152.182 221.442 152.105C221.75 152.028 229.559 172.25 238.877 197.355C248.195 222.459 255.487 242.866 255.172 242.974Z" fill="#263238"/>
<path d="M239.97 248.557C239.655 248.672 231.854 228.411 222.536 203.315C213.218 178.218 205.925 157.757 206.241 157.642C206.557 157.526 214.35 177.787 223.668 202.891C232.986 227.996 240.263 248.441 239.97 248.557Z" fill="#263238"/>
<path d="M148.509 168.507L162.085 282.163C162.201 283.138 162.67 284.037 163.404 284.691C164.137 285.345 165.084 285.708 166.066 285.713L343.753 286.252C344.767 286.257 345.745 285.879 346.492 285.194C347.239 284.508 347.699 283.566 347.781 282.555L357.075 168.969C357.12 168.416 357.05 167.858 356.869 167.333C356.688 166.808 356.401 166.325 356.025 165.916C355.649 165.507 355.192 165.18 354.684 164.955C354.176 164.73 353.627 164.613 353.071 164.611L152.521 164.002C151.95 164.001 151.386 164.12 150.866 164.352C150.345 164.585 149.879 164.925 149.5 165.351C149.121 165.777 148.836 166.279 148.665 166.823C148.494 167.367 148.441 167.941 148.509 168.507Z" fill="#D08CE6"/>
<path d="M365.908 136.812L359.917 141.101L363.413 158.273L371.283 151.25L365.908 136.812Z" fill="#BF7A62"/>
<path d="M367.271 265.968L392.183 253.862L424.141 257.713C426.282 259.325 427.718 261.699 428.153 264.343C428.365 265.197 428.235 266.101 427.792 266.861C427.075 267.862 425.605 267.985 424.411 267.693C423.217 267.4 422.101 266.776 420.876 266.63C418.497 266.353 416.302 267.87 414.515 269.464C412.729 271.058 410.95 272.875 408.617 273.414C406.518 273.759 404.365 273.355 402.533 272.275C400.669 271.304 399.006 269.965 397.143 268.925C393.766 266.886 389.815 266.007 385.892 266.422C382.811 266.83 379.885 268.186 376.79 268.679C373.694 269.171 368.912 268.625 367.233 265.983" fill="#455A64"/>
<path d="M426.667 315.399C426.667 315.399 406.26 245.823 405.875 243.597C405.521 241.588 408.701 192.842 410.126 180.197L387.647 180.382V180.598L376.967 180.86L381.741 319.211L395.564 320.274L395.471 274.624C404.189 296.671 414.3 321.221 414.3 321.221L426.667 315.399Z" fill="#D89377"/>
<path d="M386.361 240.409C386.361 240.409 386.315 240.948 386.269 241.949C386.189 243.322 386.21 244.699 386.331 246.069C386.5 248.103 386.838 250.12 387.339 252.099C388.001 254.512 388.814 256.88 389.773 259.191C391.667 264.181 393.361 268.717 394.563 271.998C395.133 273.599 395.61 274.916 395.964 275.902C396.152 276.376 396.307 276.862 396.426 277.357C396.184 276.909 395.976 276.443 395.802 275.963C395.417 274.985 394.894 273.653 394.262 272.113C392.984 268.856 391.244 264.343 389.349 259.345C388.88 258.098 388.417 256.873 387.979 255.695C387.565 254.55 387.215 253.383 386.931 252.199C386.446 250.194 386.137 248.151 386.007 246.092C385.919 244.706 385.945 243.316 386.084 241.934C386.138 241.441 386.2 241.071 386.254 240.817C386.265 240.676 386.302 240.538 386.361 240.409Z" fill="#BF7A62"/>
<path d="M395.502 291.227C395.502 290.803 395.818 275.74 395.818 275.74C395.818 275.74 390.812 261.764 390.682 262.187C390.551 262.611 395.502 291.227 395.502 291.227Z" fill="#BF7A62"/>
<path d="M380.963 319.165V317.625L395.595 317.918L395.518 323.046L394.617 323.093C390.589 323.239 374.117 323.578 371.438 322.715C368.519 321.729 380.963 319.165 380.963 319.165Z" fill="#D08CE6"/>
<g opacity="0.3">
<path d="M390.296 322.823C390.533 321.595 391.216 320.497 392.214 319.743C393.191 318.992 394.414 318.638 395.641 318.749L395.571 322.823H390.296Z" fill="white"/>
</g>
<path opacity="0.3" d="M374.88 320.636C374.88 320.636 370.506 321.807 371.029 322.538C371.553 323.27 388.217 323.547 395.572 323.031V322.708L376.143 322.538C376.143 322.538 375.727 320.682 374.88 320.636Z" fill="white"/>
<path d="M395.818 322.699C395.734 322.709 395.648 322.709 395.564 322.699H394.848L392.191 322.769C389.95 322.807 386.854 322.83 383.435 322.769C380.016 322.707 376.92 322.591 374.679 322.476L372.03 322.322L371.314 322.268H372.03L374.687 322.368C376.928 322.453 380.016 322.553 383.435 322.607C386.854 322.661 389.95 322.669 392.191 322.661H394.848H395.564L395.818 322.699Z" fill="#263238"/>
<path d="M376.135 322.761C376.026 322.321 375.866 321.894 375.658 321.491C375.402 321.114 375.105 320.768 374.772 320.459C375.224 320.63 375.595 320.966 375.812 321.398C376.08 321.799 376.195 322.283 376.135 322.761Z" fill="#263238"/>
<path d="M380.478 320.651C380.432 320.651 380.232 320.42 380.024 320.081C379.875 319.889 379.772 319.665 379.723 319.427C379.77 319.427 379.97 319.65 380.178 319.989C380.328 320.184 380.43 320.41 380.478 320.651Z" fill="#263238"/>
<path d="M381.664 320.05C381.664 320.05 381.41 319.927 381.156 319.696C380.902 319.465 380.74 319.249 380.771 319.211C380.801 319.172 381.032 319.334 381.279 319.565C381.525 319.796 381.702 319.981 381.664 320.05Z" fill="#263238"/>
<path d="M382.442 318.687C382.194 318.769 381.931 318.795 381.672 318.764C381.256 318.764 380.902 318.726 380.902 318.672C381.149 318.588 381.412 318.559 381.672 318.587C381.933 318.56 382.196 318.595 382.442 318.687Z" fill="#263238"/>
<path d="M382.727 317.717C382.462 317.852 382.172 317.931 381.875 317.948C381.578 317.965 381.281 317.921 381.002 317.817C381.287 317.773 381.576 317.758 381.864 317.771C382.15 317.729 382.438 317.711 382.727 317.717Z" fill="#263238"/>
<path d="M380.001 319.373C379.692 319.423 379.377 319.423 379.069 319.373C378.728 319.325 378.393 319.245 378.068 319.134C377.872 319.072 377.684 318.99 377.505 318.888C377.396 318.822 377.314 318.718 377.274 318.595C377.263 318.524 377.272 318.452 377.299 318.385C377.326 318.319 377.371 318.261 377.428 318.218C377.79 318.05 378.199 318.013 378.585 318.113C378.971 318.213 379.311 318.443 379.546 318.765C379.684 318.951 379.784 319.163 379.839 319.389C379.839 319.55 379.839 319.643 379.839 319.643C379.748 319.364 379.61 319.104 379.431 318.873C379.228 318.626 378.962 318.44 378.661 318.334C378.48 318.269 378.288 318.241 378.096 318.252C377.904 318.262 377.717 318.311 377.544 318.395C377.39 318.503 377.444 318.672 377.613 318.78C377.777 318.874 377.95 318.952 378.129 319.011C378.442 319.127 378.764 319.217 379.092 319.281C379.646 319.335 380.001 319.342 380.001 319.373Z" fill="#263238"/>
<path d="M379.762 319.411C379.644 319.215 379.608 318.98 379.662 318.757C379.696 318.513 379.789 318.28 379.931 318.079C380.01 317.944 380.122 317.83 380.257 317.749C380.392 317.669 380.545 317.623 380.701 317.617C380.796 317.639 380.879 317.697 380.932 317.779C380.985 317.861 381.005 317.96 380.986 318.056C380.958 318.205 380.901 318.346 380.817 318.472C380.694 318.678 380.541 318.865 380.363 319.026C380.07 319.311 379.831 319.419 379.824 319.396C379.816 319.373 380.016 319.234 380.278 318.942C380.429 318.771 380.564 318.585 380.678 318.387C380.809 318.187 380.902 317.833 380.678 317.787C380.455 317.74 380.201 317.995 380.055 318.179C379.918 318.356 379.824 318.562 379.777 318.78C379.752 318.99 379.747 319.201 379.762 319.411Z" fill="#263238"/>
<path d="M395.564 318.703C395.564 318.703 395.148 318.657 394.486 318.703C393.627 318.784 392.808 319.104 392.122 319.627C391.43 320.156 390.897 320.864 390.582 321.676C390.35 322.299 390.32 322.723 390.289 322.715C390.272 322.618 390.272 322.519 390.289 322.423C390.315 322.16 390.372 321.902 390.458 321.652C390.741 320.796 391.279 320.047 391.998 319.504C392.711 318.961 393.568 318.642 394.463 318.588C394.72 318.575 394.978 318.588 395.233 318.626C395.347 318.632 395.459 318.658 395.564 318.703Z" fill="#263238"/>
<path d="M388.487 321.367C387.786 321.517 387.069 321.577 386.354 321.544C385.637 321.568 384.919 321.498 384.22 321.336C384.22 321.283 385.175 321.336 386.354 321.336C387.532 321.336 388.479 321.313 388.487 321.367Z" fill="#263238"/>
<path d="M391.344 321.414C391.344 321.452 391.259 321.614 391.159 321.83C391.059 322.045 391.005 322.238 390.951 322.238C390.897 322.238 390.882 322.007 390.997 321.753C391.113 321.498 391.313 321.375 391.344 321.414Z" fill="#263238"/>
<path d="M392.445 320.089C392.445 320.128 392.383 320.274 392.229 320.428C392.075 320.582 391.921 320.667 391.89 320.636C391.86 320.605 391.952 320.451 392.106 320.297C392.26 320.143 392.406 320.058 392.445 320.089Z" fill="#263238"/>
<path d="M393.993 319.504C393.993 319.558 393.793 319.55 393.577 319.619C393.362 319.689 393.208 319.804 393.169 319.773C393.131 319.743 393.254 319.535 393.523 319.45C393.793 319.365 394.016 319.458 393.993 319.504Z" fill="#263238"/>
<path d="M395.102 319.211C395.102 319.258 395.033 319.335 394.909 319.373C394.786 319.412 394.678 319.419 394.655 319.373C394.632 319.327 394.724 319.258 394.848 319.211C394.971 319.165 395.048 319.211 395.102 319.211Z" fill="#263238"/>
<path d="M414.3 321.522L413.637 320.113L426.883 313.836L429.116 318.457L428.346 318.904C424.803 320.836 410.211 328.483 407.431 328.914C404.289 329.392 414.3 321.522 414.3 321.522Z" fill="#D08CE6"/>
<g opacity="0.3">
<path d="M424.311 320.651C423.973 319.447 424.094 318.16 424.65 317.04C425.193 315.935 426.13 315.072 427.276 314.622L429.031 318.303L424.311 320.651Z" fill="white"/>
</g>
<path opacity="0.3" d="M409.502 325.572C409.502 325.572 406.122 328.575 406.915 328.984C407.708 329.392 422.747 322.222 429.108 318.48L428.947 318.195L411.474 326.712C411.474 326.712 410.288 325.241 409.502 325.572Z" fill="white"/>
<path d="M429.147 318.087C429.08 318.141 429.008 318.187 428.931 318.226L428.3 318.572L425.989 319.82C424.003 320.851 421.238 322.253 418.15 323.724C415.062 325.195 412.244 326.473 410.187 327.366L407.716 328.452L407.046 328.722L406.807 328.806C406.877 328.761 406.952 328.722 407.03 328.691L407.685 328.391L410.103 327.297C412.143 326.373 414.954 325.079 418.042 323.608C421.13 322.137 423.895 320.751 425.897 319.758L428.269 318.564L428.916 318.249C428.989 318.19 429.066 318.136 429.147 318.087Z" fill="#263238"/>
<path d="M411.573 326.912C411.287 326.56 410.956 326.246 410.588 325.98C410.19 325.757 409.769 325.579 409.333 325.449C409.813 325.41 410.292 325.547 410.68 325.834C411.106 326.065 411.426 326.451 411.573 326.912Z" fill="#263238"/>
<path d="M414.523 323.062C414.284 323.009 414.061 322.904 413.868 322.754C413.53 322.546 413.275 322.338 413.306 322.299C413.337 322.261 413.622 322.392 413.961 322.6C414.3 322.807 414.546 323.062 414.523 323.062Z" fill="#263238"/>
<path d="M415.316 322.022C415.316 322.068 415.032 322.022 414.708 321.93C414.385 321.837 414.131 321.722 414.146 321.676C414.161 321.629 414.431 321.675 414.762 321.76C415.093 321.845 415.332 321.968 415.316 322.022Z" fill="#263238"/>
<path d="M415.401 320.451C415.401 320.497 415.131 320.682 414.754 320.867C414.533 321.003 414.287 321.092 414.03 321.129C414.03 321.083 414.3 320.898 414.677 320.713C414.898 320.577 415.144 320.488 415.401 320.451Z" fill="#263238"/>
<path d="M415.216 319.465C415.216 319.465 414.985 319.812 414.554 320.058C414.308 320.232 414.015 320.326 413.714 320.328C413.957 320.162 414.215 320.02 414.484 319.904C414.877 319.673 415.178 319.427 415.216 319.465Z" fill="#263238"/>
<path d="M413.53 322.153C413.274 322.337 412.987 322.473 412.683 322.554C412.356 322.661 412.021 322.738 411.681 322.785C411.477 322.812 411.27 322.812 411.065 322.785C410.938 322.776 410.819 322.718 410.734 322.623C410.695 322.563 410.674 322.494 410.674 322.423C410.674 322.351 410.695 322.282 410.734 322.222C410.984 321.912 411.333 321.697 411.723 321.612C412.113 321.528 412.519 321.581 412.875 321.76C413.084 321.867 413.267 322.017 413.414 322.199C413.522 322.323 413.56 322.407 413.545 322.415C413.338 322.194 413.093 322.011 412.821 321.876C412.524 321.745 412.195 321.702 411.874 321.753C411.683 321.774 411.498 321.834 411.33 321.928C411.162 322.021 411.014 322.148 410.896 322.299C410.811 322.469 410.934 322.6 411.127 322.615C411.319 322.634 411.512 322.634 411.705 322.615C412.035 322.577 412.361 322.515 412.683 322.43C413.191 322.292 413.53 322.13 413.53 322.153Z" fill="#263238"/>
<path d="M413.329 322.291C413.329 322.291 413.091 322.152 412.952 321.752C412.87 321.517 412.849 321.266 412.89 321.02C412.898 320.86 412.947 320.705 413.034 320.57C413.12 320.434 413.241 320.324 413.383 320.25C413.477 320.227 413.577 320.241 413.66 320.29C413.744 320.339 413.805 320.419 413.83 320.512C413.88 320.656 413.893 320.809 413.868 320.959C413.848 321.201 413.797 321.439 413.714 321.667C413.659 321.882 413.547 322.079 413.391 322.237C413.391 322.237 413.491 322.006 413.591 321.629C413.654 321.408 413.692 321.18 413.707 320.951C413.707 320.712 413.66 320.358 413.429 320.42C413.198 320.481 413.098 320.813 413.044 321.044C412.996 321.262 412.996 321.488 413.044 321.706C413.117 321.911 413.213 322.107 413.329 322.291Z" fill="#263238"/>
<path d="M427.16 314.59C427.16 314.59 426.767 314.737 426.205 315.091C425.473 315.551 424.881 316.204 424.496 316.978C424.127 317.76 423.978 318.628 424.065 319.488C424.134 320.143 424.296 320.535 424.265 320.543C424.205 320.465 424.16 320.376 424.134 320.281C424.048 320.03 423.984 319.773 423.941 319.511C423.785 318.488 423.992 317.442 424.527 316.556C425.062 315.67 425.89 314.999 426.868 314.66C426.961 314.622 427.06 314.598 427.16 314.59Z" fill="#263238"/>
<path d="M422 320.158C421.441 320.608 420.825 320.981 420.168 321.267C419.54 321.612 418.869 321.871 418.173 322.037C418.173 321.991 419.036 321.637 420.091 321.113C421.146 320.59 422 320.112 422 320.158Z" fill="#263238"/>
<path d="M424.588 318.927C424.634 318.927 424.588 319.142 424.588 319.381C424.588 319.62 424.634 319.82 424.588 319.835C424.542 319.851 424.426 319.658 424.419 319.381C424.411 319.104 424.542 318.904 424.588 318.927Z" fill="#263238"/>
<path d="M424.981 317.248C425.027 317.248 424.981 317.44 424.981 317.648C424.981 317.856 424.811 318.002 424.765 317.987C424.719 317.972 424.765 317.794 424.811 317.587C424.857 317.379 424.934 317.232 424.981 317.248Z" fill="#263238"/>
<path d="M426.113 316.031C426.113 316.084 425.951 316.161 425.789 316.323C425.628 316.485 425.535 316.654 425.489 316.639C425.443 316.624 425.489 316.393 425.666 316.2C425.843 316.007 426.105 315.984 426.113 316.031Z" fill="#263238"/>
<path d="M426.975 315.299C426.975 315.299 426.975 315.438 426.883 315.53C426.79 315.623 426.69 315.677 426.66 315.638C426.629 315.6 426.659 315.507 426.752 315.407C426.844 315.307 426.944 315.269 426.975 315.299Z" fill="#263238"/>
<path d="M409.525 176.278C403.365 165.651 401.825 166.891 403.904 160.699L409.91 140.554L407.369 127.925C405.97 126.562 404.298 125.511 402.464 124.839C400.63 124.168 398.675 123.891 396.727 124.028L384.19 124.891C384.19 124.891 378.029 123.543 368.927 132.368L362.659 138.244L370.583 153.283L370.983 160.106L376.697 178.765L375.157 186.997C374.495 193.258 366.078 265.06 367.218 266.199C368.357 267.339 385.961 258.599 390.212 262.187C394.463 265.776 403.018 267.978 407.847 266.43C412.675 264.882 419.914 255.28 427.222 261.756C427.237 261.756 424.85 198.048 409.525 176.278Z" fill="#263238"/>
<path d="M402.625 124.898C402.625 124.898 415.717 128.371 413.753 137.697C412.806 142.318 406.545 151.851 406.545 151.851L391.744 144.851L402.625 124.898Z" fill="#263238"/>
<path d="M375.989 182.592C378.57 180.361 381.895 179.179 385.306 179.281C387.036 179.343 388.721 179.844 390.204 180.736C391.924 181.768 393.272 183.318 394.054 185.164C394.467 186.166 394.651 187.247 394.593 188.329C394.511 189.455 394.183 190.548 393.631 191.533C392.576 193.558 390.913 195.245 389.781 197.308C388.649 199.372 388.579 201.736 388.741 203.939C388.903 206.141 389.226 208.351 388.741 210.415C388.534 211.418 388.153 212.377 387.617 213.249C387.124 214.096 386.407 214.791 385.545 215.259C384.726 215.685 383.795 215.844 382.881 215.713C382.059 215.577 381.273 215.276 380.57 214.828C379.405 214.034 378.338 213.107 377.39 212.063C376.637 211.328 375.845 210.634 375.018 209.984C374.497 209.569 373.947 209.193 373.37 208.859C372.978 208.628 372.754 208.528 372.762 208.513C372.77 208.498 372.824 208.513 372.931 208.567C373.039 208.621 373.209 208.682 373.409 208.782C374.004 209.093 374.573 209.451 375.111 209.853C375.958 210.491 376.77 211.175 377.544 211.901C378.496 212.915 379.561 213.816 380.717 214.589C381.394 215.007 382.148 215.284 382.935 215.405C383.782 215.519 384.643 215.365 385.399 214.966C386.203 214.521 386.869 213.863 387.324 213.064C387.834 212.224 388.193 211.301 388.387 210.338C388.856 208.359 388.518 206.195 388.387 203.97C388.283 202.822 388.283 201.667 388.387 200.52C388.515 199.326 388.876 198.17 389.449 197.116C390.597 194.983 392.252 193.312 393.3 191.356C393.833 190.41 394.151 189.358 394.232 188.275C394.289 187.25 394.118 186.224 393.731 185.272C392.995 183.494 391.715 181.995 390.073 180.991C388.644 180.109 387.014 179.608 385.337 179.535C382.893 179.382 380.457 179.938 378.322 181.137C377.736 181.453 377.168 181.8 376.62 182.176L376.189 182.477C376.05 182.569 375.996 182.6 375.989 182.592Z" fill="#FAFAFA"/>
<path d="M425.697 242.304L425.497 242.358L424.896 242.458C424.365 242.542 423.587 242.666 422.586 242.797C419.742 243.228 416.868 243.423 413.992 243.382C412 243.35 410.018 243.092 408.085 242.612C405.854 242.059 403.737 241.118 401.832 239.832C399.7 238.415 398.007 236.431 396.942 234.102C395.815 231.575 395.584 228.739 396.288 226.063C396.675 224.714 397.356 223.467 398.282 222.413C399.205 221.443 400.207 220.552 401.278 219.748C402.293 218.988 403.22 218.118 404.042 217.153C404.785 216.203 405.296 215.093 405.536 213.911C406.029 211.601 405.798 209.291 405.906 207.15C405.899 205.137 406.402 203.155 407.369 201.39C408.191 199.952 409.309 198.705 410.65 197.732C411.652 196.993 412.768 196.421 413.953 196.038C414.703 195.794 415.478 195.639 416.263 195.576H416.872H417.08C416.031 195.655 414.996 195.865 413.999 196.199C412.842 196.6 411.755 197.182 410.781 197.924C409.338 198.989 408.17 200.384 407.374 201.991C406.579 203.598 406.178 205.372 406.206 207.165C406.114 209.283 406.368 211.593 405.867 213.996C405.628 215.233 405.101 216.397 404.327 217.392C403.492 218.386 402.546 219.283 401.509 220.064C400.455 220.856 399.468 221.734 398.559 222.69C397.678 223.7 397.029 224.891 396.657 226.178C395.978 228.765 396.201 231.506 397.289 233.948C398.315 236.219 399.959 238.157 402.033 239.539C403.897 240.808 405.969 241.741 408.155 242.296C410.061 242.792 412.016 243.073 413.984 243.135C416.846 243.196 419.708 243.044 422.547 242.681L424.858 242.419L425.458 242.35L425.697 242.304Z" fill="#FAFAFA"/>
<path d="M388.987 261.556C389.07 261.481 389.16 261.417 389.257 261.363C389.536 261.224 389.795 261.047 390.027 260.84C390.297 260.57 390.189 260.069 390.027 259.523C389.797 258.921 389.514 258.341 389.18 257.79C388.479 256.519 387.64 255.01 386.639 253.393C385.561 251.635 384.267 250.018 382.788 248.58C381.314 247.145 379.546 246.046 377.606 245.361C376.026 244.803 374.334 244.642 372.677 244.891C371.562 245.083 370.506 245.534 369.597 246.208C368.958 246.693 368.658 247.032 368.627 246.978C368.681 246.882 368.749 246.794 368.827 246.716C369.036 246.482 369.263 246.263 369.505 246.062C370.404 245.317 371.476 244.811 372.623 244.591C374.329 244.289 376.082 244.424 377.721 244.984C379.723 245.669 381.548 246.789 383.066 248.264C384.57 249.725 385.878 251.377 386.954 253.177C387.963 254.81 388.756 256.35 389.434 257.628C389.746 258.204 390.004 258.807 390.204 259.43C390.287 259.696 390.338 259.969 390.358 260.247C390.368 260.37 390.352 260.494 390.311 260.611C390.27 260.727 390.204 260.834 390.119 260.924C389.876 261.13 389.6 261.294 389.303 261.409C389.103 261.525 388.995 261.571 388.987 261.556Z" fill="#FAFAFA"/>
<path d="M405.829 171.018C405.829 171.018 405.737 171.203 405.459 171.419C405.055 171.718 404.59 171.923 404.096 172.019C403.359 172.163 402.597 172.099 401.894 171.835C401.036 171.495 400.297 170.912 399.769 170.156C398.844 168.783 398.445 167.124 398.644 165.481C398.669 164.811 398.815 164.151 399.076 163.533C399.145 163.533 398.975 164.303 398.929 165.497C398.82 167.058 399.228 168.612 400.092 169.917C400.582 170.599 401.251 171.132 402.025 171.457C402.667 171.715 403.365 171.802 404.05 171.711C404.684 171.602 405.289 171.367 405.829 171.018Z" fill="#FAFAFA"/>
<path d="M406.946 148.871C406.946 148.871 406.846 148.871 406.645 148.94C406.353 148.966 406.059 148.966 405.767 148.94C404.679 148.857 403.637 148.464 402.764 147.808C402.156 147.357 401.649 146.782 401.278 146.122C400.853 145.356 400.615 144.501 400.585 143.627C400.536 142.658 400.735 141.694 401.162 140.823C401.667 139.939 402.294 139.13 403.026 138.421C403.357 138.06 403.637 137.656 403.858 137.219C404.062 136.81 404.139 136.349 404.081 135.895C403.844 135.015 403.464 134.18 402.957 133.423C402.552 132.704 402.37 131.881 402.434 131.058C402.499 130.235 402.807 129.45 403.319 128.803C403.668 128.379 404.1 128.032 404.589 127.783C405.078 127.534 405.613 127.388 406.16 127.355C406.454 127.335 406.749 127.353 407.038 127.409C407.14 127.418 407.239 127.447 407.331 127.493C407.331 127.54 406.915 127.424 406.176 127.493C405.655 127.556 405.151 127.721 404.695 127.98C404.239 128.239 403.839 128.587 403.519 129.003C403.055 129.61 402.783 130.341 402.736 131.104C402.69 131.866 402.871 132.625 403.257 133.284C403.8 134.072 404.204 134.947 404.451 135.872C404.516 136.399 404.427 136.934 404.196 137.412C403.961 137.883 403.66 138.319 403.303 138.706C402.6 139.394 401.989 140.17 401.486 141.016C401.091 141.828 400.901 142.724 400.931 143.627C400.947 144.394 401.133 145.148 401.475 145.835C401.818 146.522 402.308 147.125 402.91 147.6C403.738 148.245 404.721 148.659 405.76 148.801C406.522 148.894 406.946 148.832 406.946 148.871Z" fill="#FAFAFA"/>
<path d="M371.607 156.279C372.018 156.33 372.432 156.35 372.847 156.341C373.97 156.285 375.04 155.841 375.873 155.085C376.469 154.522 376.902 153.808 377.125 153.019C377.349 152.23 377.355 151.396 377.144 150.604C376.897 149.66 376.358 148.819 375.603 148.201C374.731 147.541 373.967 146.749 373.339 145.852C372.829 144.853 372.648 143.718 372.824 142.61C372.939 141.555 373.185 140.577 373.347 139.645C373.532 138.778 373.586 137.888 373.509 137.004C373.436 136.242 373.144 135.518 372.669 134.917C371.969 134.04 370.967 133.456 369.859 133.277C369.447 133.231 369.033 133.215 368.619 133.231C368.619 133.231 368.719 133.192 368.935 133.146C369.247 133.108 369.562 133.108 369.874 133.146C371.052 133.273 372.134 133.853 372.893 134.763C373.418 135.394 373.747 136.165 373.84 136.981C373.937 137.899 373.893 138.826 373.709 139.73C373.555 140.685 373.316 141.655 373.216 142.672C373.054 143.697 373.218 144.748 373.686 145.675C374.299 146.531 375.036 147.292 375.873 147.931C376.666 148.612 377.228 149.521 377.482 150.534C377.701 151.387 377.683 152.283 377.429 153.126C377.175 153.969 376.696 154.726 376.042 155.316C375.152 156.091 374.011 156.517 372.831 156.518C372.515 156.523 372.2 156.489 371.892 156.418C371.707 156.333 371.599 156.294 371.607 156.279Z" fill="#FAFAFA"/>
<path d="M390.589 86.2641C391.903 86.0023 393.258 86.0246 394.563 86.3294C395.867 86.6342 397.091 87.2144 398.153 88.0313C399.215 88.8481 400.09 89.8826 400.719 91.0654C401.349 92.2482 401.718 93.5519 401.802 94.8889C401.894 96.3598 401.709 98.0617 402.749 99.109C403.519 99.879 404.612 100.002 405.529 100.503C406.385 100.998 407.042 101.777 407.385 102.705C407.728 103.633 407.736 104.652 407.408 105.585C407.053 106.502 406.376 107.279 406.029 108.204C405.521 109.567 405.098 111.13 405.513 112.524C407.654 119.839 402.433 120.733 399.707 121.225C395.81 121.911 391.86 120.671 391.46 116.605C391.329 115.288 388.98 115.435 387.671 115.604C386.131 115.812 384.922 117.144 383.766 118.214C382.017 119.996 379.802 121.25 377.375 121.834C376.163 122.112 374.9 122.088 373.7 121.763C372.499 121.438 371.397 120.822 370.49 119.97C368.765 118.191 368.342 115.134 369.859 113.178C368.933 112.756 368.114 112.13 367.464 111.347C366.814 110.563 366.35 109.643 366.106 108.655C365.863 107.667 365.846 106.636 366.057 105.64C366.268 104.645 366.702 103.71 367.325 102.905C368.273 101.681 369.636 100.772 370.321 99.3785C370.891 98.208 371.507 95.5281 371.954 94.2883C372.585 92.5402 374.741 89.5446 376.412 88.7284" fill="#455A64"/>
<path d="M397.512 126.215L383.05 126.423C382.804 124.752 382.319 118.261 382.319 118.261C382.319 118.261 376.258 117.891 375.619 111.931C374.98 105.97 374.726 92.1551 374.726 92.1551C377.982 90.3784 381.653 89.5024 385.361 89.6175C389.068 89.7325 392.678 90.8344 395.818 92.8096L396.765 93.4026L397.512 126.215Z" fill="#D89377"/>
<path d="M381.834 108.041C381.395 107.907 380.936 107.853 380.478 107.88C380.263 107.88 380.085 107.88 380.062 107.733C380.033 107.518 380.065 107.299 380.155 107.102L380.648 105.369C381.325 102.905 381.772 100.88 381.641 100.849C381.51 100.818 380.871 102.782 380.193 105.246C380.039 105.847 379.885 106.424 379.739 106.986C379.637 107.281 379.637 107.601 379.739 107.895C379.778 107.974 379.834 108.043 379.903 108.096C379.973 108.149 380.053 108.186 380.139 108.203C380.262 108.218 380.386 108.218 380.509 108.203C380.956 108.219 381.403 108.164 381.834 108.041Z" fill="#263238"/>
<path d="M382.296 118.175C385.058 117.964 387.695 116.938 389.873 115.226C389.873 115.226 388.441 119.7 382.427 119.723L382.296 118.175Z" fill="#BF7A62"/>
<path d="M386.33 101.804C386.33 102.008 386.249 102.204 386.105 102.348C385.96 102.493 385.765 102.574 385.56 102.574C385.463 102.58 385.366 102.567 385.274 102.535C385.183 102.503 385.099 102.452 385.027 102.387C384.955 102.322 384.897 102.242 384.856 102.154C384.816 102.066 384.793 101.97 384.79 101.873C384.79 101.669 384.871 101.473 385.016 101.329C385.16 101.184 385.356 101.103 385.56 101.103C385.657 101.097 385.755 101.11 385.846 101.142C385.938 101.174 386.022 101.225 386.094 101.29C386.166 101.355 386.224 101.435 386.264 101.523C386.305 101.611 386.328 101.707 386.33 101.804Z" fill="#263238"/>
<path d="M387.57 100.988C387.478 101.08 386.916 100.649 386.099 100.633C385.283 100.618 384.683 101.011 384.559 100.911C384.436 100.81 384.621 100.687 384.883 100.502C385.241 100.267 385.663 100.146 386.092 100.156C386.516 100.163 386.926 100.306 387.262 100.564C387.54 100.764 387.616 100.941 387.57 100.988Z" fill="#263238"/>
<path d="M377.991 101.781C377.991 101.985 377.91 102.181 377.765 102.325C377.621 102.47 377.425 102.551 377.221 102.551C377.124 102.558 377.027 102.546 376.936 102.515C376.844 102.484 376.759 102.434 376.687 102.369C376.615 102.304 376.557 102.226 376.517 102.138C376.476 102.05 376.454 101.955 376.451 101.858C376.451 101.654 376.532 101.458 376.676 101.313C376.821 101.169 377.017 101.088 377.221 101.088C377.412 101.087 377.597 101.157 377.74 101.286C377.882 101.414 377.972 101.59 377.991 101.781Z" fill="#263238"/>
<path d="M379.069 101.111C378.976 101.203 378.414 100.772 377.598 100.757C376.782 100.741 376.181 101.134 376.058 101.034C375.935 100.934 376.119 100.811 376.381 100.626C376.741 100.393 377.162 100.275 377.59 100.287C378.013 100.291 378.424 100.432 378.761 100.687C379.038 100.888 379.123 101.065 379.069 101.111Z" fill="#263238"/>
<path d="M383.204 110.136C383.122 109.946 383.078 109.742 383.073 109.535C383.074 109.431 383.106 109.329 383.163 109.242C383.22 109.154 383.301 109.085 383.397 109.042C383.535 108.996 383.705 109.042 383.828 108.942C383.951 108.842 383.997 108.588 384.097 108.403C384.171 108.286 384.28 108.194 384.408 108.141C384.537 108.089 384.679 108.078 384.814 108.111C385.08 108.187 385.32 108.337 385.507 108.542C385.749 108.755 385.903 109.052 385.938 109.374C385.928 109.528 385.883 109.678 385.806 109.811C385.728 109.945 385.621 110.059 385.491 110.144C385.225 110.315 384.921 110.421 384.606 110.452C384.269 110.503 383.928 110.516 383.589 110.49C383.491 110.488 383.394 110.467 383.304 110.429C383.26 110.407 383.223 110.373 383.198 110.33C383.174 110.288 383.162 110.239 383.166 110.19" fill="#BF7A62"/>
<path d="M382.611 110.259C383.282 110.179 383.92 109.923 384.461 109.517C385.002 109.111 385.426 108.571 385.692 107.949" fill="#BF7A62"/>
<path d="M385.715 107.949C385.563 108.639 385.169 109.252 384.603 109.676C384.038 110.1 383.339 110.307 382.634 110.259C383.235 110.001 383.817 109.7 384.375 109.359C385.222 108.727 385.607 107.895 385.715 107.949Z" fill="#263238"/>
<path d="M376.119 98.9084C376.815 98.5797 377.601 98.4903 378.353 98.6543Z" fill="#BF7A62"/>
<path d="M378.353 98.6544C378.291 98.8778 377.806 98.9317 377.259 98.9933C376.712 99.0549 376.227 99.1011 376.119 98.9086C376.012 98.716 376.451 98.2771 377.174 98.2001C377.898 98.1231 378.414 98.4465 378.353 98.6544Z" fill="#263238"/>
<path d="M384.505 98.97C385.542 98.6224 386.672 98.6858 387.663 99.1471Z" fill="#BF7A62"/>
<path d="M387.663 99.1392C387.555 99.3394 386.893 99.1854 386.076 99.1392C385.26 99.093 384.59 99.1392 384.536 98.9544C384.482 98.7695 385.152 98.2767 386.153 98.3383C387.155 98.3999 387.771 98.9698 387.663 99.1392Z" fill="#263238"/>
<path d="M387.817 86.1484C387.389 85.6564 386.865 85.257 386.277 84.9749C385.689 84.6928 385.049 84.534 384.398 84.5082C382.434 84.3134 380.454 84.6376 378.655 85.4485C376.856 86.2593 375.302 87.5284 374.148 89.1286C372.831 91.023 372.169 93.6644 373.378 95.6126C373.793 96.2671 374.388 96.7882 375.091 97.1137C375.794 97.4391 376.576 97.5552 377.344 97.448C378.111 97.3408 378.832 97.0148 379.419 96.5091C380.006 96.0034 380.435 95.3393 380.655 94.5962C380.667 95.0438 380.768 95.4846 380.953 95.8928C381.137 96.3009 381.401 96.6683 381.729 96.9734C382.057 97.2785 382.442 97.5153 382.862 97.6699C383.283 97.8245 383.729 97.8938 384.177 97.8739C384.624 97.854 385.063 97.7451 385.468 97.5537C385.873 97.3623 386.236 97.0922 386.535 96.7591C386.835 96.4261 387.065 96.0367 387.212 95.6138C387.359 95.1909 387.421 94.7428 387.393 94.2958C387.762 95.5236 388.512 96.6023 389.534 97.3761C390.604 98.0461 392.291 97.8844 392.845 96.7447C393.523 97.5147 394.47 98.3695 395.487 98.1154C395.91 97.9685 396.274 97.6874 396.522 97.3149C396.771 96.9424 396.892 96.4988 396.865 96.0516C396.791 95.1561 396.488 94.2946 395.987 93.5489C394.016 90.1143 391.105 86.957 387.278 85.9174" fill="#455A64"/>
<path d="M392.407 94.2957C393.297 95.8818 393.772 97.6676 393.787 99.4866C393.802 101.306 393.356 103.099 392.491 104.699C391.848 105.653 391.298 106.666 390.851 107.726C390.638 108.259 390.59 108.844 390.715 109.405C390.84 109.966 391.132 110.476 391.552 110.868C392.114 111.291 392.977 111.507 393.092 112.192C393.118 112.544 393.046 112.896 392.884 113.209C392.354 114.596 392.289 116.117 392.699 117.544C392.977 118.484 393.023 119.647 395.264 120.624C396.373 121.125 396.981 121.972 399.391 121.356C403.611 120.27 402.117 110.837 401.702 106.501C401.286 102.166 399.283 94.4266 396.85 90.8149" fill="#455A64"/>
<path d="M382.781 123.875C382.781 123.875 378.407 140.208 381.194 138.591C383.982 136.974 397.512 126.216 397.512 126.216L390.674 121.056L382.781 123.875Z" fill="#D89377"/>
<path d="M341.589 152.005C341.104 150.404 335.051 147.108 335.968 146.222C337.161 145.059 342.128 149.949 342.583 150.327C343.037 150.704 343.584 150.057 343.16 149.734C342.544 149.272 336.23 144.243 337.416 143.096C338.062 142.456 339.079 143.75 339.079 143.75C339.079 143.75 344.623 148.902 345.155 148.371C345.686 147.839 342.537 144.667 341.397 143.689C340.257 142.711 340.265 141.779 341.089 141.625C341.659 141.517 345.209 144.435 346.31 145.475C347.411 146.515 350.391 149.256 350.014 146.661C350.014 146.622 350.014 146.584 350.014 146.538C349.567 143.997 350.068 141.917 350.622 141.378C350.755 141.276 350.913 141.213 351.079 141.196C351.246 141.179 351.413 141.209 351.563 141.283C351.713 141.357 351.84 141.471 351.928 141.613C352.016 141.756 352.063 141.92 352.062 142.087C352.089 142.211 352.089 142.34 352.062 142.464C352.062 142.518 352.062 142.595 352.062 142.657C352.026 143.541 352.083 144.426 352.232 145.298C352.344 146.083 352.589 146.844 352.956 147.547C353.387 148.317 353.787 149.041 354.134 149.603C358.184 151.851 369.828 157.781 381.502 158.713C383.605 158.882 392.922 144.181 392.922 144.181L406.784 150.727C403.554 156.801 399.865 162.619 395.749 168.131C383.982 183.933 347.457 157.496 347.457 157.496L347.119 157.327C344.347 155.957 341.652 154.435 339.048 152.768C335.906 150.55 336.091 150.257 336.407 149.926C337.246 149.025 342.075 153.599 341.589 152.005Z" fill="#D89377"/>
<path d="M131.382 321.267L131.313 314.953L119.469 315.014V324.255L120.239 324.301C123.504 324.463 136.865 324.902 139.045 324.232C141.455 323.477 131.382 321.267 131.382 321.267Z" fill="#455A64"/>
<path d="M119.315 323.985H119.515H120.101L122.257 324.07C124.074 324.124 126.585 324.17 129.357 324.163C132.129 324.155 134.647 324.086 136.465 324.016L138.613 323.916L139.198 323.878H139.399C139.332 323.869 139.265 323.869 139.198 323.878H138.613L136.457 323.924C134.64 323.97 132.129 324.024 129.357 324.032C126.585 324.039 124.074 324.032 122.257 323.985L120.101 323.947H119.331L119.315 323.985Z" fill="#263238"/>
<path d="M135.264 324.24C135.354 323.881 135.485 323.535 135.656 323.208C135.881 322.905 136.139 322.628 136.426 322.384C136.053 322.52 135.746 322.796 135.572 323.154C135.335 323.464 135.225 323.852 135.264 324.24Z" fill="#263238"/>
<path d="M131.76 322.484C131.798 322.484 131.96 322.299 132.129 322.029C132.253 321.874 132.34 321.692 132.383 321.498C132.383 321.498 132.183 321.675 132.014 321.952C131.844 322.23 131.729 322.461 131.76 322.484Z" fill="#263238"/>
<path d="M130.797 321.983C130.797 321.983 131.012 321.883 131.213 321.698C131.413 321.514 131.559 321.344 131.536 321.313C131.513 321.283 131.32 321.406 131.12 321.591C130.92 321.775 130.774 321.952 130.797 321.983Z" fill="#263238"/>
<path d="M130.189 320.866C130.387 320.934 130.596 320.96 130.805 320.943C131.015 320.966 131.228 320.942 131.429 320.874C131.229 320.801 131.016 320.775 130.805 320.797C130.597 320.775 130.387 320.799 130.189 320.866Z" fill="#263238"/>
<path d="M129.981 320.081C130.184 320.214 130.423 320.281 130.666 320.274C130.909 320.311 131.157 320.279 131.382 320.181C131.151 320.138 130.916 320.123 130.681 320.135C130.45 320.093 130.216 320.075 129.981 320.081Z" fill="#263238"/>
<path d="M132.16 321.444C132.414 321.497 132.676 321.497 132.93 321.444C133.207 321.412 133.481 321.353 133.747 321.267C133.907 321.22 134.062 321.155 134.209 321.075C134.296 321.019 134.361 320.934 134.393 320.836C134.405 320.779 134.401 320.72 134.38 320.665C134.36 320.611 134.324 320.563 134.278 320.528C133.986 320.389 133.656 320.355 133.342 320.43C133.028 320.506 132.749 320.687 132.553 320.944C132.436 321.097 132.352 321.273 132.306 321.46C132.288 321.525 132.288 321.595 132.306 321.66C132.377 321.425 132.492 321.205 132.645 321.013C132.816 320.812 133.04 320.665 133.292 320.59C133.439 320.537 133.596 320.515 133.752 320.524C133.908 320.533 134.061 320.574 134.201 320.644C134.324 320.736 134.278 320.875 134.139 320.952C134.007 321.032 133.865 321.094 133.716 321.136C133.466 321.23 133.208 321.3 132.946 321.344C132.453 321.421 132.16 321.421 132.16 321.444Z" fill="#263238"/>
<path d="M132.353 321.521C132.448 321.365 132.479 321.177 132.437 320.998C132.417 320.798 132.346 320.607 132.229 320.443C132.165 320.331 132.073 320.237 131.963 320.17C131.852 320.103 131.727 320.064 131.598 320.058C131.522 320.075 131.454 320.12 131.41 320.184C131.366 320.249 131.348 320.327 131.359 320.405C131.378 320.526 131.422 320.641 131.49 320.743C131.591 320.912 131.713 321.067 131.852 321.206C131.971 321.343 132.122 321.448 132.291 321.514C132.291 321.514 132.137 321.375 131.929 321.136C131.804 320.997 131.696 320.845 131.606 320.682C131.505 320.52 131.428 320.235 131.606 320.197C131.783 320.158 131.991 320.366 132.106 320.52C132.215 320.666 132.288 320.834 132.322 321.013C132.35 321.181 132.361 321.351 132.353 321.521Z" fill="#263238"/>
<path d="M119.539 320.751C119.539 320.751 119.877 320.751 120.416 320.751C121.109 320.83 121.765 321.103 122.309 321.537C122.854 321.972 123.266 322.551 123.497 323.208C123.682 323.716 123.697 324.055 123.728 324.047C123.74 323.968 123.74 323.888 123.728 323.808C123.71 323.593 123.666 323.381 123.597 323.177C123.382 322.482 122.963 321.868 122.396 321.414C121.821 320.967 121.127 320.699 120.401 320.643C120.186 320.618 119.969 320.618 119.754 320.643C119.677 320.669 119.605 320.705 119.539 320.751Z" fill="#263238"/>
<path d="M120.748 315.815C120.667 316.624 120.637 317.437 120.655 318.249C120.618 319.06 120.636 319.873 120.709 320.682C120.784 319.873 120.812 319.061 120.794 318.249C120.826 317.438 120.811 316.625 120.748 315.815Z" fill="#263238"/>
<path d="M125.26 322.984C125.827 323.107 126.406 323.161 126.985 323.146C127.567 323.174 128.149 323.125 128.718 323C128.718 322.954 127.948 323 126.985 323C126.023 323 125.26 322.938 125.26 322.984Z" fill="#263238"/>
<path d="M122.935 322.984C122.935 322.984 123.004 323.153 123.081 323.331C123.158 323.508 123.204 323.662 123.243 323.662C123.281 323.662 123.304 323.469 123.243 323.269C123.181 323.069 122.965 322.961 122.935 322.984Z" fill="#263238"/>
<path d="M122.057 321.906C122.057 321.906 122.111 322.053 122.234 322.176C122.357 322.299 122.472 322.376 122.503 322.353C122.534 322.33 122.457 322.199 122.334 322.076C122.211 321.952 122.087 321.875 122.057 321.906Z" fill="#263238"/>
<path d="M120.809 321.413C120.809 321.452 120.971 321.452 121.148 321.513C121.325 321.575 121.448 321.66 121.479 321.637C121.51 321.613 121.41 321.444 121.194 321.375C120.979 321.305 120.794 321.375 120.809 321.413Z" fill="#263238"/>
<path d="M119.916 321.183C119.916 321.221 119.97 321.283 120.07 321.321C120.17 321.36 120.255 321.321 120.27 321.321C120.286 321.321 120.216 321.221 120.116 321.183C120.016 321.144 119.931 321.144 119.916 321.183Z" fill="#263238"/>
<path d="M62.4608 312.157L65.8106 306.767L55.7996 300.444L50.825 308.261L51.4179 308.692C54.0824 310.586 65.0944 318.156 67.2891 318.764C69.7534 319.442 62.4608 312.157 62.4608 312.157Z" fill="#455A64"/>
<path d="M50.825 307.937L50.9867 308.068L51.4641 308.407L53.2276 309.639C54.7677 310.663 56.8238 312.057 59.1649 313.543C61.5059 315.029 63.6544 316.331 65.2253 317.247L67.0889 318.325L67.6049 318.61C67.7204 318.672 67.782 318.703 67.7897 318.695L67.6203 318.579L67.1197 318.279L65.2792 317.163C63.7391 316.223 61.5829 314.906 59.2419 313.42C56.9008 311.934 54.7985 310.563 53.2892 309.57L51.4949 308.376L51.0021 308.06L50.825 307.937Z" fill="#263238"/>
<path d="M64.1316 316.747C64.4028 316.498 64.6997 316.278 65.0172 316.092C65.3581 315.95 65.7149 315.849 66.0799 315.792C65.697 315.708 65.2968 315.768 64.9556 315.961C64.5907 316.108 64.2959 316.389 64.1316 316.747Z" fill="#263238"/>
<path d="M62.1296 313.381C62.1296 313.42 62.3991 313.335 62.684 313.197C62.9689 313.058 63.2 312.919 63.1846 312.881C62.9857 312.9 62.7937 312.963 62.6224 313.066C62.376 313.204 62.1142 313.343 62.1296 313.381Z" fill="#263238"/>
<path d="M61.606 312.442C61.606 312.48 61.837 312.442 62.1065 312.442C62.376 312.442 62.5916 312.326 62.5839 312.288C62.5762 312.249 62.3529 312.288 62.0834 312.288C61.8139 312.288 61.606 312.403 61.606 312.442Z" fill="#263238"/>
<path d="M61.6753 311.172C61.6753 311.172 61.8678 311.38 62.1527 311.572C62.4377 311.765 62.6918 311.88 62.7149 311.842C62.738 311.803 62.5224 311.634 62.2374 311.449C62.0718 311.318 61.8802 311.223 61.6753 311.172Z" fill="#263238"/>
<path d="M61.9219 310.394C61.9219 310.394 62.0759 310.694 62.3993 310.933C62.5798 311.095 62.8053 311.2 63.0462 311.233C63.0462 311.194 62.7921 311.048 62.484 310.817C62.3077 310.662 62.1198 310.52 61.9219 310.394Z" fill="#263238"/>
<path d="M63.0227 312.719C63.2085 312.894 63.4253 313.032 63.6619 313.127C63.9094 313.243 64.1672 313.336 64.432 313.404C64.5923 313.454 64.7576 313.485 64.9248 313.497C65.029 313.5 65.1307 313.465 65.2097 313.397C65.2489 313.355 65.2755 313.304 65.2864 313.248C65.2973 313.192 65.2921 313.134 65.2713 313.081C65.1037 312.805 64.8455 312.596 64.5407 312.489C64.2359 312.382 63.9035 312.385 63.6003 312.496C63.42 312.562 63.2549 312.664 63.1151 312.796C63.0227 312.889 62.9842 312.95 62.9919 312.958C63.1822 312.801 63.3985 312.678 63.6311 312.596C63.8821 312.52 64.1501 312.52 64.4012 312.596C64.5596 312.628 64.7098 312.693 64.8423 312.785C64.9748 312.878 65.0867 312.997 65.1712 313.135C65.2251 313.274 65.1096 313.366 64.9479 313.366C64.7943 313.356 64.6421 313.33 64.4936 313.289C64.2311 313.226 63.9737 313.144 63.7235 313.043C63.2769 312.858 63.0304 312.704 63.0227 312.719Z" fill="#263238"/>
<path d="M63.1463 312.858C63.1463 312.858 63.3465 312.765 63.5005 312.457C63.5903 312.279 63.6327 312.08 63.6237 311.88C63.6286 311.751 63.6009 311.622 63.543 311.506C63.4851 311.391 63.399 311.291 63.2926 311.218C63.219 311.19 63.1375 311.192 63.0655 311.224C62.9935 311.255 62.9368 311.314 62.9076 311.387C62.8567 311.498 62.833 311.619 62.8383 311.741C62.8303 311.938 62.8484 312.135 62.8922 312.327C62.9208 312.505 62.9921 312.674 63.1001 312.819C63.1001 312.819 63.0385 312.619 62.9923 312.303C62.9719 312.119 62.9719 311.933 62.9923 311.749C62.9923 311.556 63.0847 311.272 63.2618 311.349C63.4389 311.426 63.4928 311.695 63.5159 311.888C63.5223 312.069 63.4935 312.249 63.4312 312.419C63.3491 312.573 63.2538 312.72 63.1463 312.858Z" fill="#263238"/>
<path d="M52.7729 305.35C52.7729 305.35 53.0733 305.504 53.4891 305.843C54.035 306.284 54.4481 306.868 54.6827 307.529C54.909 308.191 54.9463 308.903 54.7905 309.586C54.6673 310.117 54.5056 310.409 54.5287 310.425C54.5783 310.364 54.6197 310.296 54.6519 310.225C54.7529 310.031 54.8329 309.827 54.8907 309.616C55.0773 308.914 55.0532 308.172 54.8213 307.483C54.577 306.798 54.1382 306.198 53.5584 305.758C53.3827 305.629 53.1944 305.518 52.9963 305.427C52.9267 305.389 52.8512 305.363 52.7729 305.35Z" fill="#263238"/>
<path d="M56.4466 301.831C55.9414 302.466 55.4759 303.132 55.0527 303.825C54.5876 304.49 54.1658 305.185 53.7898 305.904C54.2918 305.265 54.7547 304.597 55.1759 303.902C55.6352 303.234 56.0594 302.543 56.4466 301.831Z" fill="#263238"/>
<path d="M56.3848 310.293C56.7881 310.711 57.2467 311.071 57.7478 311.364C58.2226 311.701 58.7406 311.973 59.2879 312.172C59.2879 312.134 58.6257 311.764 57.8248 311.241C57.0239 310.717 56.4079 310.263 56.3848 310.293Z" fill="#263238"/>
<path d="M54.4211 309.054C54.4211 309.054 54.4211 309.223 54.3595 309.416C54.2979 309.608 54.2825 309.762 54.3595 309.785C54.4365 309.808 54.5135 309.654 54.5443 309.439C54.5751 309.223 54.4596 309.038 54.4211 309.054Z" fill="#263238"/>
<path d="M54.2673 307.66C54.2673 307.66 54.2673 307.806 54.2673 307.983C54.2673 308.16 54.3597 308.283 54.3982 308.276C54.4367 308.268 54.4444 308.122 54.3982 307.952C54.352 307.783 54.3058 307.66 54.2673 307.66Z" fill="#263238"/>
<path d="M53.4741 306.574C53.4741 306.612 53.5973 306.697 53.7128 306.843C53.8284 306.989 53.8823 307.128 53.9208 307.128C53.9593 307.128 53.967 306.928 53.8207 306.751C53.6743 306.574 53.4895 306.535 53.4741 306.574Z" fill="#263238"/>
<path d="M52.8503 305.904C52.8503 305.904 52.8503 306.011 52.9041 306.096C52.9578 306.18 53.0423 306.226 53.073 306.203C53.1037 306.18 53.073 306.096 53.0192 306.011C52.9655 305.927 52.8811 305.873 52.8503 305.904Z" fill="#263238"/>
<path d="M108.311 189.6C108.311 189.6 118.322 256.327 116.89 259.546C115.457 262.765 68.5367 314.336 68.5367 314.336L51.2639 302.885C51.2639 302.885 92.2165 251.29 91.9084 250.081C91.6004 248.872 76.3914 184.232 76.3914 184.232L108.311 189.6Z" fill="#D08CE6"/>
<path d="M70.6852 183.324L70.0769 185.796C68.2973 193.094 69.4006 200.798 73.1572 207.304L100.372 254.525C102.306 257.868 103.714 261.488 104.545 265.26L116.867 319.781H135.833C135.833 320.913 130.928 274.862 128.464 259.569C126.616 248.018 111.176 212.232 103.698 195.321L108.319 189.623L100.264 188.298L70.6852 183.324Z" fill="#D08CE6"/>
<path d="M104.268 195.175C104.438 195.414 104.577 195.673 104.684 195.945C104.93 196.438 105.269 197.162 105.677 198.063C106.494 199.857 107.564 202.368 108.657 205.171C109.751 207.974 110.652 210.561 111.268 212.425C111.568 213.364 111.807 214.127 111.961 214.658C112.06 214.929 112.127 215.211 112.161 215.498C112.012 215.257 111.896 214.998 111.815 214.727C111.591 214.127 111.314 213.395 110.999 212.533C110.321 210.685 109.374 208.136 108.28 205.333C107.187 202.529 106.162 200.011 105.415 198.186C105.077 197.339 104.784 196.646 104.538 196.022C104.407 195.755 104.316 195.469 104.268 195.175Z" fill="#263238"/>
<path d="M106.501 274.316C106.444 274.143 106.403 273.965 106.378 273.784C106.309 273.392 106.216 272.883 106.109 272.244C106.047 271.905 105.985 271.536 105.916 271.135C105.847 270.735 105.731 270.296 105.623 269.826C105.416 268.894 105.2 267.824 104.853 266.661C104.692 266.076 104.53 265.467 104.353 264.836L103.729 262.872C103.329 261.517 102.766 260.108 102.189 258.606C101.018 255.634 99.5938 252.446 97.9381 249.134C95.0368 243.545 91.8417 238.114 88.3661 232.863C87.0493 230.876 85.9789 229.251 85.2011 228.088C84.8469 227.549 84.5696 227.118 84.3463 226.787C84.2407 226.638 84.148 226.481 84.0691 226.317C84.1996 226.445 84.3158 226.587 84.4156 226.74L85.332 227.996C86.1021 229.097 87.2495 230.699 88.6048 232.709C92.1532 237.925 95.3881 243.348 98.2924 248.949C99.9557 252.253 101.373 255.48 102.535 258.467C103.067 260.008 103.621 261.401 104.014 262.772L104.615 264.744C104.776 265.39 104.938 265.999 105.092 266.592C105.416 267.762 105.608 268.84 105.801 269.78C105.893 270.252 105.978 270.691 106.055 271.097C106.116 271.505 106.163 271.867 106.216 272.213C106.293 272.852 106.363 273.368 106.417 273.753C106.465 273.937 106.493 274.126 106.501 274.316Z" fill="#263238"/>
<path d="M71.0778 311.58C70.812 311.522 70.5537 311.434 70.3078 311.318C69.6047 311.042 68.9181 310.726 68.2517 310.371C66.0609 309.176 63.9653 307.814 61.9833 306.297C59.673 304.557 57.5476 302.97 55.9613 301.923C54.3749 300.876 53.3507 300.291 53.3815 300.229C53.6509 300.311 53.9095 300.424 54.1516 300.568C54.6368 300.799 55.3067 301.184 56.123 301.684C57.7633 302.678 59.9041 304.233 62.2297 305.974C64.197 307.479 66.2543 308.862 68.3903 310.117C70.0151 311.056 71.1009 311.511 71.0778 311.58Z" fill="#263238"/>
<path d="M135.764 316.901C135.508 316.931 135.25 316.931 134.994 316.901H132.845L125.784 316.847L118.714 316.886H116.566C116.308 316.898 116.05 316.883 115.796 316.839C116.046 316.765 116.305 316.726 116.566 316.724C117.074 316.685 117.806 316.631 118.714 316.593C120.516 316.5 123.027 316.423 125.791 316.431C128.556 316.439 131.059 316.508 132.868 316.608C133.769 316.655 134.501 316.701 135.009 316.747C135.267 316.763 135.521 316.815 135.764 316.901Z" fill="#263238"/>
<path d="M83.1679 115.211C81.5002 115.437 79.8028 115.169 78.2856 114.441C77.5345 114.074 76.8983 113.508 76.4462 112.805C75.9941 112.101 75.7434 111.288 75.7213 110.452C75.7213 109.474 76.1756 108.511 76.0139 107.549C75.8522 106.586 75.136 105.816 74.674 104.953C74.125 103.852 73.9692 102.596 74.2326 101.394C74.496 100.193 75.1626 99.1169 76.1217 98.3462C77.1305 97.5761 78.432 97.1757 79.2636 96.2285C80.2647 95.1119 80.4264 93.4947 81.0348 92.124C81.4866 91.1367 82.1735 90.275 83.0354 89.6146C83.8972 88.9541 84.9078 88.5148 85.9787 88.3352C87.1646 88.1504 88.3967 88.2813 89.5287 87.904C90.4637 87.5 91.3456 86.9827 92.1547 86.3639C94.8338 84.632 98.0857 84.0209 101.211 84.662C102.58 84.9038 103.852 85.5317 104.876 86.4717C105.978 87.5652 107.394 88.7819 107.795 90.245C108.265 92.0162 107.687 94.234 107.217 95.9975C106.748 97.7609 105.323 99.3781 103.506 99.5937" fill="#263238"/>
<path d="M82.7908 128.833L97.2528 129.033C97.4992 127.37 98.0228 120.871 98.0228 120.871C98.0228 120.871 104.083 120.509 104.715 114.541C105.346 108.573 105.608 94.7728 105.608 94.7728C102.352 92.9923 98.6786 92.1142 94.969 92.2293C91.2594 92.3443 87.6479 93.4484 84.508 95.4274L83.5608 96.028L82.7908 128.833Z" fill="#FFBE9D"/>
<path d="M98.4695 110.652C98.9126 110.528 99.3728 110.476 99.8325 110.498C100.048 110.498 100.218 110.459 100.248 110.344C100.27 110.131 100.236 109.916 100.148 109.72L99.6554 107.988C99.1769 106.514 98.8442 104.998 98.662 103.459C99.2892 104.876 99.7741 106.352 100.11 107.864C100.271 108.465 100.418 109.035 100.564 109.605C100.67 109.896 100.67 110.215 100.564 110.506C100.525 110.586 100.468 110.655 100.397 110.709C100.326 110.762 100.243 110.798 100.156 110.814C100.033 110.832 99.9088 110.832 99.7863 110.814C99.3413 110.836 98.8958 110.782 98.4695 110.652Z" fill="#263238"/>
<path d="M98.0072 120.786C95.2452 120.58 92.6072 119.556 90.4297 117.844C90.4297 117.844 91.8697 122.311 97.8763 122.334L98.0072 120.786Z" fill="#EB996E"/>
<path d="M83.6068 102.305C83.4836 102.251 79.5177 101.604 79.7565 106.324C79.9952 111.045 84.6695 109.258 84.6772 109.12C84.6849 108.981 83.6068 102.305 83.6068 102.305Z" fill="#FFBE9D"/>
<path d="M83.1679 107.533C83.1679 107.533 83.0832 107.595 82.9523 107.664C82.7601 107.756 82.5401 107.773 82.3362 107.71C82.0232 107.53 81.763 107.271 81.5819 106.959C81.4008 106.647 81.305 106.292 81.3043 105.931C81.2735 105.525 81.334 105.117 81.4815 104.738C81.5195 104.59 81.5925 104.453 81.6944 104.339C81.7962 104.225 81.9239 104.137 82.0667 104.083C82.1605 104.055 82.2612 104.059 82.3521 104.095C82.4431 104.132 82.519 104.198 82.5673 104.283C82.6366 104.414 82.5673 104.507 82.6366 104.514C82.7059 104.522 82.729 104.43 82.6828 104.237C82.6511 104.122 82.5803 104.021 82.4826 103.952C82.4181 103.905 82.3444 103.871 82.2661 103.854C82.1878 103.836 82.1067 103.836 82.0282 103.852C81.8355 103.897 81.6581 103.992 81.5135 104.127C81.3689 104.262 81.2623 104.433 81.2042 104.622C81.0214 105.041 80.9447 105.499 80.9809 105.954C80.9753 106.376 81.0954 106.789 81.3258 107.141C81.5563 107.494 81.8866 107.77 82.2746 107.933C82.4067 107.969 82.5452 107.973 82.679 107.945C82.8128 107.917 82.9381 107.857 83.0447 107.772C83.1679 107.649 83.1679 107.541 83.1679 107.533Z" fill="#EB996E"/>
<path d="M93.1095 102.189C93.0402 102.104 93.1557 101.881 93.4638 101.642C93.8735 101.351 94.3562 101.181 94.8576 101.149C95.3589 101.11 95.861 101.214 96.3053 101.45C96.6442 101.642 96.7828 101.85 96.7289 101.935C96.6134 102.135 95.851 101.873 94.9115 101.935C93.972 101.996 93.2481 102.366 93.1095 102.189Z" fill="#263238"/>
<path d="M101.48 102.235C101.434 102.027 102.081 101.719 102.928 101.727C103.775 101.734 104.422 102.035 104.383 102.25C104.345 102.466 103.698 102.528 102.928 102.528C102.158 102.528 101.519 102.458 101.48 102.235Z" fill="#263238"/>
<path d="M82.1052 97.4758C82.3362 98.9235 82.5621 100.374 82.7829 101.827C82.8214 102.519 83.0594 103.185 83.4683 103.744C84.2383 104.599 85.6399 104.514 86.6256 103.952C88.0656 103.113 88.8588 101.503 89.4671 99.9477C90.0755 98.3921 90.6145 96.7519 91.7774 95.566C92.6134 96.4415 93.7046 97.0306 94.8953 97.2491C96.086 97.4676 97.3153 97.3043 98.4077 96.7827C99.3703 96.3052 100.171 95.5506 101.095 94.9961C101.537 94.6838 102.044 94.4769 102.578 94.3915C103.112 94.3061 103.659 94.3443 104.176 94.5033C104.722 94.7343 105.215 95.1809 105.8 95.1501C106.025 95.1311 106.241 95.0545 106.427 94.9277C106.613 94.8009 106.763 94.6282 106.863 94.4263C107.055 94.0157 107.122 93.5578 107.056 93.1094C106.863 91.4461 105.515 90.1216 103.975 89.3823C101.827 88.3273 99.3549 88.181 96.9523 88.1733C94.674 88.1059 92.3966 88.3311 90.1756 88.8432C87.9454 89.3681 85.9168 90.5323 84.3384 92.193C83.5608 93.0303 82.9824 94.0323 82.6464 95.1244C82.3104 96.2165 82.2254 97.3704 82.3979 98.5" fill="#263238"/>
<path d="M100.934 92.7015C101.249 94.2342 102.061 95.6201 103.244 96.6443C103.777 97.1758 104.487 97.4936 105.238 97.5376C105.842 97.4656 106.398 97.1737 106.8 96.7177C107.202 96.2617 107.422 95.6735 107.418 95.0656C107.364 93.8402 106.836 92.6835 105.947 91.839C105.187 90.9395 104.107 90.3706 102.936 90.2527C102.355 90.2248 101.785 90.4171 101.34 90.7911C100.894 91.1651 100.606 91.6933 100.533 92.2703" fill="#263238"/>
<path d="M93.949 104.422C93.949 104.626 94.0301 104.822 94.1745 104.967C94.3189 105.111 94.5148 105.192 94.719 105.192C94.816 105.198 94.9132 105.185 95.0049 105.153C95.0966 105.121 95.1809 105.071 95.2528 105.005C95.3246 104.94 95.3826 104.861 95.4232 104.772C95.4638 104.684 95.4862 104.588 95.4891 104.491C95.4891 104.287 95.408 104.091 95.2636 103.947C95.1192 103.802 94.9233 103.721 94.719 103.721C94.6219 103.714 94.5242 103.726 94.432 103.758C94.3398 103.79 94.2551 103.84 94.183 103.906C94.1109 103.971 94.053 104.051 94.0127 104.14C93.9725 104.229 93.9508 104.325 93.949 104.422Z" fill="#263238"/>
<path d="M92.7323 103.59C92.8324 103.69 93.3945 103.251 94.2108 103.236C95.0271 103.221 95.6278 103.621 95.7125 103.513C95.7972 103.405 95.6586 103.298 95.389 103.113C95.0358 102.878 94.6188 102.757 94.1946 102.767C93.7704 102.776 93.3594 102.916 93.0172 103.167C92.7708 103.375 92.6861 103.59 92.7323 103.59Z" fill="#263238"/>
<path d="M102.312 104.399C102.312 104.603 102.393 104.799 102.538 104.944C102.682 105.088 102.878 105.169 103.082 105.169C103.179 105.176 103.277 105.164 103.369 105.132C103.461 105.1 103.546 105.05 103.618 104.985C103.69 104.919 103.748 104.839 103.788 104.751C103.829 104.662 103.85 104.566 103.852 104.468C103.852 104.264 103.771 104.068 103.627 103.924C103.482 103.779 103.286 103.698 103.082 103.698C102.889 103.697 102.703 103.769 102.561 103.899C102.418 104.029 102.329 104.207 102.312 104.399Z" fill="#263238"/>
<path d="M101.234 103.721C101.326 103.822 101.896 103.383 102.712 103.367C103.529 103.352 104.129 103.752 104.253 103.652C104.376 103.552 104.199 103.429 103.929 103.244C103.575 103.007 103.156 102.886 102.73 102.897C102.303 102.908 101.891 103.051 101.55 103.306C101.272 103.498 101.188 103.683 101.234 103.721Z" fill="#263238"/>
<path d="M98.2767 113.07C98.2767 113.124 98.0765 113.216 97.7069 113.193C97.2257 113.158 96.7752 112.943 96.444 112.592C96.1091 112.243 95.9145 111.782 95.8972 111.299C95.8972 110.937 95.9973 110.729 96.0435 110.737C96.0897 110.744 96.0435 111.622 96.7289 112.315C97.4143 113.008 98.2844 112.962 98.2767 113.07Z" fill="#263238"/>
<path d="M101.003 143.919L113.024 139.899C113.024 139.899 121.387 159.698 123.543 159.921C135.472 161.007 148.239 157.057 152.714 155.493C153.168 154.977 153.692 154.369 154.254 153.614C154.746 152.969 155.126 152.245 155.378 151.474C155.722 150.524 155.937 149.532 156.017 148.524C155.992 148.328 156.029 148.129 156.124 147.956C156.218 147.782 156.365 147.643 156.544 147.557C156.722 147.472 156.922 147.445 157.117 147.481C157.311 147.516 157.49 147.612 157.627 147.754C158.143 148.424 158.273 150.981 157.095 153.73C155.917 156.479 160.083 154.292 161.616 153.522C163.148 152.752 168.007 150.596 168.616 150.881C169.509 151.297 169.232 152.328 167.684 153.06C166.136 153.792 161.639 156.325 162.085 157.111C162.532 157.896 170.279 153.869 170.279 153.869C170.279 153.869 171.819 152.737 172.343 153.63C173.328 155.247 164.765 158.92 163.949 159.251C163.371 159.482 163.826 160.36 164.426 160.075C165.027 159.79 172.065 155.878 173.082 157.519C173.852 158.774 166.074 160.599 165.073 162.224C164.072 163.849 170.833 160.237 171.534 161.454C171.788 161.916 171.919 162.293 167.73 163.764C164.664 164.727 161.548 165.524 158.397 166.151C158.397 166.151 115.273 185.449 107.572 166.829C99.6631 147.947 101.003 143.919 101.003 143.919Z" fill="#EB996E"/>
<path d="M117.051 146.422C112.238 135.156 105.939 130.744 102.612 129.111C101.447 128.545 100.179 128.221 98.8851 128.156L98.4847 126.216L82.5441 124.783L82.1514 127.247L79.8412 127.117C79.8412 127.117 66.1031 128.495 66.0723 144.412C66.0723 151.859 70.0843 159.105 71.5013 162.655C72.3869 170.079 69.1911 183.548 69.2912 186.828L108.357 189.6L109.959 165.197L109.597 162.886L122.457 158.944L117.051 146.422Z" fill="#EBEBEB"/>
<path d="M203.546 92.5477C197.907 85.564 190.325 80.4086 181.757 77.7333C173.189 75.0579 164.02 74.9826 155.409 77.5169C146.798 80.0512 139.132 85.0813 133.379 91.9715C127.626 98.8616 124.045 107.303 123.089 116.227C122.317 123.483 123.307 130.818 125.974 137.61C128.642 144.401 132.909 150.449 138.413 155.239L98.6851 201.867L104.384 206.727L144.427 159.706C150.177 163.256 156.651 165.47 163.371 166.182C165.003 166.357 166.643 166.445 168.284 166.444C176.842 166.416 185.217 163.971 192.446 159.392C199.675 154.812 205.464 148.284 209.147 140.56C212.829 132.835 214.254 124.227 213.259 115.728C212.265 107.228 208.89 99.1825 203.523 92.5169L203.546 92.5477ZM205.902 125.076C204.97 133.791 201.044 141.914 194.794 148.059C188.544 154.205 180.356 157.993 171.626 158.779C162.896 159.565 154.164 157.299 146.917 152.368C139.67 147.438 134.357 140.147 131.883 131.738C129.409 123.329 129.927 114.322 133.349 106.252C136.771 98.1828 142.885 91.5492 150.65 87.4819C158.414 83.4147 167.349 82.1655 175.931 83.9472C184.513 85.7288 192.213 90.4311 197.717 97.2529C200.853 101.119 203.191 105.569 204.596 110.344C206.001 115.12 206.445 120.127 205.902 125.076Z" fill="#263238"/>
<path d="M200.35 89.3518C194.713 82.3645 187.131 77.2058 178.561 74.5282C169.992 71.8505 160.822 71.7743 152.209 74.3091C143.597 76.8438 135.93 81.8757 130.177 88.7683C124.425 95.6609 120.846 104.105 119.893 113.032C119.119 120.287 120.109 127.623 122.777 134.415C125.445 141.206 129.712 147.254 135.217 152.044L95.0039 199.018L101.095 203.893L141.255 156.479C147.006 160.026 153.479 162.239 160.198 162.955C161.83 163.127 163.47 163.214 165.111 163.217C173.669 163.189 182.044 160.744 189.273 156.165C196.503 151.586 202.291 145.058 205.974 137.333C209.656 129.608 211.081 121 210.087 112.501C209.092 104.001 205.717 95.9558 200.35 89.2902V89.3518ZM202.706 121.88C201.775 130.6 197.848 138.726 191.596 144.876C185.344 151.025 177.153 154.816 168.419 155.603C159.685 156.39 150.948 154.124 143.698 149.191C136.447 144.258 131.131 136.964 128.656 128.551C126.181 120.138 126.699 111.127 130.123 103.054C133.547 94.9804 139.665 88.3441 147.433 84.2756C155.202 80.2071 164.141 78.9583 172.727 80.7419C181.313 82.5254 189.015 87.2311 194.521 94.057C197.656 97.9237 199.993 102.373 201.398 107.149C202.803 111.925 203.248 116.931 202.706 121.88Z" fill="#455A64"/>
<path d="M144.427 142.44C144.313 142.343 144.212 142.232 144.127 142.109C143.942 141.878 143.657 141.547 143.357 141.093C142.421 139.824 141.574 138.491 140.823 137.104C138.314 132.521 136.79 127.464 136.349 122.258C135.907 117.052 136.558 111.811 138.259 106.871C138.762 105.379 139.37 103.926 140.076 102.52C140.315 102.011 140.538 101.642 140.685 101.388C140.744 101.25 140.825 101.123 140.923 101.01C140.879 101.154 140.822 101.293 140.754 101.426C140.639 101.696 140.438 102.073 140.215 102.581C139.568 104.009 139.003 105.472 138.521 106.963C136.91 111.884 136.306 117.08 136.745 122.239C137.184 127.399 138.658 132.418 141.077 136.996C141.799 138.384 142.602 139.729 143.48 141.023C143.78 141.493 144.042 141.793 144.204 142.078C144.29 142.191 144.365 142.312 144.427 142.44Z" fill="#263238"/>
<path d="M146.314 95.8353C146.383 95.9278 145.921 96.359 145.459 96.9674C144.997 97.5757 144.689 98.1225 144.581 98.084C144.474 98.0455 144.628 97.3755 145.136 96.7209C145.644 96.0664 146.26 95.7429 146.314 95.8353Z" fill="#263238"/>
<path d="M106.394 137.913C106.517 138.258 106.61 138.614 106.671 138.975C106.825 139.661 107.025 140.662 107.264 141.909C107.726 144.389 108.288 147.839 108.804 151.666C109.32 155.493 109.574 158.974 109.72 161.492C109.797 162.755 109.843 163.802 109.859 164.48C109.895 164.846 109.895 165.215 109.859 165.581C109.78 165.224 109.734 164.861 109.72 164.496C109.651 163.725 109.559 162.717 109.451 161.515C109.227 159.005 108.889 155.532 108.419 151.712C107.949 147.893 107.425 144.451 107.033 141.955C106.848 140.77 106.694 139.776 106.571 138.998C106.473 138.644 106.414 138.28 106.394 137.913Z" fill="#263238"/>
<path d="M127.64 175.738C127.64 175.738 84.5154 195.075 76.8147 176.455C68.9137 157.488 70.2537 153.46 70.2537 153.46L82.2745 149.44C82.2745 149.44 90.6452 169.239 92.7937 169.462C104.73 170.556 117.498 166.598 121.972 165.034C122.426 164.526 122.942 163.91 123.512 163.163C124.082 162.416 124.528 161.623 125.052 160.953C126.192 159.528 127.093 159.29 127.593 158.728C128.779 157.38 129.904 158.366 129.349 159.089C128.795 159.813 127.555 160.553 126.377 163.309C125.198 166.066 129.395 164.703 131.059 164.272C132.891 163.787 136.334 162.447 136.334 162.447C136.418 163.256 135.502 164.88 133.954 165.612C133.116 166.02 132.254 166.38 131.374 166.69C131.374 166.69 134.555 166.297 134.64 167.029C134.724 167.76 133.7 173.12 130.312 174.73L127.64 175.738Z" fill="#FFBE9D"/>
<path d="M79.4484 132.191L87.1953 155.578L70.2537 162.278C70.2537 162.278 61.4133 139.306 72.6101 133.685L79.4484 132.191Z" fill="#EBEBEB"/>
<path d="M88.3197 154.669C88.3197 154.669 88.2273 154.608 88.0887 154.454C87.8967 154.213 87.7266 153.955 87.5804 153.684C87.109 152.683 86.7 151.655 86.356 150.603C85.4088 147.985 84.1228 144.35 82.729 140.338L80.7807 134.671C80.18 132.93 79.7103 131.313 78.8247 130.273C78.4948 129.851 78.0746 129.508 77.5949 129.27C77.1152 129.031 76.5881 128.903 76.0524 128.895C75.6569 128.921 75.2687 129.015 74.905 129.172C74.905 129.172 74.982 129.088 75.1669 128.987C75.4389 128.845 75.738 128.761 76.0447 128.741C76.6147 128.715 77.1827 128.824 77.7031 129.058C78.2234 129.292 78.6814 129.645 79.0403 130.089C80.0106 131.174 80.5112 132.83 81.1272 134.547C81.7433 136.265 82.4055 138.198 83.1063 140.207C84.5078 144.219 85.7477 147.908 86.6256 150.511C87.0722 151.836 87.3956 152.921 87.7191 153.591C88.0425 154.261 88.3505 154.646 88.3197 154.669Z" fill="#263238"/>
<path d="M87.958 155.108C87.7632 155.269 87.5484 155.403 87.3188 155.508C86.8953 155.747 86.2715 156.071 85.4937 156.456C83.9536 157.226 81.7589 158.227 79.3331 159.22C76.9074 160.214 74.6049 161.007 72.9492 161.53C72.1252 161.792 71.4091 161.992 70.9778 162.116C70.7298 162.205 70.4707 162.259 70.2078 162.277C71.0565 161.882 71.9313 161.545 72.826 161.269C74.4586 160.676 76.6764 159.844 79.1483 158.858C81.6203 157.872 83.7688 156.91 85.3705 156.201C86.2096 155.784 87.0737 155.419 87.958 155.108Z" fill="#263238"/>
<path d="M73.026 161.415C72.326 160.366 71.8587 159.179 71.6553 157.935C72.0601 158.424 72.3566 158.993 72.5254 159.606C72.823 160.165 72.9938 160.783 73.026 161.415Z" fill="#263238"/>
<path d="M76.6071 160.037C76.507 160.091 76.0449 159.413 75.7061 158.497C75.4384 157.942 75.3317 157.323 75.3981 156.71C75.7129 157.222 75.9442 157.781 76.0834 158.366C76.3399 158.894 76.5164 159.457 76.6071 160.037Z" fill="#263238"/>
<path d="M80.3572 158.412C79.8897 157.978 79.5557 157.42 79.3946 156.803C79.1136 156.227 79.0014 155.584 79.0712 154.947C79.3829 155.481 79.6187 156.057 79.772 156.656C80.0459 157.212 80.2428 157.803 80.3572 158.412Z" fill="#263238"/>
<path d="M84.3694 156.795C83.9981 156.256 83.7365 155.649 83.5993 155.009C83.3435 154.407 83.21 153.76 83.2065 153.106C83.5861 153.638 83.8486 154.245 83.9766 154.885C84.2397 155.487 84.3734 156.138 84.3694 156.795Z" fill="#263238"/>
<path d="M122.765 158.697C120.639 159.596 118.461 160.367 116.243 161.007C114.066 161.77 111.847 162.407 109.597 162.917C111.725 162.021 113.902 161.25 116.119 160.607C118.296 159.841 120.515 159.204 122.765 158.697Z" fill="#263238"/>
<path d="M112.431 161.415C112.323 161.461 111.984 160.891 111.661 160.152C111.337 159.413 111.175 158.773 111.276 158.727C111.376 158.681 111.714 159.251 112.046 159.998C112.377 160.745 112.546 161.345 112.431 161.415Z" fill="#263238"/>
<path d="M115.758 160.668C115.658 160.668 115.296 160.037 115.049 159.128C114.838 158.595 114.779 158.014 114.88 157.449C114.995 157.449 115.196 158.15 115.434 158.989C115.65 159.523 115.76 160.093 115.758 160.668Z" fill="#263238"/>
<path d="M119.361 159.528C118.88 158.498 118.65 157.369 118.691 156.232C118.988 156.722 119.17 157.272 119.223 157.842C119.398 158.386 119.446 158.963 119.361 159.528Z" fill="#263238"/>
<path d="M84.1076 127.031C83.9921 127.031 83.9382 126.6 83.969 126.076C83.9998 125.552 84.1307 125.144 84.2385 125.152C84.3463 125.16 84.4079 125.591 84.3694 126.107C84.3309 126.623 84.2154 127.039 84.1076 127.031Z" fill="#263238"/>
<path d="M87.6191 127.239C87.5035 127.239 87.4034 126.823 87.3803 126.308C87.3572 125.792 87.4342 125.36 87.542 125.36C87.6499 125.36 87.7577 125.768 87.7808 126.292C87.8039 126.816 87.7269 127.232 87.6191 127.239Z" fill="#263238"/>
<path d="M90.3295 127.71C90.2217 127.71 90.137 127.271 90.137 126.732C90.137 126.192 90.2371 125.761 90.3449 125.761C90.4527 125.761 90.5451 126.2 90.5374 126.732C90.5297 127.263 90.445 127.71 90.3295 127.71Z" fill="#263238"/>
<path d="M93.9953 128.109C93.8951 128.109 93.6718 127.64 93.6564 126.977C93.641 126.315 93.8258 125.807 93.926 125.83C94.0261 125.853 94.0338 126.354 94.0569 126.962C94.08 127.57 94.1108 128.078 93.9953 128.109Z" fill="#263238"/>
<path d="M97.0296 128.11C96.914 128.11 96.7677 127.624 96.6907 126.993C96.6137 126.362 96.6445 125.838 96.7523 125.83C96.8601 125.822 97.0142 126.315 97.0912 126.947C97.1682 127.578 97.1297 128.094 97.0296 128.11Z" fill="#263238"/>
</svg>
